Ronzino-Oblique.ufo
<glyph name="exclam" format="2">
  <advance width="253"/>
  <unicode hex="0021"/>
  <outline>
    <contour>
      <point x="95" y="212" type="line"/>
      <point x="157" y="212" type="line"/>
      <point x="222" y="540" type="line"/>
      <point x="242" y="680" type="line"/>
      <point x="142" y="680" type="line"/>
      <point x="122" y="540" type="line"/>
    </contour>
    <component base="period" xOffset="21"/>
  </outline>
</glyph>
<glyph name="numbersign" format="2">
  <advance width="579"/>
  <unicode hex="0023"/>
  <outline>
    <contour>
      <point x="79" y="0" type="line"/>
      <point x="152" y="0" type="line"/>
      <point x="295" y="680" type="line"/>
      <point x="223" y="680" type="line"/>
    </contour>
    <contour>
      <point x="13" y="177" type="line"/>
      <point x="534" y="177" type="line"/>
      <point x="547" y="244" type="line"/>
      <point x="27" y="244" type="line"/>
    </contour>
    <contour>
      <point x="307" y="0" type="line"/>
      <point x="379" y="0" type="line"/>
      <point x="519" y="680" type="line"/>
      <point x="447" y="680" type="line"/>
    </contour>
    <contour>
      <point x="54" y="440" type="line"/>
      <point x="576" y="440" type="line"/>
      <point x="589" y="506" type="line"/>
      <point x="68" y="506" type="line"/>
    </contour>
  </outline>
</glyph>
<glyph name="dollar" format="2">
  <advance width="619"/>
  <unicode hex="0024"/>
  <anchor x="287" y="0" name="bottom"/>
  <anchor x="365" y="680" name="top"/>
  <outline>
    <contour>
      <point x="282" y="-14" type="curve" smooth="yes"/>
      <point x="442" y="-14"/>
      <point x="555" y="81"/>
      <point x="555" y="215" type="curve" smooth="yes"/>
      <point x="555" y="436"/>
      <point x="200" y="345"/>
      <point x="200" y="499" type="curve" smooth="yes"/>
      <point x="200" y="570"/>
      <point x="264" y="620"/>
      <point x="352" y="620" type="curve" smooth="yes"/>
      <point x="430" y="620"/>
      <point x="481" y="576"/>
      <point x="487" y="506" type="curve"/>
      <point x="583" y="539" type="line"/>
      <point x="572" y="637"/>
      <point x="486" y="694"/>
      <point x="371" y="694" type="curve" smooth="yes"/>
      <point x="219" y="694"/>
      <point x="112" y="605"/>
      <point x="112" y="480" type="curve" smooth="yes"/>
      <point x="112" y="267"/>
      <point x="465" y="363"/>
      <point x="465" y="196" type="curve" smooth="yes"/>
      <point x="465" y="115"/>
      <point x="398" y="61"/>
      <point x="299" y="61" type="curve" smooth="yes"/>
      <point x="212" y="61"/>
      <point x="155" y="110"/>
      <point x="148" y="194" type="curve"/>
      <point x="54" y="162" type="line"/>
      <point x="63" y="55"/>
      <point x="157" y="-14"/>
    </contour>
    <contour>
      <point x="226" y="-100" type="line"/>
      <point x="298" y="-100" type="line"/>
      <point x="422" y="780" type="line"/>
      <point x="350" y="780" type="line"/>
    </contour>
  </outline>
</glyph>
<glyph name="ampersand" format="2">
  <advance width="628"/>
  <unicode hex="0026"/>
  <outline>
    <contour>
      <point x="522" y="-68" type="curve"/>
      <point x="607" y="-25" type="line"/>
      <point x="576" y="104"/>
      <point x="500" y="196"/>
      <point x="416" y="274" type="curve" smooth="yes"/>
      <point x="308" y="375"/>
      <point x="216" y="424"/>
      <point x="216" y="510" type="curve" smooth="yes"/>
      <point x="216" y="575"/>
      <point x="263" y="619"/>
      <point x="336" y="619" type="curve" smooth="yes"/>
      <point x="396" y="619"/>
      <point x="431" y="579"/>
      <point x="433" y="508" type="curve"/>
      <point x="519" y="540" type="line"/>
      <point x="512" y="633"/>
      <point x="445" y="692"/>
      <point x="349" y="692" type="curve" smooth="yes"/>
      <point x="213" y="692"/>
      <point x="125" y="614"/>
      <point x="125" y="496" type="curve" smooth="yes"/>
      <point x="125" y="398"/>
      <point x="213" y="339"/>
      <point x="317" y="243" type="curve" smooth="yes"/>
      <point x="409" y="158"/>
      <point x="503" y="50"/>
    </contour>
    <contour>
      <point x="459" y="-17"/>
      <point x="553" y="158"/>
      <point x="581" y="373" type="curve"/>
      <point x="499" y="373" type="line"/>
      <point x="478" y="214"/>
      <point x="423" y="58"/>
      <point x="261" y="58" type="curve" smooth="yes"/>
      <point x="175" y="58"/>
      <point x="118" y="102"/>
      <point x="118" y="172" type="curve" smooth="yes"/>
      <point x="118" y="239"/>
      <point x="159" y="298"/>
      <point x="229" y="336" type="curve"/>
      <point x="189" y="381" type="line"/>
      <point x="87" y="337"/>
      <point x="24" y="253"/>
      <point x="24" y="162" type="curve" smooth="yes"/>
      <point x="24" y="62"/>
      <point x="111" y="-17"/>
      <point x="243" y="-17" type="curve" smooth="yes"/>
    </contour>
  </outline>
</glyph>
<glyph name="quotesingle" format="2">
  <advance width="185"/>
  <unicode hex="0027"/>
  <outline>
    <contour>
      <point x="80" y="413" type="line"/>
      <point x="144" y="413" type="line"/>
      <point x="196" y="681" type="line"/>
      <point x="105" y="681" type="line"/>
    </contour>
  </outline>
</glyph>
<glyph name="parenleft" format="2">
  <advance width="324"/>
  <unicode hex="0028"/>
  <outline>
    <contour>
      <point x="170" y="-232" type="curve"/>
      <point x="233" y="-210" type="line"/>
      <point x="188" y="-120"/>
      <point x="165" y="-8"/>
      <point x="165" y="106" type="curve" smooth="yes"/>
      <point x="165" y="309"/>
      <point x="238" y="524"/>
      <point x="356" y="672" type="curve"/>
      <point x="300" y="694" type="line"/>
      <point x="160" y="540"/>
      <point x="76" y="321"/>
      <point x="76" y="125" type="curve" smooth="yes"/>
      <point x="76" y="-9"/>
      <point x="110" y="-137"/>
    </contour>
  </outline>
</glyph>
<glyph name="asterisk" format="2">
  <advance width="378"/>
  <unicode hex="002A"/>
  <outline>
    <contour>
      <point x="88" y="580" type="line"/>
      <point x="141" y="562" type="line"/>
      <point x="196" y="554" type="line"/>
      <point x="197" y="558" type="line"/>
      <point x="147" y="516" type="line"/>
      <point x="106" y="466" type="line"/>
      <point x="153" y="428" type="line"/>
      <point x="195" y="476" type="line"/>
      <point x="227" y="524" type="line"/>
      <point x="223" y="524" type="line"/>
      <point x="241" y="476" type="line"/>
      <point x="271" y="428" type="line"/>
      <point x="328" y="466" type="line"/>
      <point x="301" y="516" type="line"/>
      <point x="263" y="558" type="line"/>
      <point x="262" y="554" type="line"/>
      <point x="319" y="562" type="line"/>
      <point x="378" y="580" type="line"/>
      <point x="369" y="644" type="line"/>
      <point x="308" y="626" type="line"/>
      <point x="257" y="600" type="line"/>
      <point x="260" y="596" type="line"/>
      <point x="276" y="652" type="line"/>
      <point x="285" y="712" type="line"/>
      <point x="219" y="712" type="line"/>
      <point x="210" y="652" type="line"/>
      <point x="210" y="596" type="line"/>
      <point x="215" y="600" type="line"/>
      <point x="170" y="626" type="line"/>
      <point x="115" y="644" type="line"/>
    </contour>
  </outline>
</glyph>
<glyph name="plus" format="2">
  <advance width="651"/>
  <unicode hex="002B"/>
  <outline>
    <contour>
      <point x="261" y="72" type="line"/>
      <point x="335" y="72" type="line"/>
      <point x="395" y="500" type="line"/>
      <point x="321" y="500" type="line"/>
    </contour>
    <contour>
      <point x="91" y="248" type="line"/>
      <point x="555" y="248" type="line"/>
      <point x="565" y="320" type="line"/>
      <point x="101" y="320" type="line"/>
    </contour>
  </outline>
</glyph>
<glyph name="comma" format="2">
  <advance width="210"/>
  <unicode hex="002C"/>
  <outline>
    <contour>
      <point x="1" y="-136" type="line"/>
      <point x="68" y="-116"/>
      <point x="116" y="-60"/>
      <point x="126" y="8" type="curve" smooth="yes"/>
      <point x="141" y="116" type="line"/>
      <point x="27" y="116" type="line"/>
      <point x="10" y="0" type="line"/>
      <point x="70" y="0" type="line"/>
      <point x="69" y="-8" type="line" smooth="yes"/>
      <point x="64" y="-48"/>
      <point x="33" y="-78"/>
      <point x="-10" y="-88" type="curve"/>
    </contour>
  </outline>
</glyph>
<glyph name="hyphen" format="2">
  <advance width="454"/>
  <unicode hex="002D"/>
  <outline>
    <contour>
      <point x="89" y="227" type="line"/>
      <point x="355" y="227" type="line"/>
      <point x="365" y="301" type="line"/>
      <point x="99" y="301" type="line"/>
    </contour>
  </outline>
</glyph>
<glyph name="period" format="2">
  <advance width="208"/>
  <unicode hex="002E"/>
  <outline>
    <contour>
      <point x="11" y="0" type="line"/>
      <point x="123" y="0" type="line"/>
      <point x="139" y="116" type="line"/>
      <point x="27" y="116" type="line"/>
    </contour>
  </outline>
</glyph>
<glyph name="slash" format="2">
  <advance width="307"/>
  <unicode hex="002F"/>
  <outline>
    <contour>
      <point x="-43" y="-112" type="line"/>
      <point x="41" y="-112" type="line"/>
      <point x="357" y="694" type="line"/>
      <point x="274" y="694" type="line"/>
    </contour>
  </outline>
</glyph>
<glyph name="zero" format="2">
  <advance width="619"/>
  <unicode hex="0030"/>
  <outline>
    <contour>
      <point x="270" y="-14" type="curve" smooth="yes"/>
      <point x="450" y="-14"/>
      <point x="592" y="176"/>
      <point x="592" y="420" type="curve" smooth="yes"/>
      <point x="592" y="587"/>
      <point x="508" y="694"/>
      <point x="370" y="694" type="curve" smooth="yes"/>
      <point x="189" y="694"/>
      <point x="48" y="503"/>
      <point x="48" y="260" type="curve" smooth="yes"/>
      <point x="48" y="94"/>
      <point x="131" y="-14"/>
    </contour>
    <contour>
      <point x="276" y="65" type="curve" smooth="yes"/>
      <point x="189" y="65"/>
      <point x="140" y="143"/>
      <point x="140" y="264" type="curve" smooth="yes"/>
      <point x="140" y="458"/>
      <point x="240" y="617"/>
      <point x="360" y="617" type="curve" smooth="yes"/>
      <point x="447" y="617"/>
      <point x="500" y="539"/>
      <point x="500" y="418" type="curve" smooth="yes"/>
      <point x="500" y="224"/>
      <point x="396" y="65"/>
    </contour>
  </outline>
</glyph>
<glyph name="one" format="2">
  <advance width="372"/>
  <unicode hex="0031"/>
  <outline>
    <contour>
      <point x="163" y="0" type="line"/>
      <point x="251" y="0" type="line"/>
      <point x="347" y="680" type="line"/>
      <point x="269" y="680" type="line"/>
      <point x="231" y="609"/>
      <point x="149" y="560"/>
      <point x="60" y="548" type="curve"/>
      <point x="60" y="462" type="line"/>
      <point x="149" y="472"/>
      <point x="220" y="515"/>
      <point x="252" y="576" type="curve"/>
      <point x="244" y="576" type="line"/>
    </contour>
  </outline>
</glyph>
<glyph name="two" format="2">
  <advance width="546"/>
  <unicode hex="0032"/>
  <outline>
    <contour>
      <point x="-8" y="0" type="line"/>
      <point x="472" y="0" type="line"/>
      <point x="484" y="82" type="line"/>
      <point x="122" y="82" type="line"/>
      <point x="124" y="72" type="line"/>
      <point x="156" y="135"/>
      <point x="217" y="180"/>
      <point x="281" y="222" type="curve" smooth="yes"/>
      <point x="395" y="297"/>
      <point x="521" y="366"/>
      <point x="521" y="520" type="curve" smooth="yes"/>
      <point x="521" y="629"/>
      <point x="438" y="694"/>
      <point x="318" y="694" type="curve" smooth="yes"/>
      <point x="197" y="694"/>
      <point x="99" y="624"/>
      <point x="60" y="516" type="curve"/>
      <point x="142" y="491" type="line"/>
      <point x="169" y="571"/>
      <point x="236" y="614"/>
      <point x="317" y="614" type="curve" smooth="yes"/>
      <point x="387" y="614"/>
      <point x="430" y="577"/>
      <point x="430" y="506" type="curve" smooth="yes"/>
      <point x="430" y="410"/>
      <point x="341" y="353"/>
      <point x="243" y="290" type="curve" smooth="yes"/>
      <point x="142" y="225"/>
      <point x="32" y="153"/>
      <point x="-2" y="24" type="curve" smooth="yes"/>
    </contour>
  </outline>
</glyph>
<glyph name="three" format="2">
  <advance width="552"/>
  <unicode hex="0033"/>
  <outline>
    <contour>
      <point x="239" y="-14" type="curve" smooth="yes"/>
      <point x="393" y="-14"/>
      <point x="502" y="85"/>
      <point x="502" y="222" type="curve" smooth="yes"/>
      <point x="502" y="302"/>
      <point x="457" y="356"/>
      <point x="384" y="368" type="curve"/>
      <point x="383" y="360" type="line"/>
      <point x="467" y="377"/>
      <point x="527" y="451"/>
      <point x="527" y="540" type="curve" smooth="yes"/>
      <point x="527" y="633"/>
      <point x="449" y="694"/>
      <point x="332" y="694" type="curve" smooth="yes"/>
      <point x="211" y="694"/>
      <point x="113" y="628"/>
      <point x="87" y="532" type="curve"/>
      <point x="168" y="508" type="line"/>
      <point x="186" y="576"/>
      <point x="247" y="620"/>
      <point x="326" y="620" type="curve" smooth="yes"/>
      <point x="395" y="620"/>
      <point x="437" y="584"/>
      <point x="437" y="526" type="curve" smooth="yes"/>
      <point x="437" y="450"/>
      <point x="376" y="396"/>
      <point x="288" y="396" type="curve" smooth="yes"/>
      <point x="216" y="396" type="line"/>
      <point x="207" y="328" type="line"/>
      <point x="283" y="328" type="line" smooth="yes"/>
      <point x="363" y="328"/>
      <point x="412" y="285"/>
      <point x="412" y="217" type="curve" smooth="yes"/>
      <point x="412" y="125"/>
      <point x="340" y="60"/>
      <point x="242" y="60" type="curve" smooth="yes"/>
      <point x="155" y="60"/>
      <point x="100" y="112"/>
      <point x="105" y="196" type="curve"/>
      <point x="14" y="180" type="line"/>
      <point x="6" y="64"/>
      <point x="99" y="-14"/>
    </contour>
  </outline>
</glyph>
<glyph name="four" format="2">
  <advance width="545"/>
  <unicode hex="0034"/>
  <outline>
    <contour>
      <point x="312" y="0" type="line"/>
      <point x="400" y="0" type="line"/>
      <point x="495" y="680" type="line"/>
      <point x="411" y="680" type="line"/>
      <point x="11" y="240" type="line"/>
      <point x="0" y="160" type="line"/>
      <point x="506" y="160" type="line"/>
      <point x="517" y="236" type="line"/>
      <point x="79" y="236" type="line"/>
      <point x="93" y="224" type="line"/>
      <point x="409" y="576" type="line"/>
      <point x="393" y="580" type="line"/>
    </contour>
  </outline>
</glyph>
<glyph name="five" format="2">
  <advance width="563"/>
  <unicode hex="0035"/>
  <outline>
    <contour>
      <point x="244" y="-14" type="curve" smooth="yes"/>
      <point x="411" y="-14"/>
      <point x="524" y="107"/>
      <point x="524" y="264" type="curve" smooth="yes"/>
      <point x="524" y="374"/>
      <point x="445" y="448"/>
      <point x="326" y="448" type="curve" smooth="yes"/>
      <point x="246" y="448"/>
      <point x="174" y="414"/>
      <point x="145" y="364" type="curve"/>
      <point x="162" y="364" type="line"/>
      <point x="224" y="602" type="line"/>
      <point x="536" y="602" type="line"/>
      <point x="547" y="680" type="line"/>
      <point x="167" y="680" type="line"/>
      <point x="74" y="332" type="line"/>
      <point x="159" y="312" type="line"/>
      <point x="190" y="354"/>
      <point x="243" y="378"/>
      <point x="301" y="378" type="curve" smooth="yes"/>
      <point x="385" y="378"/>
      <point x="433" y="330"/>
      <point x="433" y="252" type="curve" smooth="yes"/>
      <point x="433" y="142"/>
      <point x="353" y="60"/>
      <point x="250" y="60" type="curve" smooth="yes"/>
      <point x="165" y="60"/>
      <point x="110" y="115"/>
      <point x="112" y="200" type="curve"/>
      <point x="22" y="178" type="line"/>
      <point x="21" y="63"/>
      <point x="111" y="-14"/>
    </contour>
  </outline>
</glyph>
<glyph name="six" format="2">
  <advance width="591"/>
  <unicode hex="0036"/>
  <outline>
    <contour>
      <point x="273" y="-14" type="curve" smooth="yes"/>
      <point x="423" y="-14"/>
      <point x="540" y="104"/>
      <point x="540" y="258" type="curve" smooth="yes"/>
      <point x="540" y="369"/>
      <point x="463" y="444"/>
      <point x="343" y="444" type="curve" smooth="yes"/>
      <point x="245" y="444"/>
      <point x="164" y="402"/>
      <point x="135" y="339" type="curve"/>
      <point x="143" y="339" type="line"/>
      <point x="167" y="519"/>
      <point x="257" y="631"/>
      <point x="363" y="631" type="curve" smooth="yes"/>
      <point x="420" y="631"/>
      <point x="461" y="595"/>
      <point x="470" y="536" type="curve"/>
      <point x="559" y="567" type="line"/>
      <point x="541" y="650"/>
      <point x="471" y="703"/>
      <point x="379" y="703" type="curve" smooth="yes"/>
      <point x="194" y="703"/>
      <point x="48" y="529"/>
      <point x="48" y="249" type="curve" smooth="yes"/>
      <point x="48" y="91"/>
      <point x="124" y="-14"/>
    </contour>
    <contour>
      <point x="277" y="62" type="curve" smooth="yes"/>
      <point x="195" y="62"/>
      <point x="143" y="114"/>
      <point x="143" y="196" type="curve" smooth="yes"/>
      <point x="143" y="302"/>
      <point x="217" y="376"/>
      <point x="321" y="376" type="curve" smooth="yes"/>
      <point x="403" y="376"/>
      <point x="449" y="327"/>
      <point x="449" y="251" type="curve" smooth="yes"/>
      <point x="449" y="143"/>
      <point x="376" y="62"/>
    </contour>
  </outline>
</glyph>
<glyph name="seven" format="2">
  <advance width="470"/>
  <unicode hex="0037"/>
  <outline>
    <contour>
      <point x="85" y="0" type="curve"/>
      <point x="179" y="0" type="line"/>
      <point x="219" y="229"/>
      <point x="331" y="440"/>
      <point x="503" y="609" type="curve"/>
      <point x="513" y="680" type="line"/>
      <point x="79" y="680" type="line"/>
      <point x="68" y="602" type="line"/>
      <point x="408" y="602" type="line"/>
      <point x="405" y="610" type="line"/>
      <point x="254" y="459"/>
      <point x="128" y="224"/>
    </contour>
  </outline>
</glyph>
<glyph name="eight" format="2">
  <advance width="598"/>
  <unicode hex="0038"/>
  <outline>
    <contour>
      <point x="260" y="-14" type="curve" smooth="yes"/>
      <point x="424" y="-14"/>
      <point x="548" y="84"/>
      <point x="548" y="215" type="curve" smooth="yes"/>
      <point x="548" y="288"/>
      <point x="503" y="349"/>
      <point x="428" y="372" type="curve"/>
      <point x="427" y="364" type="line"/>
      <point x="510" y="384"/>
      <point x="567" y="455"/>
      <point x="567" y="538" type="curve" smooth="yes"/>
      <point x="567" y="632"/>
      <point x="486" y="694"/>
      <point x="359" y="694" type="curve" smooth="yes"/>
      <point x="210" y="694"/>
      <point x="100" y="607"/>
      <point x="100" y="490" type="curve" smooth="yes"/>
      <point x="100" y="428"/>
      <point x="137" y="380"/>
      <point x="199" y="364" type="curve"/>
      <point x="200" y="372" type="line"/>
      <point x="98" y="343"/>
      <point x="28" y="257"/>
      <point x="28" y="161" type="curve" smooth="yes"/>
      <point x="28" y="57"/>
      <point x="118" y="-14"/>
    </contour>
    <contour>
      <point x="270" y="60" type="curve" smooth="yes"/>
      <point x="179" y="60"/>
      <point x="124" y="104"/>
      <point x="124" y="175" type="curve" smooth="yes"/>
      <point x="124" y="267"/>
      <point x="199" y="332"/>
      <point x="308" y="332" type="curve" smooth="yes"/>
      <point x="399" y="332"/>
      <point x="455" y="288"/>
      <point x="455" y="217" type="curve" smooth="yes"/>
      <point x="455" y="125"/>
      <point x="379" y="60"/>
    </contour>
    <contour>
      <point x="317" y="398" type="curve" smooth="yes"/>
      <point x="238" y="398"/>
      <point x="190" y="435"/>
      <point x="190" y="494" type="curve" smooth="yes"/>
      <point x="190" y="569"/>
      <point x="255" y="622"/>
      <point x="349" y="622" type="curve" smooth="yes"/>
      <point x="428" y="622"/>
      <point x="476" y="585"/>
      <point x="476" y="526" type="curve" smooth="yes"/>
      <point x="476" y="451"/>
      <point x="411" y="398"/>
    </contour>
  </outline>
</glyph>
<glyph name="nine" format="2">
  <advance width="574"/>
  <unicode hex="0039"/>
  <outline>
    <contour>
      <point x="234" y="-14" type="curve" smooth="yes"/>
      <point x="434" y="-14"/>
      <point x="547" y="177"/>
      <point x="547" y="439" type="curve" smooth="yes"/>
      <point x="547" y="589"/>
      <point x="490" y="694"/>
      <point x="337" y="694" type="curve" smooth="yes"/>
      <point x="188" y="694"/>
      <point x="75" y="583"/>
      <point x="75" y="433" type="curve" smooth="yes"/>
      <point x="75" y="323"/>
      <point x="149" y="252"/>
      <point x="263" y="252" type="curve" smooth="yes"/>
      <point x="364" y="252"/>
      <point x="441" y="295"/>
      <point x="468" y="368" type="curve"/>
      <point x="460" y="368" type="line"/>
      <point x="447" y="218"/>
      <point x="390" y="60"/>
      <point x="248" y="60" type="curve" smooth="yes"/>
      <point x="182" y="60"/>
      <point x="134" y="101"/>
      <point x="123" y="164" type="curve"/>
      <point x="33" y="136" type="line"/>
      <point x="47" y="46"/>
      <point x="131" y="-14"/>
    </contour>
    <contour>
      <point x="289" y="324" type="curve" smooth="yes"/>
      <point x="212" y="324"/>
      <point x="166" y="370"/>
      <point x="166" y="444" type="curve" smooth="yes"/>
      <point x="166" y="548"/>
      <point x="235" y="622"/>
      <point x="331" y="622" type="curve" smooth="yes"/>
      <point x="408" y="622"/>
      <point x="454" y="577"/>
      <point x="454" y="502" type="curve" smooth="yes"/>
      <point x="454" y="398"/>
      <point x="386" y="324"/>
    </contour>
  </outline>
</glyph>
<glyph name="equal" format="2">
  <advance width="673"/>
  <unicode hex="003D"/>
  <outline>
    <contour>
      <point x="106" y="164" type="line"/>
      <point x="538" y="164" type="line"/>
      <point x="548" y="236" type="line"/>
      <point x="116" y="236" type="line"/>
    </contour>
    <contour>
      <point x="130" y="333" type="line"/>
      <point x="562" y="333" type="line"/>
      <point x="572" y="404" type="line"/>
      <point x="140" y="404" type="line"/>
    </contour>
  </outline>
</glyph>
<glyph name="greater" format="2">
  <advance width="601"/>
  <unicode hex="003E"/>
  <outline>
    <contour>
      <point x="94" y="24" type="line"/>
      <point x="590" y="250" type="line"/>
      <point x="599" y="316" type="line"/>
      <point x="167" y="544" type="line"/>
      <point x="155" y="460" type="line"/>
      <point x="512" y="280" type="line"/>
      <point x="513" y="288" type="line"/>
      <point x="106" y="112" type="line"/>
    </contour>
  </outline>
</glyph>
<glyph name="question" format="2">
  <advance width="440"/>
  <unicode hex="003F"/>
  <outline>
    <contour>
      <point x="168" y="212" type="line"/>
      <point x="248" y="212" type="line"/>
      <point x="249" y="220" type="line" smooth="yes"/>
      <point x="271" y="378"/>
      <point x="466" y="382"/>
      <point x="466" y="547" type="curve" smooth="yes"/>
      <point x="466" y="635"/>
      <point x="397" y="694"/>
      <point x="289" y="694" type="curve" smooth="yes"/>
      <point x="169" y="694"/>
      <point x="72" y="618"/>
      <point x="45" y="545" type="curve"/>
      <point x="128" y="516" type="line"/>
      <point x="145" y="571"/>
      <point x="202" y="619"/>
      <point x="274" y="619" type="curve" smooth="yes"/>
      <point x="337" y="619"/>
      <point x="372" y="584"/>
      <point x="372" y="534" type="curve" smooth="yes"/>
      <point x="372" y="405"/>
      <point x="210" y="408"/>
      <point x="174" y="240" type="curve" smooth="yes"/>
    </contour>
    <component base="period" xOffset="107"/>
  </outline>
</glyph>
<glyph name="at" format="2">
  <advance width="953"/>
  <unicode hex="0040"/>
  <outline>
    <contour>
      <point x="417" y="-186" type="curve" smooth="yes"/>
      <point x="521" y="-186"/>
      <point x="620" y="-158"/>
      <point x="688" y="-112" type="curve"/>
      <point x="657" y="-52" type="line"/>
      <point x="598" y="-89"/>
      <point x="514" y="-114"/>
      <point x="424" y="-114" type="curve" smooth="yes"/>
      <point x="241" y="-114"/>
      <point x="127" y="4"/>
      <point x="127" y="186" type="curve" smooth="yes"/>
      <point x="127" y="441"/>
      <point x="303" y="624"/>
      <point x="547" y="624" type="curve" smooth="yes"/>
      <point x="719" y="624"/>
      <point x="839" y="540"/>
      <point x="839" y="368" type="curve" smooth="yes"/>
      <point x="839" y="218"/>
      <point x="771" y="99"/>
      <point x="687" y="99" type="curve" smooth="yes"/>
      <point x="635" y="99"/>
      <point x="621" y="139"/>
      <point x="643" y="200" type="curve" smooth="yes"/>
      <point x="746" y="488" type="line"/>
      <point x="662" y="488" type="line"/>
      <point x="622" y="373" type="line"/>
      <point x="630" y="373" type="line"/>
      <point x="644" y="447"/>
      <point x="598" y="500"/>
      <point x="518" y="500" type="curve" smooth="yes"/>
      <point x="374" y="500"/>
      <point x="227" y="332"/>
      <point x="227" y="166" type="curve" smooth="yes"/>
      <point x="227" y="81"/>
      <point x="276" y="32"/>
      <point x="360" y="32" type="curve" smooth="yes"/>
      <point x="449" y="32"/>
      <point x="542" y="85"/>
      <point x="577" y="166" type="curve"/>
      <point x="569" y="166" type="line"/>
      <point x="544" y="88"/>
      <point x="580" y="32"/>
      <point x="662" y="32" type="curve" smooth="yes"/>
      <point x="806" y="32"/>
      <point x="920" y="184"/>
      <point x="920" y="375" type="curve" smooth="yes"/>
      <point x="920" y="569"/>
      <point x="780" y="694"/>
      <point x="555" y="694" type="curve" smooth="yes"/>
      <point x="262" y="694"/>
      <point x="43" y="472"/>
      <point x="43" y="173" type="curve" smooth="yes"/>
      <point x="43" y="-45"/>
      <point x="186" y="-186"/>
    </contour>
    <contour>
      <point x="399" y="99" type="curve" smooth="yes"/>
      <point x="348" y="99"/>
      <point x="319" y="130"/>
      <point x="319" y="185" type="curve" smooth="yes"/>
      <point x="319" y="305"/>
      <point x="423" y="432"/>
      <point x="520" y="432" type="curve" smooth="yes"/>
      <point x="571" y="432"/>
      <point x="600" y="400"/>
      <point x="600" y="346" type="curve" smooth="yes"/>
      <point x="600" y="225"/>
      <point x="498" y="99"/>
    </contour>
  </outline>
</glyph>
<glyph name="A" format="2">
  <advance width="606"/>
  <unicode hex="0041"/>
  <anchor x="550" y="8" name="ogonek"/>
  <anchor x="354" y="680" name="top"/>
  <outline>
    <contour>
      <point x="-30" y="0" type="line"/>
      <point x="69" y="0" type="line"/>
      <point x="351" y="600" type="line"/>
      <point x="339" y="600" type="line"/>
      <point x="460" y="0" type="line"/>
      <point x="558" y="0" type="line"/>
      <point x="404" y="680" type="line"/>
      <point x="307" y="680" type="line"/>
    </contour>
    <contour>
      <point x="141" y="190" type="line"/>
      <point x="428" y="190" type="line"/>
      <point x="438" y="262" type="line"/>
      <point x="151" y="262" type="line"/>
    </contour>
  </outline>
</glyph>
<glyph name="B" format="2">
  <advance width="620"/>
  <unicode hex="0042"/>
  <outline>
    <contour>
      <point x="48" y="0" type="line"/>
      <point x="331" y="0" type="line" smooth="yes"/>
      <point x="470" y="0"/>
      <point x="567" y="88"/>
      <point x="567" y="215" type="curve" smooth="yes"/>
      <point x="567" y="301"/>
      <point x="511" y="359"/>
      <point x="413" y="361" type="curve"/>
      <point x="412" y="353" type="line"/>
      <point x="516" y="361"/>
      <point x="587" y="439"/>
      <point x="587" y="537" type="curve" smooth="yes"/>
      <point x="587" y="625"/>
      <point x="519" y="680"/>
      <point x="410" y="680" type="curve" smooth="yes"/>
      <point x="141" y="680" type="line"/>
    </contour>
    <contour>
      <point x="151" y="67" type="line"/>
      <point x="225" y="614" type="line"/>
      <point x="217" y="606" type="line"/>
      <point x="386" y="606" type="line" smooth="yes"/>
      <point x="450" y="606"/>
      <point x="488" y="573"/>
      <point x="488" y="517" type="curve" smooth="yes"/>
      <point x="488" y="439"/>
      <point x="434" y="387"/>
      <point x="355" y="387" type="curve" smooth="yes"/>
      <point x="187" y="387" type="line"/>
      <point x="177" y="314" type="line"/>
      <point x="366" y="314" type="line" smooth="yes"/>
      <point x="430" y="314"/>
      <point x="467" y="278"/>
      <point x="467" y="217" type="curve" smooth="yes"/>
      <point x="467" y="131"/>
      <point x="412" y="74"/>
      <point x="329" y="74" type="curve" smooth="yes"/>
      <point x="144" y="74" type="line"/>
    </contour>
  </outline>
</glyph>
<glyph name="C" format="2">
  <advance width="654"/>
  <unicode hex="0043"/>
  <anchor x="317" y="0" name="bottom"/>
  <anchor x="398" y="680" name="top"/>
  <outline>
    <contour>
      <point x="311" y="-14" type="curve" smooth="yes"/>
      <point x="453" y="-14"/>
      <point x="576" y="80"/>
      <point x="620" y="218" type="curve"/>
      <point x="528" y="246" type="line"/>
      <point x="499" y="136"/>
      <point x="417" y="63"/>
      <point x="319" y="63" type="curve" smooth="yes"/>
      <point x="212" y="63"/>
      <point x="149" y="146"/>
      <point x="149" y="277" type="curve" smooth="yes"/>
      <point x="149" y="472"/>
      <point x="253" y="620"/>
      <point x="390" y="620" type="curve" smooth="yes"/>
      <point x="483" y="620"/>
      <point x="541" y="555"/>
      <point x="545" y="456" type="curve"/>
      <point x="640" y="480" type="line"/>
      <point x="627" y="610"/>
      <point x="534" y="694"/>
      <point x="397" y="694" type="curve" smooth="yes"/>
      <point x="200" y="694"/>
      <point x="49" y="510"/>
      <point x="49" y="273" type="curve" smooth="yes"/>
      <point x="49" y="100"/>
      <point x="152" y="-14"/>
    </contour>
  </outline>
</glyph>
<glyph name="D" format="2">
  <advance width="679"/>
  <unicode hex="0044"/>
  <anchor x="291" y="0" name="bottom"/>
  <anchor x="184" y="340" name="center"/>
  <anchor x="378" y="680" name="top"/>
  <outline>
    <contour>
      <point x="48" y="0" type="line"/>
      <point x="288" y="0" type="line" smooth="yes"/>
      <point x="500" y="0"/>
      <point x="651" y="171"/>
      <point x="651" y="408" type="curve" smooth="yes"/>
      <point x="651" y="576"/>
      <point x="547" y="680"/>
      <point x="379" y="680" type="curve" smooth="yes"/>
      <point x="141" y="680" type="line"/>
    </contour>
    <contour>
      <point x="153" y="67" type="line"/>
      <point x="227" y="615" type="line"/>
      <point x="216" y="607" type="line"/>
      <point x="358" y="607" type="line" smooth="yes"/>
      <point x="481" y="607"/>
      <point x="550" y="531"/>
      <point x="550" y="401" type="curve" smooth="yes"/>
      <point x="550" y="207"/>
      <point x="442" y="74"/>
      <point x="288" y="74" type="curve" smooth="yes"/>
      <point x="143" y="74" type="line"/>
    </contour>
  </outline>
</glyph>
<glyph name="E" format="2">
  <advance width="567"/>
  <unicode hex="0045"/>
  <anchor x="488" y="8" name="ogonek"/>
  <anchor x="366" y="680" name="top"/>
  <outline>
    <contour>
      <point x="48" y="0" type="line"/>
      <point x="495" y="0" type="line"/>
      <point x="505" y="74" type="line"/>
      <point x="144" y="74" type="line"/>
      <point x="152" y="66" type="line"/>
      <point x="227" y="614" type="line"/>
      <point x="217" y="606" type="line"/>
      <point x="572" y="606" type="line"/>
      <point x="583" y="680" type="line"/>
      <point x="141" y="680" type="line"/>
    </contour>
    <contour>
      <point x="177" y="314" type="line"/>
      <point x="499" y="314" type="line"/>
      <point x="509" y="387" type="line"/>
      <point x="187" y="387" type="line"/>
    </contour>
  </outline>
</glyph>
<glyph name="F" format="2">
  <advance width="532"/>
  <unicode hex="0046"/>
  <outline>
    <contour>
      <point x="48" y="0" type="line"/>
      <point x="142" y="0" type="line"/>
      <point x="226" y="613" type="line"/>
      <point x="217" y="606" type="line"/>
      <point x="560" y="606" type="line"/>
      <point x="571" y="680" type="line"/>
      <point x="141" y="680" type="line"/>
    </contour>
    <contour>
      <point x="177" y="312" type="line"/>
      <point x="466" y="312" type="line"/>
      <point x="476" y="386" type="line"/>
      <point x="187" y="386" type="line"/>
    </contour>
  </outline>
</glyph>
<glyph name="G" format="2">
  <advance width="681"/>
  <unicode hex="0047"/>
  <note>
Versione senza gamba?
</note>
  <anchor x="340" y="0" name="bottom"/>
  <anchor x="410" y="680" name="top"/>
  <outline>
    <contour>
      <point x="337" y="-14" type="curve" smooth="yes"/>
      <point x="436" y="-14"/>
      <point x="527" y="18"/>
      <point x="593" y="75" type="curve"/>
      <point x="631" y="350" type="line"/>
      <point x="342" y="350" type="line"/>
      <point x="331" y="276" type="line"/>
      <point x="534" y="276" type="line"/>
      <point x="510" y="108" type="line"/>
      <point x="472" y="79"/>
      <point x="402" y="62"/>
      <point x="347" y="62" type="curve" smooth="yes"/>
      <point x="216" y="62"/>
      <point x="151" y="146"/>
      <point x="151" y="287" type="curve" smooth="yes"/>
      <point x="151" y="476"/>
      <point x="258" y="620"/>
      <point x="402" y="620" type="curve" smooth="yes"/>
      <point x="488" y="620"/>
      <point x="552" y="569"/>
      <point x="555" y="472" type="curve"/>
      <point x="651" y="494" type="line"/>
      <point x="644" y="614"/>
      <point x="547" y="694"/>
      <point x="413" y="694" type="curve" smooth="yes"/>
      <point x="188" y="694"/>
      <point x="51" y="511"/>
      <point x="51" y="285" type="curve" smooth="yes"/>
      <point x="51" y="100"/>
      <point x="161" y="-14"/>
    </contour>
  </outline>
</glyph>
<glyph name="H" format="2">
  <advance width="684"/>
  <unicode hex="0048"/>
  <anchor x="305" y="0" name="bottom"/>
  <anchor x="376" y="510" name="center"/>
  <anchor x="399" y="680" name="top"/>
  <anchor x="83" y="680" name="topleft"/>
  <outline>
    <contour>
      <point x="470" y="0" type="line"/>
      <point x="564" y="0" type="line"/>
      <point x="657" y="680" type="line"/>
      <point x="563" y="680" type="line"/>
    </contour>
    <contour>
      <point x="48" y="0" type="line"/>
      <point x="142" y="0" type="line"/>
      <point x="235" y="680" type="line"/>
      <point x="141" y="680" type="line"/>
    </contour>
    <contour>
      <point x="178" y="320" type="line"/>
      <point x="521" y="320" type="line"/>
      <point x="532" y="396" type="line"/>
      <point x="189" y="396" type="line"/>
    </contour>
  </outline>
</glyph>
<glyph name="I" format="2">
  <advance width="262"/>
  <unicode hex="0049"/>
  <anchor x="135" y="8" name="ogonek"/>
  <anchor x="188" y="680" name="top"/>
  <outline>
    <contour>
      <point x="48" y="0" type="line"/>
      <point x="142" y="0" type="line"/>
      <point x="235" y="680" type="line"/>
      <point x="141" y="680" type="line"/>
    </contour>
  </outline>
</glyph>
<glyph name="J" format="2">
  <advance width="512"/>
  <unicode hex="004A"/>
  <anchor x="218" y="0" name="bottom"/>
  <anchor x="438" y="680" name="top"/>
  <outline>
    <contour>
      <point x="193" y="-14" type="curve" smooth="yes"/>
      <point x="307" y="-14"/>
      <point x="408" y="62"/>
      <point x="427" y="198" type="curve" smooth="yes"/>
      <point x="494" y="680" type="line"/>
      <point x="400" y="680" type="line"/>
      <point x="332" y="195" type="line" smooth="yes"/>
      <point x="321" y="115"/>
      <point x="272" y="64"/>
      <point x="206" y="64" type="curve" smooth="yes"/>
      <point x="127" y="64"/>
      <point x="92" y="126"/>
      <point x="110" y="232" type="curve"/>
      <point x="15" y="221" type="line"/>
      <point x="-8" y="77"/>
      <point x="61" y="-14"/>
    </contour>
  </outline>
</glyph>
<glyph name="K" format="2">
  <advance width="621"/>
  <unicode hex="004B"/>
  <anchor x="299" y="0" name="bottom"/>
  <anchor x="379" y="680" name="top"/>
  <outline>
    <contour>
      <point x="48" y="0" type="line"/>
      <point x="142" y="0" type="line"/>
      <point x="176" y="251" type="line"/>
      <point x="166" y="231" type="line"/>
      <point x="647" y="680" type="line"/>
      <point x="535" y="680" type="line"/>
      <point x="181" y="342" type="line"/>
      <point x="189" y="342" type="line"/>
      <point x="235" y="680" type="line"/>
      <point x="141" y="680" type="line"/>
    </contour>
    <contour>
      <point x="461" y="0" type="line"/>
      <point x="575" y="0" type="line"/>
      <point x="339" y="402" type="line"/>
      <point x="270" y="340" type="line"/>
    </contour>
  </outline>
</glyph>
<glyph name="L" format="2">
  <advance width="514"/>
  <unicode hex="004C"/>
  <anchor x="270" y="0" name="bottom"/>
  <anchor x="208" y="680" name="top"/>
  <anchor x="255" y="532" name="topright"/>
  <outline>
    <contour>
      <point x="48" y="0" type="line"/>
      <point x="142" y="0" type="line"/>
      <point x="235" y="680" type="line"/>
      <point x="141" y="680" type="line"/>
    </contour>
    <contour>
      <point x="134" y="0" type="line"/>
      <point x="466" y="0" type="line"/>
      <point x="477" y="80" type="line"/>
      <point x="145" y="80" type="line"/>
    </contour>
  </outline>
</glyph>
<glyph name="M" format="2">
  <advance width="827"/>
  <unicode hex="004D"/>
  <outline>
    <contour>
      <point x="48" y="0" type="line"/>
      <point x="131" y="0" type="line"/>
      <point x="211" y="588" type="line"/>
      <point x="204" y="588" type="line"/>
      <point x="333" y="0" type="line"/>
      <point x="418" y="0" type="line"/>
      <point x="706" y="590" type="line"/>
      <point x="695" y="590" type="line"/>
      <point x="615" y="0" type="line"/>
      <point x="707" y="0" type="line"/>
      <point x="800" y="680" type="line"/>
      <point x="671" y="680" type="line"/>
      <point x="387" y="94" type="line"/>
      <point x="398" y="94" type="line"/>
      <point x="269" y="680" type="line"/>
      <point x="141" y="680" type="line"/>
    </contour>
  </outline>
</glyph>
<glyph name="N" format="2">
  <advance width="691"/>
  <unicode hex="004E"/>
  <anchor x="320" y="0" name="bottom"/>
  <anchor x="404" y="680" name="top"/>
  <outline>
    <contour>
      <point x="48" y="0" type="line"/>
      <point x="134" y="0" type="line"/>
      <point x="214" y="590" type="line"/>
      <point x="208" y="590" type="line"/>
      <point x="460" y="0" type="line"/>
      <point x="571" y="0" type="line"/>
      <point x="665" y="680" type="line"/>
      <point x="579" y="680" type="line"/>
      <point x="501" y="106" type="line"/>
      <point x="507" y="106" type="line"/>
      <point x="260" y="680" type="line"/>
      <point x="141" y="680" type="line"/>
    </contour>
  </outline>
</glyph>
<glyph name="O" format="2">
  <advance width="700"/>
  <unicode hex="004F"/>
  <anchor x="362" y="335" name="center"/>
  <anchor x="408" y="680" name="top"/>
  <outline>
    <contour>
      <point x="312" y="-14" type="curve" smooth="yes"/>
      <point x="515" y="-14"/>
      <point x="672" y="171"/>
      <point x="672" y="407" type="curve" smooth="yes"/>
      <point x="672" y="580"/>
      <point x="571" y="694"/>
      <point x="410" y="694" type="curve" smooth="yes"/>
      <point x="206" y="694"/>
      <point x="49" y="510"/>
      <point x="49" y="273" type="curve" smooth="yes"/>
      <point x="49" y="100"/>
      <point x="150" y="-14"/>
    </contour>
    <contour>
      <point x="318" y="63" type="curve" smooth="yes"/>
      <point x="211" y="65"/>
      <point x="146" y="148"/>
      <point x="148" y="281" type="curve" smooth="yes"/>
      <point x="151" y="476"/>
      <point x="262" y="622"/>
      <point x="404" y="619" type="curve" smooth="yes"/>
      <point x="511" y="617"/>
      <point x="575" y="534"/>
      <point x="573" y="401" type="curve" smooth="yes"/>
      <point x="570" y="204"/>
      <point x="459" y="60"/>
    </contour>
  </outline>
</glyph>
<glyph name="P" format="2">
  <advance width="597"/>
  <unicode hex="0050"/>
  <outline>
    <contour>
      <point x="48" y="0" type="line"/>
      <point x="142" y="0" type="line"/>
      <point x="226" y="614" type="line"/>
      <point x="217" y="606" type="line"/>
      <point x="390" y="606" type="line" smooth="yes"/>
      <point x="458" y="606"/>
      <point x="499" y="569"/>
      <point x="499" y="506" type="curve" smooth="yes"/>
      <point x="499" y="415"/>
      <point x="440" y="354"/>
      <point x="352" y="354" type="curve" smooth="yes"/>
      <point x="183" y="354" type="line"/>
      <point x="172" y="280" type="line"/>
      <point x="331" y="280" type="line" smooth="yes"/>
      <point x="487" y="280"/>
      <point x="598" y="377"/>
      <point x="598" y="514" type="curve" smooth="yes"/>
      <point x="598" y="616"/>
      <point x="519" y="680"/>
      <point x="390" y="680" type="curve" smooth="yes"/>
      <point x="141" y="680" type="line"/>
    </contour>
  </outline>
</glyph>
<glyph name="Q" format="2">
  <advance width="702"/>
  <unicode hex="0051"/>
  <outline>
    <contour>
      <point x="507" y="-136" type="curve"/>
      <point x="609" y="-89" type="line"/>
      <point x="592" y="-23"/>
      <point x="538" y="26"/>
      <point x="471" y="38" type="curve"/>
      <point x="470" y="30" type="line"/>
      <point x="589" y="87"/>
      <point x="673" y="251"/>
      <point x="673" y="417" type="curve" smooth="yes"/>
      <point x="673" y="588"/>
      <point x="574" y="694"/>
      <point x="409" y="694" type="curve" smooth="yes"/>
      <point x="201" y="694"/>
      <point x="49" y="515"/>
      <point x="49" y="271" type="curve" smooth="yes"/>
      <point x="49" y="97"/>
      <point x="148" y="-12"/>
      <point x="312" y="-12" type="curve" smooth="yes"/>
      <point x="333" y="-12" type="line" smooth="yes"/>
      <point x="422" y="-12"/>
      <point x="488" y="-58"/>
    </contour>
    <contour>
      <point x="323" y="62" type="curve" smooth="yes"/>
      <point x="212" y="62"/>
      <point x="149" y="139"/>
      <point x="149" y="272" type="curve" smooth="yes"/>
      <point x="149" y="475"/>
      <point x="252" y="620"/>
      <point x="399" y="620" type="curve" smooth="yes"/>
      <point x="509" y="620"/>
      <point x="572" y="543"/>
      <point x="572" y="410" type="curve" smooth="yes"/>
      <point x="572" y="208"/>
      <point x="470" y="62"/>
    </contour>
  </outline>
</glyph>
<glyph name="R" format="2">
  <advance width="628"/>
  <unicode hex="0052"/>
  <anchor x="309" y="0" name="bottom"/>
  <anchor x="373" y="680" name="top"/>
  <outline>
    <contour>
      <point x="48" y="0" type="line"/>
      <point x="142" y="0" type="line"/>
      <point x="226" y="614" type="line"/>
      <point x="217" y="606" type="line"/>
      <point x="390" y="606" type="line" smooth="yes"/>
      <point x="457" y="606"/>
      <point x="496" y="572"/>
      <point x="496" y="514" type="curve" smooth="yes"/>
      <point x="496" y="433"/>
      <point x="439" y="378"/>
      <point x="356" y="378" type="curve" smooth="yes"/>
      <point x="186" y="378" type="line"/>
      <point x="176" y="304" type="line"/>
      <point x="301" y="304" type="line" smooth="yes"/>
      <point x="347" y="304"/>
      <point x="390" y="276"/>
      <point x="402" y="228" type="curve" smooth="yes"/>
      <point x="460" y="0" type="line"/>
      <point x="570" y="0" type="line"/>
      <point x="486" y="260" type="line" smooth="yes"/>
      <point x="473" y="301"/>
      <point x="443" y="324"/>
      <point x="411" y="324" type="curve"/>
      <point x="409" y="316" type="line"/>
      <point x="526" y="331"/>
      <point x="595" y="420"/>
      <point x="595" y="524" type="curve" smooth="yes"/>
      <point x="595" y="620"/>
      <point x="523" y="680"/>
      <point x="405" y="680" type="curve" smooth="yes"/>
      <point x="141" y="680" type="line"/>
    </contour>
  </outline>
</glyph>
<glyph name="S" format="2">
  <advance width="588"/>
  <unicode hex="0053"/>
  <note>
Falls to the right
</note>
  <anchor x="266" y="0" name="bottom"/>
  <anchor x="355" y="680" name="top"/>
  <outline>
    <contour>
      <point x="261" y="-14" type="curve" smooth="yes"/>
      <point x="423" y="-14"/>
      <point x="537" y="81"/>
      <point x="537" y="207" type="curve" smooth="yes"/>
      <point x="537" y="434"/>
      <point x="192" y="343"/>
      <point x="192" y="507" type="curve" smooth="yes"/>
      <point x="192" y="575"/>
      <point x="255" y="620"/>
      <point x="350" y="620" type="curve" smooth="yes"/>
      <point x="425" y="620"/>
      <point x="474" y="576"/>
      <point x="480" y="506" type="curve"/>
      <point x="574" y="529" type="line"/>
      <point x="564" y="637"/>
      <point x="476" y="694"/>
      <point x="360" y="694" type="curve" smooth="yes"/>
      <point x="204" y="694"/>
      <point x="100" y="605"/>
      <point x="100" y="486" type="curve" smooth="yes"/>
      <point x="100" y="265"/>
      <point x="443" y="359"/>
      <point x="443" y="187" type="curve" smooth="yes"/>
      <point x="443" y="110"/>
      <point x="372" y="62"/>
      <point x="270" y="62" type="curve" smooth="yes"/>
      <point x="186" y="62"/>
      <point x="132" y="108"/>
      <point x="125" y="194" type="curve"/>
      <point x="32" y="172" type="line"/>
      <point x="40" y="55"/>
      <point x="135" y="-14"/>
    </contour>
  </outline>
</glyph>
<glyph name="T" format="2">
  <advance width="546"/>
  <unicode hex="0054"/>
  <anchor x="240" y="0" name="bottom"/>
  <anchor x="289" y="372" name="center"/>
  <anchor x="331" y="680" name="top"/>
  <outline>
    <contour>
      <point x="192" y="0" type="line"/>
      <point x="286" y="0" type="line"/>
      <point x="369" y="614" type="line"/>
      <point x="275" y="614" type="line"/>
    </contour>
    <contour>
      <point x="59" y="606" type="line"/>
      <point x="583" y="606" type="line"/>
      <point x="593" y="680" type="line"/>
      <point x="69" y="680" type="line"/>
    </contour>
  </outline>
</glyph>
<glyph name="U" format="2">
  <advance width="673"/>
  <unicode hex="0055"/>
  <anchor x="401" y="11" name="ogonek"/>
  <anchor x="394" y="680" name="top"/>
  <outline>
    <contour>
      <point x="298" y="-14" type="curve" smooth="yes"/>
      <point x="454" y="-14"/>
      <point x="578" y="90"/>
      <point x="600" y="254" type="curve" smooth="yes"/>
      <point x="658" y="680" type="line"/>
      <point x="570" y="680" type="line"/>
      <point x="512" y="258" type="line" smooth="yes"/>
      <point x="496" y="142"/>
      <point x="413" y="66"/>
      <point x="312" y="66" type="curve" smooth="yes"/>
      <point x="201" y="66"/>
      <point x="148" y="132"/>
      <point x="164" y="247" type="curve" smooth="yes"/>
      <point x="223" y="680" type="line"/>
      <point x="129" y="680" type="line"/>
      <point x="71" y="254" type="line" smooth="yes"/>
      <point x="49" y="90"/>
      <point x="138" y="-14"/>
    </contour>
  </outline>
</glyph>
<glyph name="V" format="2">
  <advance width="598"/>
  <unicode hex="0056"/>
  <outline>
    <contour>
      <point x="216" y="0" type="line"/>
      <point x="316" y="0" type="line"/>
      <point x="643" y="680" type="line"/>
      <point x="547" y="680" type="line"/>
      <point x="275" y="100" type="line"/>
      <point x="283" y="100" type="line"/>
      <point x="166" y="680" type="line"/>
      <point x="71" y="680" type="line"/>
    </contour>
  </outline>
</glyph>
<glyph name="W" format="2">
  <advance width="860"/>
  <unicode hex="0057"/>
  <anchor x="395" y="0" name="bottom"/>
  <anchor x="487" y="680" name="top"/>
  <outline>
    <contour>
      <point x="161" y="0" type="line"/>
      <point x="265" y="0" type="line"/>
      <point x="484" y="596" type="line"/>
      <point x="477" y="596" type="line"/>
      <point x="532" y="0" type="line"/>
      <point x="640" y="0" type="line"/>
      <point x="907" y="680" type="line"/>
      <point x="814" y="680" type="line"/>
      <point x="597" y="86" type="line"/>
      <point x="607" y="86" type="line"/>
      <point x="547" y="680" type="line"/>
      <point x="436" y="680" type="line"/>
      <point x="222" y="86" type="line"/>
      <point x="233" y="86" type="line"/>
      <point x="165" y="680" type="line"/>
      <point x="71" y="680" type="line"/>
    </contour>
  </outline>
</glyph>
<glyph name="X" format="2">
  <advance width="578"/>
  <unicode hex="0058"/>
  <outline>
    <contour>
      <point x="429" y="0" type="line"/>
      <point x="534" y="0" type="line"/>
      <point x="181" y="680" type="line"/>
      <point x="78" y="680" type="line"/>
    </contour>
    <contour>
      <point x="-30" y="0" type="line"/>
      <point x="75" y="0" type="line"/>
      <point x="298" y="280" type="line"/>
      <point x="257" y="356" type="line"/>
    </contour>
    <contour>
      <point x="353" y="340" type="line"/>
      <point x="625" y="680" type="line"/>
      <point x="521" y="680" type="line"/>
      <point x="311" y="416" type="line"/>
    </contour>
  </outline>
</glyph>
<glyph name="Y" format="2">
  <advance width="567"/>
  <unicode hex="0059"/>
  <anchor x="346" y="680" name="top"/>
  <outline>
    <contour>
      <point x="207" y="0" type="line"/>
      <point x="300" y="0" type="line"/>
      <point x="338" y="270" type="line"/>
      <point x="616" y="680" type="line"/>
      <point x="517" y="680" type="line"/>
      <point x="302" y="350" type="line"/>
      <point x="309" y="350" type="line"/>
      <point x="169" y="680" type="line"/>
      <point x="67" y="680" type="line"/>
      <point x="244" y="272" type="line"/>
    </contour>
  </outline>
</glyph>
<glyph name="Z" format="2">
  <advance width="528"/>
  <unicode hex="005A"/>
  <anchor x="227" y="0" name="bottom"/>
  <anchor x="274" y="340" name="center"/>
  <anchor x="317" y="680" name="top"/>
  <outline>
    <contour>
      <point x="-12" y="0" type="line"/>
      <point x="466" y="0" type="line"/>
      <point x="476" y="74" type="line"/>
      <point x="101" y="74" type="line"/>
      <point x="104" y="66" type="line"/>
      <point x="549" y="622" type="line"/>
      <point x="558" y="680" type="line"/>
      <point x="91" y="680" type="line"/>
      <point x="80" y="606" type="line"/>
      <point x="444" y="606" type="line"/>
      <point x="441" y="614" type="line"/>
      <point x="-4" y="60" type="line"/>
    </contour>
  </outline>
</glyph>
<glyph name="bracketleft" format="2">
  <advance width="322"/>
  <unicode hex="005B"/>
  <outline>
    <contour>
      <point x="1" y="-218" type="line"/>
      <point x="221" y="-218" type="line"/>
      <point x="231" y="-148" type="line"/>
      <point x="89" y="-148" type="line"/>
      <point x="96" y="-156" type="line"/>
      <point x="205" y="620" type="line"/>
      <point x="196" y="612" type="line"/>
      <point x="337" y="612" type="line"/>
      <point x="346" y="680" type="line"/>
      <point x="127" y="680" type="line"/>
    </contour>
  </outline>
</glyph>
<glyph name="asciicircum" format="2">
  <advance width="622"/>
  <unicode hex="005E"/>
  <outline>
    <contour>
      <point x="81" y="280" type="line"/>
      <point x="165" y="280" type="line"/>
      <point x="368" y="632" type="line"/>
      <point x="360" y="632" type="line"/>
      <point x="465" y="280" type="line"/>
      <point x="545" y="280" type="line"/>
      <point x="410" y="712" type="line"/>
      <point x="342" y="712" type="line"/>
    </contour>
  </outline>
</glyph>
<glyph name="underscore" format="2">
  <advance width="486"/>
  <unicode hex="005F"/>
  <outline>
    <contour>
      <point x="-53" y="-112" type="line"/>
      <point x="433" y="-112" type="line"/>
      <point x="442" y="-48" type="line"/>
      <point x="-44" y="-48" type="line"/>
    </contour>
  </outline>
</glyph>
<glyph name="a" format="2">
  <advance width="532"/>
  <unicode hex="0061"/>
  <anchor x="431" y="8" name="ogonek"/>
  <anchor x="298" y="532" name="top"/>
  <outline>
    <contour>
      <point x="167" y="-12" type="curve" smooth="yes"/>
      <point x="264" y="-12"/>
      <point x="345" y="47"/>
      <point x="369" y="148" type="curve"/>
      <point x="362" y="148" type="line"/>
      <point x="350" y="73"/>
      <point x="351" y="27"/>
      <point x="355" y="0" type="curve"/>
      <point x="438" y="0" type="line"/>
      <point x="435" y="40"/>
      <point x="436" y="74"/>
      <point x="443" y="125" type="curve" smooth="yes"/>
      <point x="473" y="358" type="line" smooth="yes"/>
      <point x="490" y="487"/>
      <point x="396" y="545"/>
      <point x="294" y="545" type="curve" smooth="yes"/>
      <point x="201" y="545"/>
      <point x="99" y="496"/>
      <point x="65" y="406" type="curve"/>
      <point x="141" y="372" type="line"/>
      <point x="168" y="440"/>
      <point x="231" y="475"/>
      <point x="287" y="475" type="curve" smooth="yes"/>
      <point x="346" y="475"/>
      <point x="397" y="435"/>
      <point x="387" y="353" type="curve" smooth="yes"/>
      <point x="377" y="274" type="line" smooth="yes"/>
      <point x="360" y="140"/>
      <point x="282" y="60"/>
      <point x="190" y="60" type="curve" smooth="yes"/>
      <point x="142" y="60"/>
      <point x="114" y="87"/>
      <point x="114" y="131" type="curve" smooth="yes"/>
      <point x="114" y="195"/>
      <point x="163" y="240"/>
      <point x="260" y="254" type="curve" smooth="yes"/>
      <point x="383" y="272" type="line"/>
      <point x="392" y="334" type="line"/>
      <point x="225" y="310" type="line" smooth="yes"/>
      <point x="101" y="292"/>
      <point x="27" y="216"/>
      <point x="27" y="116" type="curve" smooth="yes"/>
      <point x="27" y="40"/>
      <point x="82" y="-12"/>
    </contour>
  </outline>
</glyph>
<glyph name="c" format="2">
  <advance width="516"/>
  <unicode hex="0063"/>
  <anchor x="233" y="0" name="bottom"/>
  <anchor x="306" y="532" name="top"/>
  <outline>
    <contour>
      <point x="237" y="-12" type="curve" smooth="yes"/>
      <point x="351" y="-12"/>
      <point x="450" y="63"/>
      <point x="480" y="172" type="curve"/>
      <point x="398" y="190" type="line"/>
      <point x="376" y="111"/>
      <point x="315" y="60"/>
      <point x="245" y="60" type="curve" smooth="yes"/>
      <point x="168" y="60"/>
      <point x="120" y="121"/>
      <point x="120" y="219" type="curve" smooth="yes"/>
      <point x="120" y="365"/>
      <point x="198" y="474"/>
      <point x="299" y="474" type="curve" smooth="yes"/>
      <point x="370" y="474"/>
      <point x="412" y="423"/>
      <point x="414" y="352" type="curve"/>
      <point x="501" y="376" type="line"/>
      <point x="495" y="476"/>
      <point x="419" y="544"/>
      <point x="309" y="544" type="curve" smooth="yes"/>
      <point x="152" y="544"/>
      <point x="30" y="399"/>
      <point x="30" y="214" type="curve" smooth="yes"/>
      <point x="30" y="79"/>
      <point x="110" y="-12"/>
    </contour>
  </outline>
</glyph>
<glyph name="d" format="2">
  <advance width="583"/>
  <unicode hex="0064"/>
  <anchor x="255" y="0" name="bottom"/>
  <anchor x="475" y="570" name="center"/>
  <anchor x="326" y="532" name="top"/>
  <anchor x="548" y="532" name="topright"/>
  <outline>
    <contour>
      <point x="220" y="-12" type="curve" smooth="yes"/>
      <point x="310" y="-12"/>
      <point x="390" y="41"/>
      <point x="416" y="123" type="curve"/>
      <point x="409" y="123" type="line"/>
      <point x="393" y="0" type="line"/>
      <point x="477" y="0" type="line"/>
      <point x="574" y="712" type="line"/>
      <point x="488" y="712" type="line"/>
      <point x="448" y="420" type="line"/>
      <point x="456" y="420" type="line"/>
      <point x="442" y="496"/>
      <point x="381" y="544"/>
      <point x="294" y="544" type="curve" smooth="yes"/>
      <point x="146" y="544"/>
      <point x="30" y="398"/>
      <point x="30" y="211" type="curve" smooth="yes"/>
      <point x="30" y="76"/>
      <point x="102" y="-12"/>
    </contour>
    <contour>
      <point x="247" y="62" type="curve" smooth="yes"/>
      <point x="166" y="62"/>
      <point x="120" y="124"/>
      <point x="120" y="220" type="curve" smooth="yes"/>
      <point x="120" y="364"/>
      <point x="199" y="472"/>
      <point x="303" y="472" type="curve" smooth="yes"/>
      <point x="383" y="472"/>
      <point x="430" y="412"/>
      <point x="430" y="315" type="curve" smooth="yes"/>
      <point x="430" y="171"/>
      <point x="351" y="62"/>
    </contour>
  </outline>
</glyph>
<glyph name="e" format="2">
  <advance width="533"/>
  <unicode hex="0065"/>
  <anchor x="318" y="11" name="ogonek"/>
  <anchor x="305" y="532" name="top"/>
  <outline>
    <contour>
      <point x="246" y="-12" type="curve" smooth="yes"/>
      <point x="355" y="-12"/>
      <point x="443" y="50"/>
      <point x="481" y="154" type="curve"/>
      <point x="403" y="176" type="line"/>
      <point x="378" y="106"/>
      <point x="323" y="60"/>
      <point x="252" y="60" type="curve" smooth="yes"/>
      <point x="170" y="60"/>
      <point x="120" y="122"/>
      <point x="120" y="222" type="curve" smooth="yes"/>
      <point x="120" y="366"/>
      <point x="195" y="474"/>
      <point x="299" y="474" type="curve" smooth="yes"/>
      <point x="379" y="474"/>
      <point x="428" y="409"/>
      <point x="405" y="308" type="curve"/>
      <point x="425" y="316" type="line"/>
      <point x="122" y="316" type="line"/>
      <point x="113" y="248" type="line"/>
      <point x="494" y="248" type="line"/>
      <point x="534" y="428"/>
      <point x="449" y="544"/>
      <point x="305" y="544" type="curve" smooth="yes"/>
      <point x="147" y="544"/>
      <point x="30" y="398"/>
      <point x="30" y="216" type="curve" smooth="yes"/>
      <point x="30" y="79"/>
      <point x="118" y="-12"/>
    </contour>
  </outline>
</glyph>
<glyph name="f" format="2">
  <advance width="284"/>
  <unicode hex="0066"/>
  <note>
Controlla curva
</note>
  <outline>
    <contour>
      <point x="46" y="0" type="line"/>
      <point x="132" y="0" type="line"/>
      <point x="211" y="584" type="line" smooth="yes"/>
      <point x="219" y="643"/>
      <point x="264" y="666"/>
      <point x="332" y="644" type="curve"/>
      <point x="354" y="712" type="line"/>
      <point x="226" y="750"/>
      <point x="140" y="701"/>
      <point x="124" y="582" type="curve" smooth="yes"/>
    </contour>
    <contour>
      <point x="37" y="466" type="line"/>
      <point x="292" y="466" type="line"/>
      <point x="301" y="532" type="line"/>
      <point x="46" y="532" type="line"/>
    </contour>
  </outline>
</glyph>
<glyph name="g" format="2">
  <advance width="574"/>
  <unicode hex="0067"/>
  <anchor x="315" y="532" name="top"/>
  <outline>
    <contour>
      <point x="208" y="-230" type="curve" smooth="yes"/>
      <point x="347" y="-230"/>
      <point x="452" y="-151"/>
      <point x="470" y="-20" type="curve" smooth="yes"/>
      <point x="545" y="532" type="line"/>
      <point x="461" y="532" type="line"/>
      <point x="446" y="418" type="line"/>
      <point x="453" y="418" type="line"/>
      <point x="442" y="494"/>
      <point x="377" y="544"/>
      <point x="293" y="544" type="curve" smooth="yes"/>
      <point x="148" y="544"/>
      <point x="32" y="398"/>
      <point x="32" y="218" type="curve" smooth="yes"/>
      <point x="32" y="87"/>
      <point x="104" y="0"/>
      <point x="219" y="0" type="curve" smooth="yes"/>
      <point x="308" y="0"/>
      <point x="388" y="55"/>
      <point x="413" y="136" type="curve"/>
      <point x="405" y="136" type="line"/>
      <point x="382" y="-30" type="line" smooth="yes"/>
      <point x="371" y="-112"/>
      <point x="311" y="-158"/>
      <point x="218" y="-158" type="curve" smooth="yes"/>
      <point x="139" y="-158"/>
      <point x="85" y="-123"/>
      <point x="73" y="-61" type="curve"/>
      <point x="-7" y="-89" type="line"/>
      <point x="10" y="-176"/>
      <point x="93" y="-230"/>
    </contour>
    <contour>
      <point x="246" y="71" type="curve" smooth="yes"/>
      <point x="168" y="71"/>
      <point x="122" y="132"/>
      <point x="122" y="226" type="curve" smooth="yes"/>
      <point x="122" y="367"/>
      <point x="200" y="472"/>
      <point x="302" y="472" type="curve" smooth="yes"/>
      <point x="380" y="472"/>
      <point x="427" y="412"/>
      <point x="427" y="317" type="curve" smooth="yes"/>
      <point x="427" y="178"/>
      <point x="350" y="71"/>
    </contour>
  </outline>
</glyph>
<glyph name="h" format="2">
  <advance width="564"/>
  <unicode hex="0068"/>
  <anchor x="246" y="0" name="bottom"/>
  <anchor x="187" y="570" name="center"/>
  <anchor x="343" y="712" name="top"/>
  <outline>
    <contour>
      <point x="35" y="0" type="line"/>
      <point x="121" y="0" type="line"/>
      <point x="154" y="240" type="line" smooth="yes"/>
      <point x="174" y="388"/>
      <point x="239" y="470"/>
      <point x="329" y="470" type="curve" smooth="yes"/>
      <point x="394" y="470"/>
      <point x="438" y="424"/>
      <point x="425" y="328" type="curve" smooth="yes"/>
      <point x="380" y="0" type="line"/>
      <point x="466" y="0" type="line"/>
      <point x="515" y="356" type="line" smooth="yes"/>
      <point x="530" y="468"/>
      <point x="467" y="544"/>
      <point x="366" y="544" type="curve" smooth="yes"/>
      <point x="275" y="544"/>
      <point x="192" y="484"/>
      <point x="167" y="388" type="curve"/>
      <point x="174" y="388" type="line"/>
      <point x="218" y="712" type="line"/>
      <point x="132" y="712" type="line"/>
    </contour>
  </outline>
</glyph>
<glyph name="k" format="2">
  <advance width="510"/>
  <unicode hex="006B"/>
  <anchor x="252" y="0" name="bottom"/>
  <outline>
    <contour>
      <point x="35" y="0" type="line"/>
      <point x="121" y="0" type="line"/>
      <point x="148" y="196" type="line"/>
      <point x="137" y="180" type="line"/>
      <point x="529" y="532" type="line"/>
      <point x="418" y="532" type="line"/>
      <point x="141" y="280" type="line"/>
      <point x="159" y="280" type="line"/>
      <point x="218" y="712" type="line"/>
      <point x="132" y="712" type="line"/>
    </contour>
    <contour>
      <point x="372" y="0" type="line"/>
      <point x="474" y="0" type="line"/>
      <point x="297" y="332" type="line"/>
      <point x="233" y="276" type="line"/>
    </contour>
  </outline>
</glyph>
<glyph name="l" format="2">
  <advance width="227"/>
  <unicode hex="006C"/>
  <anchor x="78" y="0" name="bottom"/>
  <anchor x="175" y="692" name="top"/>
  <anchor x="193" y="532" name="topright"/>
  <outline>
    <contour>
      <point x="35" y="0" type="line"/>
      <point x="121" y="0" type="line"/>
      <point x="218" y="712" type="line"/>
      <point x="132" y="712" type="line"/>
    </contour>
  </outline>
</glyph>
<glyph name="n" format="2">
  <advance width="558"/>
  <unicode hex="006E"/>
  <anchor x="251" y="0" name="bottom"/>
  <anchor x="321" y="532" name="top"/>
  <outline>
    <contour>
      <point x="29" y="0" type="line"/>
      <point x="115" y="0" type="line"/>
      <point x="148" y="220" type="line" smooth="yes"/>
      <point x="170" y="377"/>
      <point x="233" y="470"/>
      <point x="323" y="470" type="curve" smooth="yes"/>
      <point x="396" y="470"/>
      <point x="431" y="415"/>
      <point x="419" y="328" type="curve" smooth="yes"/>
      <point x="374" y="0" type="line"/>
      <point x="460" y="0" type="line"/>
      <point x="509" y="356" type="line" smooth="yes"/>
      <point x="524" y="468"/>
      <point x="461" y="544"/>
      <point x="360" y="544" type="curve" smooth="yes"/>
      <point x="269" y="544"/>
      <point x="184" y="484"/>
      <point x="159" y="388" type="curve"/>
      <point x="167" y="388" type="line"/>
      <point x="186" y="532" type="line"/>
      <point x="101" y="532" type="line"/>
    </contour>
  </outline>
</glyph>
<glyph name="o" format="2">
  <advance width="550"/>
  <unicode hex="006F"/>
  <anchor x="275" y="264" name="center"/>
  <anchor x="310" y="532" name="top"/>
  <outline>
    <contour>
      <point x="238" y="-12" type="curve" smooth="yes"/>
      <point x="396" y="-12"/>
      <point x="520" y="132"/>
      <point x="520" y="318" type="curve" smooth="yes"/>
      <point x="520" y="453"/>
      <point x="440" y="544"/>
      <point x="313" y="544" type="curve" smooth="yes"/>
      <point x="151" y="544"/>
      <point x="30" y="397"/>
      <point x="30" y="214" type="curve" smooth="yes"/>
      <point x="30" y="78"/>
      <point x="111" y="-12"/>
    </contour>
    <contour>
      <point x="246" y="61" type="curve" smooth="yes"/>
      <point x="167" y="61"/>
      <point x="119" y="120"/>
      <point x="119" y="215" type="curve" smooth="yes"/>
      <point x="119" y="363"/>
      <point x="200" y="473"/>
      <point x="304" y="473" type="curve" smooth="yes"/>
      <point x="384" y="473"/>
      <point x="431" y="414"/>
      <point x="431" y="319" type="curve" smooth="yes"/>
      <point x="431" y="171"/>
      <point x="350" y="61"/>
    </contour>
  </outline>
</glyph>
<glyph name="p" format="2">
  <advance width="578"/>
  <unicode hex="0070"/>
  <outline>
    <contour>
      <point x="2" y="-218" type="line"/>
      <point x="88" y="-218" type="line"/>
      <point x="133" y="112" type="line"/>
      <point x="125" y="112" type="line"/>
      <point x="138" y="36"/>
      <point x="201" y="-12"/>
      <point x="286" y="-12" type="curve" smooth="yes"/>
      <point x="433" y="-12"/>
      <point x="549" y="136"/>
      <point x="549" y="323" type="curve" smooth="yes"/>
      <point x="549" y="456"/>
      <point x="478" y="544"/>
      <point x="366" y="544" type="curve" smooth="yes"/>
      <point x="278" y="544"/>
      <point x="196" y="492"/>
      <point x="164" y="412" type="curve"/>
      <point x="173" y="412" type="line"/>
      <point x="188" y="532" type="line"/>
      <point x="104" y="532" type="line"/>
    </contour>
    <contour>
      <point x="277" y="60" type="curve" smooth="yes"/>
      <point x="197" y="60"/>
      <point x="150" y="121"/>
      <point x="150" y="218" type="curve" smooth="yes"/>
      <point x="150" y="363"/>
      <point x="229" y="472"/>
      <point x="333" y="472" type="curve" smooth="yes"/>
      <point x="412" y="472"/>
      <point x="459" y="411"/>
      <point x="459" y="313" type="curve" smooth="yes"/>
      <point x="459" y="170"/>
      <point x="382" y="60"/>
    </contour>
  </outline>
</glyph>
<glyph name="q" format="2">
  <advance width="581"/>
  <unicode hex="0071"/>
  <outline>
    <contour>
      <point x="360" y="-218" type="line"/>
      <point x="446" y="-218" type="line"/>
      <point x="547" y="532" type="line"/>
      <point x="463" y="532" type="line"/>
      <point x="449" y="420" type="line"/>
      <point x="457" y="420" type="line"/>
      <point x="443" y="496"/>
      <point x="382" y="544"/>
      <point x="294" y="544" type="curve" smooth="yes"/>
      <point x="146" y="544"/>
      <point x="30" y="398"/>
      <point x="30" y="211" type="curve" smooth="yes"/>
      <point x="30" y="76"/>
      <point x="102" y="-12"/>
      <point x="220" y="-12" type="curve" smooth="yes"/>
      <point x="309" y="-12"/>
      <point x="387" y="41"/>
      <point x="414" y="123" type="curve"/>
      <point x="406" y="123" type="line"/>
    </contour>
    <contour>
      <point x="247" y="62" type="curve" smooth="yes"/>
      <point x="166" y="62"/>
      <point x="120" y="124"/>
      <point x="120" y="220" type="curve" smooth="yes"/>
      <point x="120" y="364"/>
      <point x="198" y="472"/>
      <point x="303" y="472" type="curve" smooth="yes"/>
      <point x="382" y="472"/>
      <point x="429" y="411"/>
      <point x="429" y="314" type="curve" smooth="yes"/>
      <point x="429" y="170"/>
      <point x="350" y="62"/>
    </contour>
  </outline>
</glyph>
<glyph name="r" format="2">
  <advance width="360"/>
  <unicode hex="0072"/>
  <anchor x="28" y="0" name="bottom"/>
  <anchor x="274" y="532" name="top"/>
  <outline>
    <contour>
      <point x="27" y="0" type="line"/>
      <point x="113" y="0" type="line"/>
      <point x="153" y="285" type="line" smooth="yes"/>
      <point x="169" y="400"/>
      <point x="225" y="464"/>
      <point x="306" y="464" type="curve" smooth="yes"/>
      <point x="320" y="464"/>
      <point x="335" y="462"/>
      <point x="351" y="458" type="curve"/>
      <point x="363" y="538" type="line"/>
      <point x="348" y="542"/>
      <point x="334" y="544"/>
      <point x="319" y="544" type="curve" smooth="yes"/>
      <point x="236" y="544"/>
      <point x="174" y="485"/>
      <point x="156" y="378" type="curve"/>
      <point x="164" y="378" type="line"/>
      <point x="186" y="532" type="line"/>
      <point x="102" y="532" type="line"/>
    </contour>
  </outline>
</glyph>
<glyph name="s" format="2">
  <advance width="467"/>
  <unicode hex="0073"/>
  <note>
Falls to the left
</note>
  <anchor x="200" y="0" name="bottom"/>
  <anchor x="264" y="532" name="top"/>
  <outline>
    <contour>
      <point x="208" y="-12" type="curve" smooth="yes"/>
      <point x="336" y="-12"/>
      <point x="423" y="61"/>
      <point x="423" y="167" type="curve" smooth="yes"/>
      <point x="423" y="347"/>
      <point x="142" y="273"/>
      <point x="142" y="387" type="curve" smooth="yes"/>
      <point x="142" y="441"/>
      <point x="188" y="476"/>
      <point x="257" y="476" type="curve" smooth="yes"/>
      <point x="315" y="476"/>
      <point x="356" y="444"/>
      <point x="361" y="393" type="curve"/>
      <point x="442" y="412" type="line"/>
      <point x="428" y="508"/>
      <point x="345" y="544"/>
      <point x="263" y="544" type="curve" smooth="yes"/>
      <point x="143" y="544"/>
      <point x="54" y="469"/>
      <point x="54" y="370" type="curve" smooth="yes"/>
      <point x="54" y="203"/>
      <point x="335" y="269"/>
      <point x="335" y="151" type="curve" smooth="yes"/>
      <point x="335" y="95"/>
      <point x="284" y="58"/>
      <point x="212" y="58" type="curve" smooth="yes"/>
      <point x="144" y="58"/>
      <point x="97" y="96"/>
      <point x="95" y="159" type="curve"/>
      <point x="9" y="147" type="line"/>
      <point x="18" y="50"/>
      <point x="94" y="-12"/>
    </contour>
  </outline>
</glyph>
<glyph name="t" format="2">
  <advance width="341"/>
  <unicode hex="0074"/>
  <note>
Controlla curva
</note>
  <anchor x="152" y="0" name="bottom"/>
  <anchor x="155" y="340" name="center"/>
  <anchor x="215" y="544" name="topright"/>
  <outline>
    <contour>
      <point x="274" y="0" type="curve"/>
      <point x="273" y="68" type="line"/>
      <point x="195" y="42"/>
      <point x="154" y="60"/>
      <point x="161" y="116" type="curve" smooth="yes"/>
      <point x="239" y="688" type="line"/>
      <point x="148" y="636" type="line"/>
      <point x="132" y="522" type="line"/>
      <point x="130" y="522" type="line"/>
      <point x="74" y="108" type="line" smooth="yes"/>
      <point x="61" y="7"/>
      <point x="138" y="-35"/>
    </contour>
    <contour>
      <point x="43" y="466" type="line"/>
      <point x="323" y="466" type="line"/>
      <point x="332" y="532" type="line"/>
      <point x="52" y="532" type="line"/>
    </contour>
  </outline>
</glyph>
<glyph name="u" format="2">
  <advance width="567"/>
  <unicode hex="0075"/>
  <anchor x="457" y="8" name="ogonek"/>
  <anchor x="312" y="532" name="top"/>
  <outline>
    <contour>
      <point x="203" y="-12" type="curve" smooth="yes"/>
      <point x="300" y="-12"/>
      <point x="374" y="46"/>
      <point x="394" y="136" type="curve"/>
      <point x="386" y="136" type="line"/>
      <point x="377" y="64"/>
      <point x="377" y="36"/>
      <point x="382" y="0" type="curve"/>
      <point x="466" y="0" type="line"/>
      <point x="461" y="45"/>
      <point x="463" y="80"/>
      <point x="469" y="125" type="curve" smooth="yes"/>
      <point x="525" y="532" type="line"/>
      <point x="439" y="532" type="line"/>
      <point x="403" y="272" type="line" smooth="yes"/>
      <point x="385" y="140"/>
      <point x="321" y="62"/>
      <point x="237" y="62" type="curve" smooth="yes"/>
      <point x="164" y="62"/>
      <point x="127" y="118"/>
      <point x="140" y="212" type="curve" smooth="yes"/>
      <point x="184" y="532" type="line"/>
      <point x="98" y="532" type="line"/>
      <point x="50" y="186" type="line" smooth="yes"/>
      <point x="33" y="65"/>
      <point x="95" y="-12"/>
    </contour>
  </outline>
</glyph>
<glyph name="v" format="2">
  <advance width="465"/>
  <unicode hex="0076"/>
  <outline>
    <contour>
      <point x="152" y="0" type="line"/>
      <point x="249" y="0" type="line"/>
      <point x="501" y="532" type="line"/>
      <point x="415" y="532" type="line"/>
      <point x="208" y="80" type="line"/>
      <point x="217" y="80" type="line"/>
      <point x="127" y="532" type="line"/>
      <point x="38" y="532" type="line"/>
    </contour>
  </outline>
</glyph>
<glyph name="w" format="2">
  <advance width="690"/>
  <unicode hex="0077"/>
  <anchor x="310" y="0" name="bottom"/>
  <anchor x="384" y="532" name="top"/>
  <outline>
    <contour>
      <point x="116" y="0" type="line"/>
      <point x="213" y="0" type="line"/>
      <point x="372" y="432" type="line"/>
      <point x="365" y="432" type="line"/>
      <point x="414" y="0" type="line"/>
      <point x="510" y="0" type="line"/>
      <point x="720" y="532" type="line"/>
      <point x="635" y="532" type="line"/>
      <point x="471" y="82" type="line"/>
      <point x="479" y="82" type="line"/>
      <point x="427" y="532" type="line"/>
      <point x="342" y="532" type="line"/>
      <point x="178" y="80" type="line"/>
      <point x="184" y="80" type="line"/>
      <point x="131" y="532" type="line"/>
      <point x="44" y="532" type="line"/>
    </contour>
  </outline>
</glyph>
<glyph name="y" format="2">
  <advance width="475"/>
  <unicode hex="0079"/>
  <anchor x="274" y="532" name="top"/>
  <outline>
    <contour>
      <point x="-66" y="-208" type="line"/>
      <point x="-31" y="-222"/>
      <point x="2" y="-228"/>
      <point x="31" y="-228" type="curve" smooth="yes"/>
      <point x="98" y="-228"/>
      <point x="148" y="-196"/>
      <point x="177" y="-137" type="curve" smooth="yes"/>
      <point x="511" y="532" type="line"/>
      <point x="425" y="532" type="line"/>
      <point x="212" y="96" type="line"/>
      <point x="220" y="96" type="line"/>
      <point x="128" y="532" type="line"/>
      <point x="36" y="532" type="line"/>
      <point x="161" y="-12" type="line"/>
      <point x="163" y="8" type="line"/>
      <point x="111" y="-98" type="line" smooth="yes"/>
      <point x="93" y="-134"/>
      <point x="63" y="-153"/>
      <point x="26" y="-153" type="curve" smooth="yes"/>
      <point x="4" y="-153"/>
      <point x="-20" y="-146"/>
      <point x="-45" y="-134" type="curve"/>
    </contour>
  </outline>
</glyph>
<glyph name="z" format="2">
  <advance width="431"/>
  <unicode hex="007A"/>
  <anchor x="178" y="0" name="bottom"/>
  <anchor x="213" y="266" name="center"/>
  <anchor x="251" y="532" name="top"/>
  <outline>
    <contour>
      <point x="-21" y="0" type="line"/>
      <point x="375" y="0" type="line"/>
      <point x="385" y="68" type="line"/>
      <point x="90" y="68" type="line"/>
      <point x="92" y="60" type="line"/>
      <point x="433" y="470" type="line"/>
      <point x="442" y="532" type="line"/>
      <point x="56" y="532" type="line"/>
      <point x="45" y="464" type="line"/>
      <point x="335" y="464" type="line"/>
      <point x="332" y="472" type="line"/>
      <point x="-13" y="60" type="line"/>
    </contour>
  </outline>
</glyph>
<glyph name="braceleft" format="2">
  <advance width="356"/>
  <unicode hex="007B"/>
  <outline>
    <contour>
      <point x="257" y="-220" type="curve"/>
      <point x="255" y="-164" type="line"/>
      <point x="182" y="-176"/>
      <point x="151" y="-152"/>
      <point x="161" y="-96" type="curve" smooth="yes"/>
      <point x="204" y="144" type="line" smooth="yes"/>
      <point x="214" y="198"/>
      <point x="188" y="233"/>
      <point x="134" y="236" type="curve"/>
      <point x="133" y="228" type="line"/>
      <point x="184" y="232"/>
      <point x="223" y="262"/>
      <point x="229" y="320" type="curve" smooth="yes"/>
      <point x="253" y="562" type="line" smooth="yes"/>
      <point x="259" y="618"/>
      <point x="296" y="640"/>
      <point x="366" y="628" type="curve"/>
      <point x="381" y="684" type="line"/>
      <point x="254" y="716"/>
      <point x="174" y="671"/>
      <point x="169" y="562" type="curve" smooth="yes"/>
      <point x="159" y="336" type="line" smooth="yes"/>
      <point x="157" y="291"/>
      <point x="134" y="267"/>
      <point x="96" y="267" type="curve" smooth="yes"/>
      <point x="54" y="267" type="line"/>
      <point x="44" y="198" type="line"/>
      <point x="86" y="198" type="line" smooth="yes"/>
      <point x="126" y="198"/>
      <point x="140" y="173"/>
      <point x="130" y="130" type="curve" smooth="yes"/>
      <point x="77" y="-96" type="line" smooth="yes"/>
      <point x="51" y="-206"/>
      <point x="119" y="-252"/>
    </contour>
  </outline>
</glyph>
<glyph name="bar" format="2">
  <advance width="244"/>
  <unicode hex="007C"/>
  <outline>
    <contour>
      <point x="13" y="-230" type="line"/>
      <point x="91" y="-230" type="line"/>
      <point x="221" y="694" type="line"/>
      <point x="143" y="694" type="line"/>
    </contour>
  </outline>
</glyph>
<glyph name="asciitilde" format="2">
  <advance width="626"/>
  <unicode hex="007E"/>
  <outline>
    <contour>
      <point x="402" y="218" type="curve" smooth="yes"/>
      <point x="473" y="218"/>
      <point x="533" y="266"/>
      <point x="556" y="341" type="curve"/>
      <point x="491" y="361" type="line"/>
      <point x="479" y="321"/>
      <point x="448" y="294"/>
      <point x="409" y="294" type="curve" smooth="yes"/>
      <point x="349" y="294"/>
      <point x="314" y="360"/>
      <point x="230" y="360" type="curve" smooth="yes"/>
      <point x="159" y="360"/>
      <point x="100" y="312"/>
      <point x="77" y="236" type="curve"/>
      <point x="142" y="216" type="line"/>
      <point x="154" y="258"/>
      <point x="186" y="284"/>
      <point x="224" y="284" type="curve" smooth="yes"/>
      <point x="284" y="284"/>
      <point x="318" y="218"/>
    </contour>
  </outline>
</glyph>
<glyph name="cent" format="2">
  <advance width="568"/>
  <unicode hex="00A2"/>
  <outline>
    <component base="c" xOffset="25" yOffset="24" identifier="2915EF7F"/>
    <contour>
      <point x="205" y="-108" type="line"/>
      <point x="277" y="-108" type="line"/>
      <point x="387" y="668" type="line"/>
      <point x="315" y="668" type="line"/>
    </contour>
  </outline>
</glyph>
<glyph name="sterling" format="2">
  <advance width="621"/>
  <unicode hex="00A3"/>
  <outline>
    <contour>
      <point x="57" y="0" type="line"/>
      <point x="519" y="0" type="line"/>
      <point x="530" y="80" type="line"/>
      <point x="154" y="80" type="line"/>
      <point x="157" y="72" type="line"/>
      <point x="234" y="135"/>
      <point x="276" y="223"/>
      <point x="276" y="316" type="curve" smooth="yes"/>
      <point x="276" y="388"/>
      <point x="252" y="437"/>
      <point x="252" y="492" type="curve" smooth="yes"/>
      <point x="252" y="579"/>
      <point x="318" y="620"/>
      <point x="390" y="620" type="curve" smooth="yes"/>
      <point x="454" y="620"/>
      <point x="504" y="588"/>
      <point x="515" y="528" type="curve"/>
      <point x="601" y="568" type="line"/>
      <point x="586" y="624"/>
      <point x="522" y="694"/>
      <point x="400" y="694" type="curve" smooth="yes"/>
      <point x="259" y="694"/>
      <point x="159" y="607"/>
      <point x="159" y="485" type="curve" smooth="yes"/>
      <point x="159" y="414"/>
      <point x="196" y="380"/>
      <point x="196" y="308" type="curve" smooth="yes"/>
      <point x="196" y="225"/>
      <point x="147" y="135"/>
      <point x="67" y="72" type="curve"/>
    </contour>
    <contour>
      <point x="73" y="288" type="line"/>
      <point x="495" y="288" type="line"/>
      <point x="505" y="358" type="line"/>
      <point x="83" y="358" type="line"/>
    </contour>
  </outline>
</glyph>
<glyph name="currency" format="2">
  <advance width="620"/>
  <unicode hex="00A4"/>
  <outline>
    <contour>
      <point x="289" y="114" type="curve" smooth="yes"/>
      <point x="408" y="114"/>
      <point x="499" y="202"/>
      <point x="499" y="319" type="curve" smooth="yes"/>
      <point x="499" y="408"/>
      <point x="436" y="466"/>
      <point x="338" y="466" type="curve" smooth="yes"/>
      <point x="218" y="466"/>
      <point x="127" y="378"/>
      <point x="127" y="261" type="curve" smooth="yes"/>
      <point x="127" y="172"/>
      <point x="191" y="114"/>
    </contour>
    <contour>
      <point x="102" y="80" type="line"/>
      <point x="200" y="166" type="line"/>
      <point x="162" y="208" type="line"/>
      <point x="64" y="124" type="line"/>
    </contour>
    <contour>
      <point x="185" y="372" type="line"/>
      <point x="234" y="412" type="line"/>
      <point x="161" y="498" type="line"/>
      <point x="110" y="454" type="line"/>
    </contour>
    <contour>
      <point x="299" y="186" type="curve" smooth="yes"/>
      <point x="242" y="186"/>
      <point x="208" y="219"/>
      <point x="208" y="271" type="curve" smooth="yes"/>
      <point x="208" y="344"/>
      <point x="258" y="396"/>
      <point x="328" y="396" type="curve" smooth="yes"/>
      <point x="385" y="396"/>
      <point x="419" y="363"/>
      <point x="419" y="311" type="curve" smooth="yes"/>
      <point x="419" y="238"/>
      <point x="369" y="186"/>
    </contour>
    <contour>
      <point x="466" y="80" type="line"/>
      <point x="516" y="124" type="line"/>
      <point x="442" y="208" type="line"/>
      <point x="392" y="166" type="line"/>
    </contour>
    <contour>
      <point x="465" y="372" type="line"/>
      <point x="562" y="454" type="line"/>
      <point x="525" y="498" type="line"/>
      <point x="426" y="412" type="line"/>
    </contour>
  </outline>
</glyph>
<glyph name="yen" format="2">
  <advance width="605"/>
  <unicode hex="00A5"/>
  <outline>
    <component base="Y" xOffset="26"/>
    <contour>
      <point x="107" y="274" type="line"/>
      <point x="538" y="274" type="line"/>
      <point x="547" y="338" type="line"/>
      <point x="116" y="338" type="line"/>
    </contour>
    <contour>
      <point x="92" y="164" type="line"/>
      <point x="523" y="164" type="line"/>
      <point x="532" y="228" type="line"/>
      <point x="101" y="228" type="line"/>
    </contour>
  </outline>
</glyph>
<glyph name="brokenbar" format="2">
  <advance width="245"/>
  <unicode hex="00A6"/>
  <outline>
    <contour>
      <point x="14" y="-230" type="line"/>
      <point x="92" y="-230" type="line"/>
      <point x="144" y="142" type="line"/>
      <point x="66" y="142" type="line"/>
    </contour>
    <contour>
      <point x="94" y="342" type="line"/>
      <point x="172" y="342" type="line"/>
      <point x="222" y="694" type="line"/>
      <point x="144" y="694" type="line"/>
    </contour>
  </outline>
</glyph>
<glyph name="section" format="2">
  <advance width="634"/>
  <unicode hex="00A7"/>
  <note>
Storto? Controlla attacchi interrotti
</note>
  <outline>
    <contour>
      <point x="243" y="-233" type="curve" smooth="yes"/>
      <point x="398" y="-233"/>
      <point x="507" y="-146"/>
      <point x="507" y="-22" type="curve" smooth="yes"/>
      <point x="507" y="183"/>
      <point x="163" y="107"/>
      <point x="163" y="253" type="curve" smooth="yes"/>
      <point x="163" y="308"/>
      <point x="203" y="348"/>
      <point x="264" y="361" type="curve"/>
      <point x="273" y="421" type="line"/>
      <point x="155" y="405"/>
      <point x="75" y="329"/>
      <point x="75" y="225" type="curve" smooth="yes"/>
      <point x="75" y="24"/>
      <point x="420" y="115"/>
      <point x="420" y="-40" type="curve" smooth="yes"/>
      <point x="420" y="-113"/>
      <point x="356" y="-162"/>
      <point x="259" y="-162" type="curve" smooth="yes"/>
      <point x="175" y="-162"/>
      <point x="118" y="-117"/>
      <point x="111" y="-40" type="curve"/>
      <point x="20" y="-69" type="line"/>
      <point x="29" y="-169"/>
      <point x="121" y="-233"/>
    </contour>
    <contour>
      <point x="336" y="51" type="line"/>
      <point x="473" y="67"/>
      <point x="553" y="141"/>
      <point x="553" y="249" type="curve" smooth="yes"/>
      <point x="553" y="453"/>
      <point x="208" y="369"/>
      <point x="208" y="514" type="curve" smooth="yes"/>
      <point x="208" y="581"/>
      <point x="268" y="627"/>
      <point x="355" y="627" type="curve" smooth="yes"/>
      <point x="430" y="627"/>
      <point x="480" y="586"/>
      <point x="487" y="521" type="curve"/>
      <point x="579" y="552" type="line"/>
      <point x="567" y="643"/>
      <point x="484" y="696"/>
      <point x="372" y="696" type="curve" smooth="yes"/>
      <point x="224" y="696"/>
      <point x="121" y="614"/>
      <point x="121" y="496" type="curve" smooth="yes"/>
      <point x="121" y="295"/>
      <point x="466" y="386"/>
      <point x="466" y="231" type="curve" smooth="yes"/>
      <point x="466" y="172"/>
      <point x="427" y="134"/>
      <point x="346" y="122" type="curve"/>
    </contour>
  </outline>
</glyph>
<glyph name="copyright" format="2">
  <advance width="805"/>
  <unicode hex="00A9"/>
  <outline>
    <contour>
      <point x="363" y="-18" type="curve" smooth="yes"/>
      <point x="588" y="-18"/>
      <point x="773" y="168"/>
      <point x="773" y="396" type="curve" smooth="yes"/>
      <point x="773" y="572"/>
      <point x="650" y="698"/>
      <point x="463" y="698" type="curve" smooth="yes"/>
      <point x="238" y="698"/>
      <point x="53" y="512"/>
      <point x="53" y="284" type="curve" smooth="yes"/>
      <point x="53" y="108"/>
      <point x="176" y="-18"/>
    </contour>
    <contour>
      <point x="372" y="46" type="curve" smooth="yes"/>
      <point x="224" y="46"/>
      <point x="131" y="140"/>
      <point x="131" y="286" type="curve" smooth="yes"/>
      <point x="131" y="484"/>
      <point x="270" y="634"/>
      <point x="454" y="634" type="curve" smooth="yes"/>
      <point x="602" y="634"/>
      <point x="695" y="540"/>
      <point x="695" y="394" type="curve" smooth="yes"/>
      <point x="695" y="196"/>
      <point x="556" y="46"/>
    </contour>
    <contour>
      <point x="391" y="152" type="curve" smooth="yes"/>
      <point x="474" y="152"/>
      <point x="544" y="204"/>
      <point x="566" y="276" type="curve"/>
      <point x="490" y="296" type="line"/>
      <point x="475" y="243"/>
      <point x="442" y="212"/>
      <point x="397" y="212" type="curve" smooth="yes"/>
      <point x="350" y="212"/>
      <point x="323" y="247"/>
      <point x="323" y="308" type="curve" smooth="yes"/>
      <point x="323" y="401"/>
      <point x="369" y="469"/>
      <point x="431" y="469" type="curve" smooth="yes"/>
      <point x="474" y="469"/>
      <point x="500" y="439"/>
      <point x="499" y="388" type="curve"/>
      <point x="581" y="408" type="line"/>
      <point x="580" y="478"/>
      <point x="522" y="528"/>
      <point x="441" y="528" type="curve" smooth="yes"/>
      <point x="328" y="528"/>
      <point x="239" y="431"/>
      <point x="239" y="306" type="curve" smooth="yes"/>
      <point x="239" y="215"/>
      <point x="296" y="152"/>
    </contour>
  </outline>
</glyph>
<glyph name="guillemetleft" format="2">
  <advance width="599"/>
  <unicode hex="00AB"/>
  <outline>
    <contour>
      <point x="282" y="50" type="line"/>
      <point x="295" y="140" type="line"/>
      <point x="116" y="258" type="line"/>
      <point x="115" y="250" type="line"/>
      <point x="325" y="368" type="line"/>
      <point x="337" y="456" type="line"/>
      <point x="70" y="292" type="line"/>
      <point x="59" y="214" type="line"/>
    </contour>
    <contour>
      <point x="528" y="50" type="line"/>
      <point x="541" y="140" type="line"/>
      <point x="362" y="258" type="line"/>
      <point x="361" y="250" type="line"/>
      <point x="571" y="368" type="line"/>
      <point x="583" y="456" type="line"/>
      <point x="316" y="292" type="line"/>
      <point x="305" y="214" type="line"/>
    </contour>
  </outline>
</glyph>
<glyph name="logicalnot" format="2">
  <advance width="585"/>
  <unicode hex="00AC"/>
  <outline>
    <contour>
      <point x="452" y="144" type="line"/>
      <point x="528" y="144" type="line"/>
      <point x="553" y="320" type="line"/>
      <point x="109" y="320" type="line"/>
      <point x="99" y="250" type="line"/>
      <point x="475" y="250" type="line"/>
      <point x="468" y="258" type="line"/>
    </contour>
  </outline>
</glyph>
<glyph name="registered" format="2">
  <advance width="805"/>
  <unicode hex="00AE"/>
  <outline>
    <contour>
      <point x="257" y="170" type="line"/>
      <point x="331" y="170" type="line"/>
      <point x="378" y="502" type="line"/>
      <point x="350" y="474" type="line"/>
      <point x="454" y="474" type="line" smooth="yes"/>
      <point x="476" y="474"/>
      <point x="490" y="462"/>
      <point x="490" y="437" type="curve" smooth="yes"/>
      <point x="490" y="401"/>
      <point x="470" y="378"/>
      <point x="438" y="378" type="curve" smooth="yes"/>
      <point x="340" y="378" type="line"/>
      <point x="332" y="322" type="line"/>
      <point x="414" y="322" type="line" smooth="yes"/>
      <point x="431" y="322"/>
      <point x="441" y="315"/>
      <point x="446" y="297" type="curve" smooth="yes"/>
      <point x="479" y="170" type="line"/>
      <point x="567" y="170" type="line"/>
      <point x="513" y="322" type="line" smooth="yes"/>
      <point x="506" y="342"/>
      <point x="481" y="357"/>
      <point x="455" y="353" type="curve"/>
      <point x="453" y="338" type="line"/>
      <point x="521" y="339"/>
      <point x="568" y="382"/>
      <point x="568" y="443" type="curve" smooth="yes"/>
      <point x="568" y="494"/>
      <point x="527" y="530"/>
      <point x="462" y="530" type="curve" smooth="yes"/>
      <point x="308" y="530" type="line"/>
    </contour>
    <contour>
      <point x="363" y="-18" type="curve" smooth="yes"/>
      <point x="588" y="-18"/>
      <point x="773" y="168"/>
      <point x="773" y="396" type="curve" smooth="yes"/>
      <point x="773" y="572"/>
      <point x="650" y="698"/>
      <point x="463" y="698" type="curve" smooth="yes"/>
      <point x="238" y="698"/>
      <point x="53" y="512"/>
      <point x="53" y="284" type="curve" smooth="yes"/>
      <point x="53" y="108"/>
      <point x="176" y="-18"/>
    </contour>
    <contour>
      <point x="372" y="46" type="curve" smooth="yes"/>
      <point x="224" y="46"/>
      <point x="131" y="140"/>
      <point x="131" y="286" type="curve" smooth="yes"/>
      <point x="131" y="484"/>
      <point x="270" y="634"/>
      <point x="454" y="634" type="curve" smooth="yes"/>
      <point x="602" y="634"/>
      <point x="695" y="540"/>
      <point x="695" y="394" type="curve" smooth="yes"/>
      <point x="695" y="196"/>
      <point x="556" y="46"/>
    </contour>
  </outline>
</glyph>
<glyph name="degree" format="2">
  <advance width="348"/>
  <unicode hex="00B0"/>
  <outline>
    <contour>
      <point x="195" y="420" type="curve" smooth="yes"/>
      <point x="282" y="420"/>
      <point x="354" y="489"/>
      <point x="354" y="574" type="curve" smooth="yes"/>
      <point x="354" y="641"/>
      <point x="305" y="688"/>
      <point x="232" y="688" type="curve" smooth="yes"/>
      <point x="146" y="688"/>
      <point x="75" y="619"/>
      <point x="75" y="533" type="curve" smooth="yes"/>
      <point x="75" y="467"/>
      <point x="123" y="420"/>
    </contour>
    <contour>
      <point x="203" y="477" type="curve" smooth="yes"/>
      <point x="162" y="477"/>
      <point x="136" y="502"/>
      <point x="136" y="541" type="curve" smooth="yes"/>
      <point x="136" y="592"/>
      <point x="174" y="632"/>
      <point x="224" y="632" type="curve" smooth="yes"/>
      <point x="266" y="632"/>
      <point x="293" y="606"/>
      <point x="293" y="567" type="curve" smooth="yes"/>
      <point x="293" y="516"/>
      <point x="255" y="477"/>
    </contour>
  </outline>
</glyph>
<glyph name="plusminus" format="2">
  <advance width="673"/>
  <unicode hex="00B1"/>
  <outline>
    <contour>
      <point x="83" y="0" type="line"/>
      <point x="515" y="0" type="line"/>
      <point x="525" y="72" type="line"/>
      <point x="93" y="72" type="line"/>
    </contour>
    <contour>
      <point x="279" y="120" type="line"/>
      <point x="353" y="120" type="line"/>
      <point x="408" y="512" type="line"/>
      <point x="334" y="512" type="line"/>
    </contour>
    <contour>
      <point x="123" y="282" type="line"/>
      <point x="555" y="282" type="line"/>
      <point x="564" y="352" type="line"/>
      <point x="132" y="352" type="line"/>
    </contour>
  </outline>
</glyph>
<glyph name="paragraph" format="2">
  <advance width="777"/>
  <unicode hex="00B6"/>
  <outline>
    <contour>
      <point x="341" y="0" type="curve" smooth="yes"/>
      <point x="354" y="0" type="line"/>
      <point x="449" y="680" type="line"/>
      <point x="436" y="680" type="line" smooth="yes"/>
      <point x="259" y="680"/>
      <point x="102" y="492"/>
      <point x="102" y="277" type="curve" smooth="yes"/>
      <point x="102" y="109"/>
      <point x="206" y="0"/>
    </contour>
    <contour>
      <point x="521" y="22" type="line"/>
      <point x="604" y="22" type="line"/>
      <point x="696" y="680" type="line"/>
      <point x="613" y="680" type="line"/>
    </contour>
    <contour>
      <point x="445" y="680" type="line"/>
      <point x="436" y="613" type="line"/>
      <point x="763" y="613" type="line"/>
      <point x="772" y="680" type="line"/>
    </contour>
    <contour>
      <point x="359" y="67" type="line"/>
      <point x="350" y="0" type="line"/>
      <point x="677" y="0" type="line"/>
      <point x="686" y="67" type="line"/>
    </contour>
  </outline>
</glyph>
<glyph name="ordmasculine" format="2">
  <advance width="422"/>
  <unicode hex="00BA"/>
  <outline>
    <contour>
      <point x="221" y="322" type="curve" smooth="yes"/>
      <point x="331" y="322"/>
      <point x="415" y="414"/>
      <point x="415" y="535" type="curve" smooth="yes"/>
      <point x="415" y="627"/>
      <point x="357" y="688"/>
      <point x="266" y="688" type="curve" smooth="yes"/>
      <point x="157" y="688"/>
      <point x="74" y="596"/>
      <point x="74" y="475" type="curve" smooth="yes"/>
      <point x="74" y="384"/>
      <point x="131" y="322"/>
    </contour>
    <contour>
      <point x="228" y="376" type="curve" smooth="yes"/>
      <point x="179" y="376"/>
      <point x="150" y="415"/>
      <point x="150" y="478" type="curve" smooth="yes"/>
      <point x="150" y="568"/>
      <point x="197" y="635"/>
      <point x="260" y="635" type="curve" smooth="yes"/>
      <point x="309" y="635"/>
      <point x="338" y="597"/>
      <point x="338" y="535" type="curve" smooth="yes"/>
      <point x="338" y="443"/>
      <point x="291" y="376"/>
    </contour>
  </outline>
</glyph>
<glyph name="AE" format="2">
  <advance width="925"/>
  <unicode hex="00C6"/>
  <outline>
    <contour>
      <point x="-31" y="0" type="line"/>
      <point x="66" y="0" type="line"/>
      <point x="459" y="606" type="line"/>
      <point x="494" y="606" type="line"/>
      <point x="409" y="0" type="line"/>
      <point x="853" y="0" type="line"/>
      <point x="863" y="74" type="line"/>
      <point x="505" y="74" type="line"/>
      <point x="512" y="66" type="line"/>
      <point x="589" y="614" type="line"/>
      <point x="580" y="606" type="line"/>
      <point x="932" y="606" type="line"/>
      <point x="943" y="680" type="line"/>
      <point x="427" y="680" type="line"/>
    </contour>
    <contour>
      <point x="177" y="188" type="line"/>
      <point x="443" y="188" type="line"/>
      <point x="454" y="260" type="line"/>
      <point x="188" y="260" type="line"/>
    </contour>
    <contour>
      <point x="539" y="314" type="line"/>
      <point x="859" y="314" type="line"/>
      <point x="869" y="387" type="line"/>
      <point x="549" y="387" type="line"/>
    </contour>
  </outline>
</glyph>
<glyph name="Eth" format="2">
  <advance width="703"/>
  <unicode hex="00D0"/>
  <outline>
    <contour>
      <point x="38" y="327" type="line"/>
      <point x="354" y="327" type="line"/>
      <point x="354" y="393" type="line"/>
      <point x="38" y="393" type="line"/>
    </contour>
    <component base="D" xOffset="24"/>
  </outline>
</glyph>
<glyph name="multiply" format="2">
  <advance width="601"/>
  <unicode hex="00D7"/>
  <outline>
    <contour>
      <point x="156" y="88" type="line"/>
      <point x="571" y="434" type="line"/>
      <point x="531" y="484" type="line"/>
      <point x="115" y="139" type="line"/>
    </contour>
    <contour>
      <point x="476" y="88" type="line"/>
      <point x="531" y="139" type="line"/>
      <point x="211" y="484" type="line"/>
      <point x="157" y="434" type="line"/>
    </contour>
  </outline>
</glyph>
<glyph name="Thorn" format="2">
  <advance width="603"/>
  <unicode hex="00DE"/>
  <outline>
    <contour>
      <point x="152" y="144" type="line"/>
      <point x="326" y="144" type="line" smooth="yes"/>
      <point x="484" y="144"/>
      <point x="590" y="236"/>
      <point x="590" y="373" type="curve" smooth="yes"/>
      <point x="590" y="474"/>
      <point x="513" y="536"/>
      <point x="385" y="536" type="curve" smooth="yes"/>
      <point x="207" y="536" type="line"/>
      <point x="197" y="462" type="line"/>
      <point x="381" y="462" type="line" smooth="yes"/>
      <point x="450" y="462"/>
      <point x="490" y="426"/>
      <point x="490" y="365" type="curve" smooth="yes"/>
      <point x="490" y="277"/>
      <point x="431" y="218"/>
      <point x="345" y="218" type="curve" smooth="yes"/>
      <point x="163" y="218" type="line"/>
    </contour>
    <contour>
      <point x="46" y="0" type="line"/>
      <point x="140" y="0" type="line"/>
      <point x="236" y="681" type="line"/>
      <point x="142" y="681" type="line"/>
    </contour>
  </outline>
</glyph>
<glyph name="germandbls" format="2">
  <advance width="568"/>
  <unicode hex="00DF"/>
  <outline>
    <contour>
      <point x="333" y="-12" type="curve" smooth="yes"/>
      <point x="460" y="-12"/>
      <point x="540" y="58"/>
      <point x="540" y="167" type="curve" smooth="yes"/>
      <point x="540" y="315"/>
      <point x="351" y="261"/>
      <point x="351" y="351" type="curve" smooth="yes"/>
      <point x="351" y="454"/>
      <point x="506" y="421"/>
      <point x="506" y="586" type="curve" smooth="yes"/>
      <point x="506" y="667"/>
      <point x="444" y="714"/>
      <point x="339" y="714" type="curve" smooth="yes"/>
      <point x="213" y="714"/>
      <point x="123" y="643"/>
      <point x="107" y="530" type="curve" smooth="yes"/>
      <point x="33" y="0" type="line"/>
      <point x="119" y="0" type="line"/>
      <point x="193" y="528" type="line" smooth="yes"/>
      <point x="203" y="600"/>
      <point x="252" y="645"/>
      <point x="330" y="645" type="curve" smooth="yes"/>
      <point x="387" y="645"/>
      <point x="419" y="620"/>
      <point x="419" y="576" type="curve" smooth="yes"/>
      <point x="419" y="459"/>
      <point x="271" y="488"/>
      <point x="271" y="334" type="curve" smooth="yes"/>
      <point x="271" y="195"/>
      <point x="455" y="245"/>
      <point x="455" y="148" type="curve" smooth="yes"/>
      <point x="455" y="95"/>
      <point x="412" y="58"/>
      <point x="347" y="58" type="curve" smooth="yes"/>
      <point x="299" y="58"/>
      <point x="250" y="77"/>
      <point x="218" y="108" type="curve"/>
      <point x="179" y="28" type="line"/>
      <point x="220" y="4"/>
      <point x="277" y="-12"/>
    </contour>
  </outline>
</glyph>
<glyph name="eth" format="2">
  <advance width="553"/>
  <unicode hex="00F0"/>
  <outline>
    <contour>
      <point x="249" y="-12" type="curve" smooth="yes"/>
      <point x="419" y="-12"/>
      <point x="525" y="136"/>
      <point x="525" y="345" type="curve" smooth="yes"/>
      <point x="525" y="537"/>
      <point x="412" y="683"/>
      <point x="217" y="744" type="curve"/>
      <point x="185" y="692" type="line"/>
      <point x="317" y="652"/>
      <point x="399" y="558"/>
      <point x="426" y="439" type="curve"/>
      <point x="433" y="439" type="line"/>
      <point x="415" y="485"/>
      <point x="365" y="510"/>
      <point x="298" y="510" type="curve" smooth="yes"/>
      <point x="146" y="510"/>
      <point x="28" y="375"/>
      <point x="28" y="204" type="curve" smooth="yes"/>
      <point x="28" y="74"/>
      <point x="119" y="-12"/>
    </contour>
    <contour>
      <point x="250" y="60" type="curve" smooth="yes"/>
      <point x="167" y="60"/>
      <point x="117" y="118"/>
      <point x="117" y="209" type="curve" smooth="yes"/>
      <point x="117" y="341"/>
      <point x="196" y="440"/>
      <point x="302" y="440" type="curve" smooth="yes"/>
      <point x="385" y="440"/>
      <point x="434" y="382"/>
      <point x="434" y="290" type="curve" smooth="yes"/>
      <point x="434" y="158"/>
      <point x="356" y="60"/>
    </contour>
    <contour>
      <point x="208" y="555" type="line"/>
      <point x="498" y="663" type="line"/>
      <point x="483" y="723" type="line"/>
      <point x="192" y="613" type="line"/>
    </contour>
  </outline>
</glyph>
<glyph name="divide" format="2">
  <advance width="651"/>
  <unicode hex="00F7"/>
  <outline>
    <contour>
      <point x="290" y="398" type="line"/>
      <point x="382" y="398" type="line"/>
      <point x="395" y="492" type="line"/>
      <point x="303" y="492" type="line"/>
    </contour>
    <contour>
      <point x="245" y="80" type="line"/>
      <point x="337" y="80" type="line"/>
      <point x="350" y="174" type="line"/>
      <point x="258" y="174" type="line"/>
    </contour>
    <component base="minus"/>
  </outline>
</glyph>
<glyph name="thorn" format="2">
  <advance width="592"/>
  <unicode hex="00FE"/>
  <outline>
    <contour>
      <point x="1" y="-218" type="line"/>
      <point x="87" y="-218" type="line"/>
      <point x="133" y="112" type="line"/>
      <point x="125" y="112" type="line"/>
      <point x="139" y="36"/>
      <point x="203" y="-12"/>
      <point x="292" y="-12" type="curve" smooth="yes"/>
      <point x="444" y="-12"/>
      <point x="563" y="136"/>
      <point x="563" y="323" type="curve" smooth="yes"/>
      <point x="563" y="456"/>
      <point x="491" y="544"/>
      <point x="374" y="544" type="curve" smooth="yes"/>
      <point x="282" y="544"/>
      <point x="201" y="496"/>
      <point x="168" y="416" type="curve"/>
      <point x="176" y="416" type="line"/>
      <point x="218" y="712" type="line"/>
      <point x="132" y="712" type="line"/>
    </contour>
    <contour>
      <point x="284" y="60" type="curve" smooth="yes"/>
      <point x="200" y="60"/>
      <point x="151" y="120"/>
      <point x="151" y="218" type="curve" smooth="yes"/>
      <point x="151" y="364"/>
      <point x="233" y="472"/>
      <point x="342" y="472" type="curve" smooth="yes"/>
      <point x="425" y="472"/>
      <point x="473" y="411"/>
      <point x="473" y="313" type="curve" smooth="yes"/>
      <point x="473" y="168"/>
      <point x="393" y="60"/>
    </contour>
  </outline>
</glyph>
<glyph name="dcroat" format="2">
  <advance width="615"/>
  <unicode hex="0111"/>
  <outline>
    <component base="d"/>
    <contour>
      <point x="357" y="605" type="line"/>
      <point x="657" y="605" type="line"/>
      <point x="665" y="663" type="line"/>
      <point x="365" y="663" type="line"/>
    </contour>
  </outline>
</glyph>
<glyph name="eogonek" format="2">
  <advance width="527"/>
  <unicode hex="0119"/>
  <outline>
    <contour>
      <point x="414" y="-199" type="curve"/>
      <point x="397" y="-145" type="line"/>
      <point x="341" y="-175"/>
      <point x="299" y="-154"/>
      <point x="299" y="-110" type="curve" smooth="yes"/>
      <point x="299" y="-65"/>
      <point x="340" y="-16"/>
      <point x="399" y="41" type="curve"/>
      <point x="327" y="11" type="line"/>
      <point x="263" y="-26"/>
      <point x="226" y="-78"/>
      <point x="226" y="-130" type="curve" smooth="yes"/>
      <point x="226" y="-212"/>
      <point x="324" y="-242"/>
    </contour>
    <component base="e"/>
  </outline>
</glyph>
<glyph name="Hbar" format="2">
  <advance width="773"/>
  <unicode hex="0126"/>
  <outline>
    <contour>
      <point x="115" y="524" type="line"/>
      <point x="731" y="524" type="line"/>
      <point x="739" y="588" type="line"/>
      <point x="123" y="588" type="line"/>
    </contour>
    <component base="H" xOffset="51"/>
  </outline>
</glyph>
<glyph name="hbar" format="2">
  <advance width="566"/>
  <unicode hex="0127"/>
  <outline>
    <component base="h" xOffset="2"/>
    <contour>
      <point x="58" y="608" type="line"/>
      <point x="354" y="608" type="line"/>
      <point x="362" y="666" type="line"/>
      <point x="66" y="666" type="line"/>
    </contour>
  </outline>
</glyph>
<glyph name="idotless" format="2">
  <advance width="215"/>
  <unicode hex="0131"/>
  <anchor x="70" y="0" name="bottom"/>
  <anchor x="106" y="8" name="ogonek"/>
  <anchor x="145" y="532" name="top"/>
  <outline>
    <contour>
      <point x="27" y="0" type="line"/>
      <point x="113" y="0" type="line"/>
      <point x="188" y="532" type="line"/>
      <point x="102" y="532" type="line"/>
    </contour>
  </outline>
</glyph>
<glyph name="kgreenlandic" format="2">
  <advance width="516"/>
  <unicode hex="0138"/>
  <outline>
    <contour>
      <point x="27" y="0" type="line"/>
      <point x="113" y="0" type="line"/>
      <point x="139" y="188" type="line"/>
      <point x="129" y="172" type="line"/>
      <point x="536" y="532" type="line"/>
      <point x="434" y="532" type="line"/>
      <point x="143" y="272" type="line"/>
      <point x="151" y="272" type="line"/>
      <point x="188" y="532" type="line"/>
      <point x="102" y="532" type="line"/>
    </contour>
    <contour>
      <point x="379" y="0" type="line"/>
      <point x="483" y="0" type="line"/>
      <point x="288" y="331" type="line"/>
      <point x="223" y="272" type="line"/>
    </contour>
  </outline>
</glyph>
<glyph name="ldot" format="2">
  <advance width="319"/>
  <unicode hex="0140"/>
  <outline>
    <contour>
      <point x="225" y="324" type="line"/>
      <point x="319" y="324" type="line"/>
      <point x="333" y="420" type="line"/>
      <point x="239" y="420" type="line"/>
    </contour>
    <component base="l"/>
  </outline>
</glyph>
<glyph name="Lslash" format="2">
  <advance width="540"/>
  <unicode hex="0141"/>
  <outline>
    <component base="L" xOffset="26"/>
    <contour>
      <point x="50" y="268" type="line"/>
      <point x="410" y="382" type="line"/>
      <point x="388" y="450" type="line"/>
      <point x="28" y="334" type="line"/>
    </contour>
  </outline>
</glyph>
<glyph name="lslash" format="2">
  <advance width="283"/>
  <unicode hex="0142"/>
  <outline>
    <contour>
      <point x="142" y="346" type="line"/>
      <point x="142" y="423" type="line"/>
      <point x="4" y="372" type="line"/>
      <point x="26" y="303" type="line"/>
    </contour>
    <component base="l" xOffset="15"/>
    <contour>
      <point x="155" y="433" type="line"/>
      <point x="155" y="356" type="line"/>
      <point x="301" y="410" type="line"/>
      <point x="279" y="478" type="line"/>
    </contour>
  </outline>
</glyph>
<glyph name="Eng" format="2">
  <advance width="816"/>
  <unicode hex="014A"/>
  <outline>
    <contour>
      <point x="465" y="-220" type="line"/>
      <point x="593" y="-256"/>
      <point x="679" y="-210"/>
      <point x="679" y="-106" type="curve" smooth="yes"/>
      <point x="679" y="680" type="line"/>
      <point x="593" y="680" type="line"/>
      <point x="593" y="98" type="line"/>
      <point x="601" y="98" type="line"/>
      <point x="263" y="680" type="line"/>
      <point x="141" y="680" type="line"/>
      <point x="141" y="0" type="line"/>
      <point x="227" y="0" type="line"/>
      <point x="227" y="590" type="line"/>
      <point x="219" y="590" type="line"/>
      <point x="601" y="-54" type="line"/>
      <point x="593" y="-22" type="line"/>
      <point x="593" y="-98" type="line" smooth="yes"/>
      <point x="593" y="-154"/>
      <point x="548" y="-172"/>
      <point x="477" y="-144" type="curve"/>
    </contour>
  </outline>
</glyph>
<glyph name="eng" format="2">
  <advance width="567"/>
  <unicode hex="014B"/>
  <outline>
    <contour>
      <point x="225" y="-216" type="line"/>
      <point x="354" y="-255"/>
      <point x="438" y="-213"/>
      <point x="454" y="-104" type="curve" smooth="yes"/>
      <point x="519" y="356" type="line"/>
      <point x="535" y="468"/>
      <point x="471" y="544"/>
      <point x="365" y="544" type="curve" smooth="yes"/>
      <point x="271" y="544"/>
      <point x="184" y="484"/>
      <point x="158" y="388" type="curve"/>
      <point x="166" y="388" type="line"/>
      <point x="186" y="532" type="line"/>
      <point x="102" y="532" type="line"/>
      <point x="27" y="0" type="line"/>
      <point x="113" y="0" type="line"/>
      <point x="147" y="240" type="line" smooth="yes"/>
      <point x="168" y="388"/>
      <point x="235" y="470"/>
      <point x="329" y="470" type="curve" smooth="yes"/>
      <point x="403" y="470"/>
      <point x="442" y="419"/>
      <point x="429" y="328" type="curve"/>
      <point x="369" y="-100" type="line" smooth="yes"/>
      <point x="361" y="-156"/>
      <point x="312" y="-174"/>
      <point x="244" y="-146" type="curve"/>
    </contour>
  </outline>
</glyph>
<glyph name="OE" format="2">
  <advance width="1041"/>
  <unicode hex="0152"/>
  <outline>
    <contour>
      <point x="307" y="-12" type="curve" smooth="yes"/>
      <point x="508" y="-12"/>
      <point x="665" y="172"/>
      <point x="665" y="409" type="curve" smooth="yes"/>
      <point x="665" y="579"/>
      <point x="566" y="692"/>
      <point x="406" y="692" type="curve" smooth="yes"/>
      <point x="206" y="692"/>
      <point x="49" y="508"/>
      <point x="49" y="271" type="curve" smooth="yes"/>
      <point x="49" y="101"/>
      <point x="148" y="-12"/>
    </contour>
    <contour>
      <point x="324" y="64" type="curve" smooth="yes"/>
      <point x="214" y="64"/>
      <point x="149" y="145"/>
      <point x="149" y="276" type="curve" smooth="yes"/>
      <point x="149" y="471"/>
      <point x="258" y="618"/>
      <point x="402" y="618" type="curve" smooth="yes"/>
      <point x="513" y="618"/>
      <point x="577" y="537"/>
      <point x="577" y="406" type="curve" smooth="yes"/>
      <point x="577" y="212"/>
      <point x="469" y="64"/>
    </contour>
    <contour>
      <point x="524" y="0" type="line"/>
      <point x="968" y="0" type="line"/>
      <point x="979" y="74" type="line"/>
      <point x="621" y="74" type="line"/>
      <point x="627" y="66" type="line"/>
      <point x="704" y="614" type="line"/>
      <point x="695" y="606" type="line"/>
      <point x="1047" y="606" type="line"/>
      <point x="1058" y="680" type="line"/>
      <point x="620" y="680" type="line"/>
    </contour>
    <contour>
      <point x="654" y="314" type="line"/>
      <point x="974" y="314" type="line"/>
      <point x="985" y="387" type="line"/>
      <point x="665" y="387" type="line"/>
    </contour>
  </outline>
</glyph>
<glyph name="Uogonek" format="2">
  <advance width="673"/>
  <unicode hex="0172"/>
  <outline>
    <contour>
      <point x="499" y="-199" type="curve"/>
      <point x="482" y="-145" type="line"/>
      <point x="426" y="-175"/>
      <point x="381" y="-158"/>
      <point x="381" y="-112" type="curve" smooth="yes"/>
      <point x="381" y="-56"/>
      <point x="443" y="-7"/>
      <point x="487" y="22" type="curve"/>
      <point x="413" y="11" type="line"/>
      <point x="350" y="-26"/>
      <point x="311" y="-78"/>
      <point x="311" y="-130" type="curve" smooth="yes"/>
      <point x="311" y="-212"/>
      <point x="408" y="-242"/>
    </contour>
    <component base="U"/>
  </outline>
</glyph>
<glyph name="longs" format="2">
  <advance width="269"/>
  <unicode hex="017F"/>
  <outline>
    <contour>
      <point x="23" y="0" type="line"/>
      <point x="109" y="0" type="line"/>
      <point x="191" y="584" type="line" smooth="yes"/>
      <point x="199" y="641"/>
      <point x="242" y="667"/>
      <point x="317" y="644" type="curve"/>
      <point x="339" y="712" type="line"/>
      <point x="209" y="750"/>
      <point x="122" y="701"/>
      <point x="105" y="582" type="curve" smooth="yes"/>
    </contour>
  </outline>
</glyph>
<glyph name="Schwa" format="2">
  <advance width="703"/>
  <unicode hex="018F"/>
  <outline>
    <contour>
      <point x="308" y="-14" type="curve" smooth="yes"/>
      <point x="513" y="-14"/>
      <point x="676" y="176"/>
      <point x="676" y="415" type="curve" smooth="yes"/>
      <point x="676" y="585"/>
      <point x="575" y="694"/>
      <point x="408" y="694" type="curve" smooth="yes"/>
      <point x="262" y="694"/>
      <point x="132" y="608"/>
      <point x="82" y="480" type="curve"/>
      <point x="174" y="454" type="line"/>
      <point x="207" y="555"/>
      <point x="294" y="620"/>
      <point x="396" y="620" type="curve" smooth="yes"/>
      <point x="511" y="620"/>
      <point x="579" y="537"/>
      <point x="579" y="404" type="curve" smooth="yes"/>
      <point x="579" y="208"/>
      <point x="468" y="62"/>
      <point x="319" y="62" type="curve" smooth="yes"/>
      <point x="197" y="62"/>
      <point x="132" y="153"/>
      <point x="150" y="296" type="curve"/>
      <point x="141" y="288" type="line"/>
      <point x="575" y="288" type="line"/>
      <point x="585" y="360" type="line"/>
      <point x="62" y="360" type="line"/>
      <point x="15" y="140"/>
      <point x="117" y="-14"/>
    </contour>
  </outline>
</glyph>
<glyph name="florin" format="2">
  <advance width="523"/>
  <unicode hex="0192"/>
  <outline>
    <contour>
      <point x="-25" y="6" type="line"/>
      <point x="112" y="-39"/>
      <point x="220" y="1"/>
      <point x="258" y="128" type="curve" smooth="yes"/>
      <point x="382" y="542" type="line" smooth="yes"/>
      <point x="404" y="616"/>
      <point x="469" y="640"/>
      <point x="555" y="604" type="curve"/>
      <point x="581" y="676" type="line"/>
      <point x="440" y="722"/>
      <point x="336" y="678"/>
      <point x="298" y="554" type="curve" smooth="yes"/>
      <point x="174" y="140" type="line" smooth="yes"/>
      <point x="152" y="66"/>
      <point x="88" y="44"/>
      <point x="1" y="80" type="curve"/>
    </contour>
    <contour>
      <point x="86" y="338" type="line"/>
      <point x="490" y="338" type="line"/>
      <point x="499" y="408" type="line"/>
      <point x="95" y="408" type="line"/>
    </contour>
  </outline>
</glyph>
<glyph name="jdotless" format="2">
  <advance width="222"/>
  <unicode hex="0237"/>
  <anchor x="152" y="532" name="top"/>
  <outline>
    <contour>
      <point x="-124" y="-216" type="line"/>
      <point x="-91" y="-229"/>
      <point x="-61" y="-235"/>
      <point x="-34" y="-235" type="curve" smooth="yes"/>
      <point x="43" y="-235"/>
      <point x="94" y="-187"/>
      <point x="106" y="-104" type="curve" smooth="yes"/>
      <point x="195" y="532" type="line"/>
      <point x="109" y="532" type="line"/>
      <point x="20" y="-100" type="line" smooth="yes"/>
      <point x="15" y="-138"/>
      <point x="-10" y="-159"/>
      <point x="-47" y="-159" type="curve" smooth="yes"/>
      <point x="-63" y="-159"/>
      <point x="-83" y="-155"/>
      <point x="-104" y="-146" type="curve"/>
    </contour>
  </outline>
</glyph>
<glyph name="schwa" format="2">
  <advance width="547"/>
  <unicode hex="0259"/>
  <outline>
    <contour>
      <point x="231" y="-12" type="curve" smooth="yes"/>
      <point x="392" y="-12"/>
      <point x="517" y="131"/>
      <point x="517" y="316" type="curve" smooth="yes"/>
      <point x="517" y="454"/>
      <point x="434" y="544"/>
      <point x="303" y="544" type="curve" smooth="yes"/>
      <point x="199" y="544"/>
      <point x="104" y="487"/>
      <point x="60" y="400" type="curve"/>
      <point x="134" y="368" type="line"/>
      <point x="163" y="433"/>
      <point x="226" y="474"/>
      <point x="295" y="474" type="curve" smooth="yes"/>
      <point x="378" y="474"/>
      <point x="427" y="413"/>
      <point x="427" y="314" type="curve" smooth="yes"/>
      <point x="427" y="167"/>
      <point x="347" y="60"/>
      <point x="239" y="60" type="curve" smooth="yes"/>
      <point x="151" y="60"/>
      <point x="103" y="126"/>
      <point x="115" y="228" type="curve"/>
      <point x="106" y="220" type="line"/>
      <point x="425" y="220" type="line"/>
      <point x="435" y="290" type="line"/>
      <point x="37" y="290" type="line"/>
      <point x="-4" y="110"/>
      <point x="75" y="-12"/>
    </contour>
  </outline>
</glyph>
<glyph name="gravecomb" format="2">
  <advance width="346"/>
  <unicode hex="0300"/>
  <anchor x="253" y="532" name="_top"/>
  <outline>
    <contour>
      <point x="250" y="594" type="line"/>
      <point x="318" y="594" type="line"/>
      <point x="241" y="744" type="line"/>
      <point x="141" y="744" type="line"/>
    </contour>
  </outline>
</glyph>
<glyph name="acutecomb" format="2">
  <advance width="368"/>
  <unicode hex="0301"/>
  <anchor x="167" y="532" name="_top"/>
  <outline>
    <contour>
      <point x="140" y="594" type="line"/>
      <point x="211" y="594" type="line"/>
      <point x="341" y="744" type="line"/>
      <point x="240" y="744" type="line"/>
    </contour>
  </outline>
</glyph>
<glyph name="circumflexcomb" format="2">
  <advance width="450"/>
  <unicode hex="0302"/>
  <anchor x="262" y="532" name="_top"/>
  <outline>
    <contour>
      <point x="120" y="594" type="line"/>
      <point x="196" y="594" type="line"/>
      <point x="291" y="702" type="line"/>
      <point x="283" y="702" type="line"/>
      <point x="347" y="594" type="line"/>
      <point x="422" y="594" type="line"/>
      <point x="340" y="744" type="line"/>
      <point x="248" y="744" type="line"/>
    </contour>
  </outline>
</glyph>
<glyph name="tildecomb" format="2">
  <advance width="462"/>
  <unicode hex="0303"/>
  <anchor x="271" y="532" name="_top"/>
  <outline>
    <contour>
      <point x="162" y="606" type="line"/>
      <point x="181" y="638"/>
      <point x="195" y="656"/>
      <point x="221" y="656" type="curve" smooth="yes"/>
      <point x="261" y="656"/>
      <point x="282" y="604"/>
      <point x="338" y="604" type="curve" smooth="yes"/>
      <point x="391" y="604"/>
      <point x="439" y="646"/>
      <point x="467" y="721" type="curve"/>
      <point x="414" y="728" type="line"/>
      <point x="399" y="688"/>
      <point x="381" y="668"/>
      <point x="359" y="668" type="curve" smooth="yes"/>
      <point x="320" y="668"/>
      <point x="298" y="720"/>
      <point x="240" y="720" type="curve" smooth="yes"/>
      <point x="188" y="720"/>
      <point x="140" y="681"/>
      <point x="108" y="612" type="curve"/>
    </contour>
  </outline>
</glyph>
<glyph name="macroncomb" format="2">
  <advance width="420"/>
  <unicode hex="0304"/>
  <anchor x="247" y="532" name="_top"/>
  <outline>
    <contour>
      <point x="123" y="618" type="line"/>
      <point x="395" y="618" type="line"/>
      <point x="404" y="680" type="line"/>
      <point x="132" y="680" type="line"/>
    </contour>
  </outline>
</glyph>
<glyph name="brevecomb" format="2">
  <advance width="406"/>
  <unicode hex="0306"/>
  <anchor x="240" y="532" name="_top"/>
  <outline>
    <contour>
      <point x="248" y="588" type="curve" smooth="yes"/>
      <point x="329" y="588"/>
      <point x="384" y="638"/>
      <point x="396" y="724" type="curve"/>
      <point x="334" y="724" type="line"/>
      <point x="327" y="675"/>
      <point x="298" y="652"/>
      <point x="257" y="652" type="curve" smooth="yes"/>
      <point x="216" y="652"/>
      <point x="193" y="675"/>
      <point x="200" y="724" type="curve"/>
      <point x="138" y="724" type="line"/>
      <point x="126" y="638"/>
      <point x="166" y="588"/>
    </contour>
  </outline>
</glyph>
<glyph name="dotaccentcomb" format="2">
  <advance width="241"/>
  <unicode hex="0307"/>
  <anchor x="158" y="532" name="_top"/>
  <outline>
    <contour>
      <point x="123" y="616" type="line"/>
      <point x="217" y="616" type="line"/>
      <point x="230" y="712" type="line"/>
      <point x="136" y="712" type="line"/>
    </contour>
  </outline>
</glyph>
<glyph name="dieresiscomb" format="2">
  <advance width="390"/>
  <unicode hex="0308"/>
  <anchor x="232" y="532" name="_top"/>
  <outline>
    <contour>
      <point x="279" y="617" type="line"/>
      <point x="365" y="617" type="line"/>
      <point x="377" y="702" type="line"/>
      <point x="291" y="702" type="line"/>
    </contour>
    <contour>
      <point x="123" y="617" type="line"/>
      <point x="209" y="617" type="line"/>
      <point x="221" y="702" type="line"/>
      <point x="135" y="702" type="line"/>
    </contour>
  </outline>
</glyph>
<glyph name="ringcomb" format="2">
  <advance width="347"/>
  <unicode hex="030A"/>
  <anchor x="211" y="532" name="_top"/>
  <outline>
    <contour>
      <point x="218" y="588" type="curve" smooth="yes"/>
      <point x="282" y="588"/>
      <point x="330" y="628"/>
      <point x="330" y="680" type="curve" smooth="yes"/>
      <point x="330" y="722"/>
      <point x="294" y="750"/>
      <point x="241" y="750" type="curve" smooth="yes"/>
      <point x="178" y="750"/>
      <point x="130" y="710"/>
      <point x="130" y="658" type="curve" smooth="yes"/>
      <point x="130" y="616"/>
      <point x="165" y="588"/>
    </contour>
    <contour>
      <point x="223" y="624" type="curve" smooth="yes"/>
      <point x="200" y="624"/>
      <point x="186" y="639"/>
      <point x="186" y="661" type="curve" smooth="yes"/>
      <point x="186" y="691"/>
      <point x="208" y="713"/>
      <point x="236" y="713" type="curve" smooth="yes"/>
      <point x="259" y="713"/>
      <point x="273" y="698"/>
      <point x="273" y="677" type="curve" smooth="yes"/>
      <point x="273" y="647"/>
      <point x="252" y="624"/>
    </contour>
  </outline>
</glyph>
<glyph name="hungarumlautcomb" format="2">
  <advance width="438"/>
  <unicode hex="030B"/>
  <anchor x="217" y="532" name="_top"/>
  <outline>
    <contour>
      <point x="242" y="594" type="line"/>
      <point x="304" y="594" type="line"/>
      <point x="431" y="744" type="line"/>
      <point x="339" y="744" type="line"/>
    </contour>
    <contour>
      <point x="120" y="594" type="line"/>
      <point x="184" y="594" type="line"/>
      <point x="305" y="744" type="line"/>
      <point x="217" y="744" type="line"/>
    </contour>
  </outline>
</glyph>
<glyph name="caroncomb" format="2">
  <advance width="458"/>
  <unicode hex="030C"/>
  <anchor x="263" y="532" name="_top"/>
  <outline>
    <contour>
      <point x="230" y="594" type="line"/>
      <point x="322" y="594" type="line"/>
      <point x="448" y="744" type="line"/>
      <point x="367" y="744" type="line"/>
      <point x="276" y="634" type="line"/>
      <point x="284" y="634" type="line"/>
      <point x="218" y="744" type="line"/>
      <point x="144" y="744" type="line"/>
    </contour>
  </outline>
</glyph>
<glyph name="commaaccentcomb" format="2">
  <advance width="248"/>
  <unicode hex="0326"/>
  <anchor x="90" y="0" name="_bottom"/>
  <outline>
    <contour>
      <point x="13" y="-242" type="line"/>
      <point x="71" y="-233"/>
      <point x="109" y="-193"/>
      <point x="117" y="-138" type="curve" smooth="yes"/>
      <point x="130" y="-48" type="line"/>
      <point x="34" y="-48" type="line"/>
      <point x="21" y="-142" type="line"/>
      <point x="77" y="-142" type="line"/>
      <point x="76" y="-146" type="line" smooth="yes"/>
      <point x="71" y="-179"/>
      <point x="46" y="-200"/>
      <point x="8" y="-204" type="curve"/>
    </contour>
  </outline>
</glyph>
<glyph name="cedillacomb" format="2">
  <advance width="359"/>
  <unicode hex="0327"/>
  <anchor x="155" y="0" name="_bottom"/>
  <outline>
    <contour>
      <point x="7" y="-212" type="line"/>
      <point x="120" y="-254"/>
      <point x="227" y="-218"/>
      <point x="227" y="-137" type="curve" smooth="yes"/>
      <point x="227" y="-99"/>
      <point x="198" y="-68"/>
      <point x="144" y="-60" type="curve"/>
      <point x="147" y="-68" type="line"/>
      <point x="187" y="0" type="line"/>
      <point x="123" y="0" type="line"/>
      <point x="69" y="-86" type="line"/>
      <point x="125" y="-93"/>
      <point x="160" y="-107"/>
      <point x="160" y="-132" type="curve" smooth="yes"/>
      <point x="160" y="-166"/>
      <point x="111" y="-185"/>
      <point x="29" y="-154" type="curve"/>
    </contour>
  </outline>
</glyph>
<glyph name="ogonekcomb" format="2">
  <advance width="336"/>
  <unicode hex="0328"/>
  <anchor x="173" y="0" name="_ogonek"/>
  <outline>
    <contour>
      <point x="195" y="-212" type="curve"/>
      <point x="187" y="-156" type="line"/>
      <point x="130" y="-184"/>
      <point x="89" y="-170"/>
      <point x="89" y="-132" type="curve" smooth="yes"/>
      <point x="89" y="-97"/>
      <point x="126" y="-43"/>
      <point x="180" y="-8" type="curve"/>
      <point x="135" y="0" type="line"/>
      <point x="62" y="-40"/>
      <point x="16" y="-99"/>
      <point x="16" y="-154" type="curve" smooth="yes"/>
      <point x="16" y="-225"/>
      <point x="103" y="-250"/>
    </contour>
  </outline>
</glyph>
<glyph name="slashshortcomb" format="2">
  <advance width="643"/>
  <unicode hex="0337"/>
  <anchor x="322" y="266" name="_center"/>
  <outline>
    <contour>
      <point x="83" y="-14" type="line"/>
      <point x="602" y="498" type="line"/>
      <point x="559" y="544" type="line"/>
      <point x="41" y="32" type="line"/>
    </contour>
  </outline>
</glyph>
<glyph name="slashlongcomb" format="2">
  <advance width="774"/>
  <unicode hex="0338"/>
  <anchor x="398" y="339" name="_center"/>
  <outline>
    <contour>
      <point x="93" y="-2" type="line"/>
      <point x="751" y="628" type="line"/>
      <point x="703" y="680" type="line"/>
      <point x="44" y="50" type="line"/>
    </contour>
  </outline>
</glyph>
<glyph name="Germandbls" format="2">
  <advance width="658"/>
  <unicode hex="1E9E"/>
  <outline>
    <contour>
      <point x="353" y="-14" type="curve" smooth="yes"/>
      <point x="509" y="-14"/>
      <point x="622" y="79"/>
      <point x="622" y="209" type="curve" smooth="yes"/>
      <point x="622" y="306"/>
      <point x="549" y="378"/>
      <point x="434" y="388" type="curve"/>
      <point x="438" y="378" type="line"/>
      <point x="616" y="646" type="line"/>
      <point x="561" y="679"/>
      <point x="477" y="702"/>
      <point x="398" y="702" type="curve" smooth="yes"/>
      <point x="263" y="702"/>
      <point x="128" y="644"/>
      <point x="106" y="488" type="curve" smooth="yes"/>
      <point x="37" y="0" type="line"/>
      <point x="131" y="0" type="line"/>
      <point x="198" y="480" type="line" smooth="yes"/>
      <point x="214" y="595"/>
      <point x="298" y="629"/>
      <point x="376" y="629" type="curve" smooth="yes"/>
      <point x="430" y="629"/>
      <point x="484" y="613"/>
      <point x="513" y="595" type="curve"/>
      <point x="519" y="639" type="line"/>
      <point x="322" y="336" type="line"/>
      <point x="447" y="332"/>
      <point x="522" y="280"/>
      <point x="522" y="199" type="curve" smooth="yes"/>
      <point x="522" y="119"/>
      <point x="460" y="62"/>
      <point x="372" y="62" type="curve" smooth="yes"/>
      <point x="320" y="62"/>
      <point x="270" y="79"/>
      <point x="238" y="108" type="curve"/>
      <point x="198" y="24" type="line"/>
      <point x="239" y="0"/>
      <point x="293" y="-14"/>
    </contour>
  </outline>
</glyph>
<glyph name="endash" format="2">
  <advance width="548"/>
  <unicode hex="2013"/>
  <outline>
    <contour>
      <point x="89" y="229" type="line"/>
      <point x="449" y="229" type="line"/>
      <point x="459" y="301" type="line"/>
      <point x="99" y="301" type="line"/>
    </contour>
  </outline>
</glyph>
<glyph name="emdash" format="2">
  <advance width="1014"/>
  <unicode hex="2014"/>
  <outline>
    <contour>
      <point x="37" y="229" type="line"/>
      <point x="967" y="229" type="line"/>
      <point x="977" y="301" type="line"/>
      <point x="47" y="301" type="line"/>
    </contour>
  </outline>
</glyph>
<glyph name="dagger" format="2">
  <advance width="460"/>
  <unicode hex="2020"/>
  <outline>
    <contour>
      <point x="149" y="0" type="line"/>
      <point x="235" y="0" type="line"/>
      <point x="331" y="680" type="line"/>
      <point x="245" y="680" type="line"/>
    </contour>
    <contour>
      <point x="56" y="440" type="line"/>
      <point x="452" y="440" type="line"/>
      <point x="462" y="510" type="line"/>
      <point x="66" y="510" type="line"/>
    </contour>
  </outline>
</glyph>
<glyph name="daggerdbl" format="2">
  <advance width="494"/>
  <unicode hex="2021"/>
  <outline>
    <contour>
      <point x="167" y="0" type="line"/>
      <point x="253" y="0" type="line"/>
      <point x="348" y="680" type="line"/>
      <point x="262" y="680" type="line"/>
    </contour>
    <contour>
      <point x="37" y="158" type="line"/>
      <point x="427" y="158" type="line"/>
      <point x="437" y="228" type="line"/>
      <point x="47" y="228" type="line"/>
    </contour>
    <contour>
      <point x="81" y="464" type="line"/>
      <point x="468" y="464" type="line"/>
      <point x="478" y="532" type="line"/>
      <point x="91" y="532" type="line"/>
    </contour>
  </outline>
</glyph>
<glyph name="bullet" format="2">
  <advance width="436"/>
  <unicode hex="2022"/>
  <outline>
    <contour>
      <point x="228" y="194" type="curve" smooth="yes"/>
      <point x="310" y="194"/>
      <point x="370" y="254"/>
      <point x="370" y="338" type="curve" smooth="yes"/>
      <point x="370" y="422"/>
      <point x="310" y="482"/>
      <point x="228" y="482" type="curve" smooth="yes"/>
      <point x="146" y="482"/>
      <point x="86" y="422"/>
      <point x="86" y="338" type="curve" smooth="yes"/>
      <point x="86" y="254"/>
      <point x="146" y="194"/>
    </contour>
  </outline>
</glyph>
<glyph name="minute" format="2">
  <advance width="241"/>
  <unicode hex="2032"/>
  <outline>
    <contour>
      <point x="86" y="448" type="line"/>
      <point x="151" y="448" type="line"/>
      <point x="279" y="680" type="line"/>
      <point x="179" y="680" type="line"/>
    </contour>
  </outline>
</glyph>
<glyph name="second" format="2">
  <advance width="373"/>
  <unicode hex="2033"/>
  <outline>
    <contour>
      <point x="86" y="448" type="line"/>
      <point x="151" y="448" type="line"/>
      <point x="273" y="680" type="line"/>
      <point x="179" y="680" type="line"/>
    </contour>
    <contour>
      <point x="216" y="448" type="line"/>
      <point x="281" y="448" type="line"/>
      <point x="411" y="680" type="line"/>
      <point x="317" y="680" type="line"/>
    </contour>
  </outline>
</glyph>
<glyph name="guilsinglleft" format="2">
  <advance width="379"/>
  <unicode hex="2039"/>
  <outline>
    <contour>
      <point x="309" y="50" type="line"/>
      <point x="321" y="140" type="line"/>
      <point x="127" y="258" type="line"/>
      <point x="126" y="250" type="line"/>
      <point x="351" y="368" type="line"/>
      <point x="364" y="456" type="line"/>
      <point x="69" y="290" type="line"/>
      <point x="59" y="216" type="line"/>
    </contour>
  </outline>
</glyph>
<glyph name="zeroinferior" format="2">
  <advance width="411"/>
  <unicode hex="2080"/>
  <outline>
    <contour>
      <point x="157" y="-76" type="curve" smooth="yes"/>
      <point x="274" y="-76"/>
      <point x="366" y="38"/>
      <point x="366" y="185" type="curve" smooth="yes"/>
      <point x="366" y="288"/>
      <point x="309" y="355"/>
      <point x="218" y="355" type="curve" smooth="yes"/>
      <point x="101" y="355"/>
      <point x="10" y="241"/>
      <point x="10" y="94" type="curve" smooth="yes"/>
      <point x="10" y="-10"/>
      <point x="66" y="-76"/>
    </contour>
    <contour>
      <point x="166" y="-14" type="curve" smooth="yes"/>
      <point x="119" y="-14"/>
      <point x="91" y="28"/>
      <point x="91" y="97" type="curve" smooth="yes"/>
      <point x="91" y="207"/>
      <point x="144" y="294"/>
      <point x="209" y="294" type="curve" smooth="yes"/>
      <point x="256" y="294"/>
      <point x="284" y="251"/>
      <point x="284" y="183" type="curve" smooth="yes"/>
      <point x="284" y="76"/>
      <point x="231" y="-14"/>
    </contour>
  </outline>
</glyph>
<glyph name="twoinferior" format="2">
  <advance width="393"/>
  <unicode hex="2082"/>
  <outline>
    <contour>
      <point x="6" y="-68" type="line"/>
      <point x="308" y="-68" type="line"/>
      <point x="317" y="-3" type="line"/>
      <point x="110" y="-3" type="line"/>
      <point x="113" y="-6" type="line"/>
      <point x="167" y="89"/>
      <point x="348" y="108"/>
      <point x="348" y="251" type="curve" smooth="yes"/>
      <point x="348" y="313"/>
      <point x="298" y="355"/>
      <point x="221" y="355" type="curve" smooth="yes"/>
      <point x="145" y="355"/>
      <point x="74" y="312"/>
      <point x="50" y="243" type="curve"/>
      <point x="120" y="220" type="line"/>
      <point x="133" y="269"/>
      <point x="172" y="294"/>
      <point x="210" y="294" type="curve" smooth="yes"/>
      <point x="246" y="294"/>
      <point x="268" y="273"/>
      <point x="268" y="243" type="curve" smooth="yes"/>
      <point x="268" y="127"/>
      <point x="44" y="111"/>
      <point x="9" y="-54" type="curve" smooth="yes"/>
    </contour>
  </outline>
</glyph>
<glyph name="threeinferior" format="2">
  <advance width="376"/>
  <unicode hex="2083"/>
  <outline>
    <contour>
      <point x="141" y="-76" type="curve" smooth="yes"/>
      <point x="242" y="-76"/>
      <point x="318" y="-16"/>
      <point x="318" y="66" type="curve" smooth="yes"/>
      <point x="318" y="113"/>
      <point x="287" y="147"/>
      <point x="239" y="154" type="curve"/>
      <point x="239" y="150" type="line"/>
      <point x="293" y="162"/>
      <point x="330" y="207"/>
      <point x="330" y="259" type="curve" smooth="yes"/>
      <point x="330" y="316"/>
      <point x="279" y="355"/>
      <point x="202" y="355" type="curve" smooth="yes"/>
      <point x="126" y="355"/>
      <point x="57" y="316"/>
      <point x="41" y="257" type="curve"/>
      <point x="109" y="233" type="line"/>
      <point x="121" y="273"/>
      <point x="152" y="299"/>
      <point x="194" y="299" type="curve" smooth="yes"/>
      <point x="229" y="299"/>
      <point x="250" y="277"/>
      <point x="250" y="248" type="curve" smooth="yes"/>
      <point x="250" y="207"/>
      <point x="217" y="175"/>
      <point x="173" y="175" type="curve" smooth="yes"/>
      <point x="129" y="175" type="line"/>
      <point x="122" y="125" type="line"/>
      <point x="170" y="125" type="line" smooth="yes"/>
      <point x="211" y="125"/>
      <point x="236" y="102"/>
      <point x="236" y="66" type="curve" smooth="yes"/>
      <point x="236" y="17"/>
      <point x="199" y="-18"/>
      <point x="150" y="-18" type="curve" smooth="yes"/>
      <point x="105" y="-18"/>
      <point x="76" y="10"/>
      <point x="78" y="56" type="curve"/>
      <point x="-3" y="39" type="line"/>
      <point x="-6" y="-27"/>
      <point x="48" y="-76"/>
    </contour>
  </outline>
</glyph>
<glyph name="fourinferior" format="2">
  <advance width="367"/>
  <unicode hex="2084"/>
  <outline>
    <contour>
      <point x="171" y="-68" type="line"/>
      <point x="248" y="-68" type="line"/>
      <point x="306" y="346" type="line"/>
      <point x="235" y="346" type="line"/>
      <point x="-14" y="80" type="line"/>
      <point x="-22" y="23" type="line"/>
      <point x="316" y="23" type="line"/>
      <point x="325" y="85" type="line"/>
      <point x="53" y="85" type="line"/>
      <point x="59" y="77" type="line"/>
      <point x="226" y="256" type="line"/>
      <point x="217" y="259" type="line"/>
    </contour>
  </outline>
</glyph>
<glyph name="fiveinferior" format="2">
  <advance width="366"/>
  <unicode hex="2085"/>
  <outline>
    <contour>
      <point x="147" y="-76" type="curve" smooth="yes"/>
      <point x="250" y="-76"/>
      <point x="325" y="-5"/>
      <point x="325" y="91" type="curve" smooth="yes"/>
      <point x="325" y="161"/>
      <point x="276" y="207"/>
      <point x="201" y="207" type="curve" smooth="yes"/>
      <point x="142" y="207"/>
      <point x="96" y="182"/>
      <point x="80" y="149" type="curve"/>
      <point x="100" y="149" type="line"/>
      <point x="140" y="285" type="line"/>
      <point x="331" y="285" type="line"/>
      <point x="339" y="347" type="line"/>
      <point x="87" y="347" type="line"/>
      <point x="27" y="121" type="line"/>
      <point x="90" y="105" type="line"/>
      <point x="108" y="130"/>
      <point x="137" y="144"/>
      <point x="175" y="144" type="curve" smooth="yes"/>
      <point x="218" y="144"/>
      <point x="245" y="118"/>
      <point x="245" y="79" type="curve" smooth="yes"/>
      <point x="245" y="26"/>
      <point x="206" y="-12"/>
      <point x="153" y="-12" type="curve" smooth="yes"/>
      <point x="115" y="-12"/>
      <point x="83" y="9"/>
      <point x="83" y="49" type="curve"/>
      <point x="5" y="38" type="line"/>
      <point x="4" y="-30"/>
      <point x="63" y="-76"/>
    </contour>
  </outline>
</glyph>
<glyph name="sixinferior" format="2">
  <advance width="394"/>
  <unicode hex="2086"/>
  <outline>
    <contour>
      <point x="171" y="-76" type="curve" smooth="yes"/>
      <point x="273" y="-76"/>
      <point x="351" y="-6"/>
      <point x="351" y="87" type="curve" smooth="yes"/>
      <point x="351" y="157"/>
      <point x="299" y="203"/>
      <point x="218" y="203" type="curve" smooth="yes"/>
      <point x="159" y="203"/>
      <point x="108" y="176"/>
      <point x="89" y="135" type="curve"/>
      <point x="102" y="135" type="line"/>
      <point x="117" y="233"/>
      <point x="162" y="294"/>
      <point x="226" y="294" type="curve" smooth="yes"/>
      <point x="265" y="294"/>
      <point x="290" y="272"/>
      <point x="292" y="238" type="curve"/>
      <point x="362" y="259" type="line"/>
      <point x="355" y="317"/>
      <point x="300" y="354"/>
      <point x="235" y="354" type="curve" smooth="yes"/>
      <point x="118" y="354"/>
      <point x="26" y="235"/>
      <point x="26" y="81" type="curve" smooth="yes"/>
      <point x="26" y="-15"/>
      <point x="76" y="-76"/>
    </contour>
    <contour>
      <point x="176" y="-21" type="curve" smooth="yes"/>
      <point x="133" y="-21"/>
      <point x="105" y="6"/>
      <point x="105" y="49" type="curve" smooth="yes"/>
      <point x="105" y="106"/>
      <point x="146" y="150"/>
      <point x="200" y="150" type="curve" smooth="yes"/>
      <point x="243" y="150"/>
      <point x="272" y="122"/>
      <point x="272" y="79" type="curve" smooth="yes"/>
      <point x="272" y="23"/>
      <point x="231" y="-21"/>
    </contour>
  </outline>
</glyph>
<glyph name="seveninferior" format="2">
  <advance width="373"/>
  <unicode hex="2087"/>
  <outline>
    <contour>
      <point x="64" y="-68" type="curve"/>
      <point x="145" y="-68" type="line"/>
      <point x="178" y="90"/>
      <point x="251" y="215"/>
      <point x="352" y="298" type="curve"/>
      <point x="359" y="347" type="line"/>
      <point x="48" y="347" type="line"/>
      <point x="39" y="285" type="line"/>
      <point x="260" y="285" type="line"/>
      <point x="259" y="289" type="line"/>
      <point x="166" y="202"/>
      <point x="91" y="60"/>
    </contour>
  </outline>
</glyph>
<glyph name="eightinferior" format="2">
  <advance width="402"/>
  <unicode hex="2088"/>
  <outline>
    <contour>
      <point x="167" y="-75" type="curve" smooth="yes"/>
      <point x="274" y="-75"/>
      <point x="354" y="-16"/>
      <point x="354" y="64" type="curve" smooth="yes"/>
      <point x="354" y="106"/>
      <point x="330" y="141"/>
      <point x="288" y="159" type="curve"/>
      <point x="287" y="154" type="line"/>
      <point x="338" y="172"/>
      <point x="365" y="212"/>
      <point x="365" y="256" type="curve" smooth="yes"/>
      <point x="365" y="315"/>
      <point x="312" y="355"/>
      <point x="227" y="355" type="curve" smooth="yes"/>
      <point x="130" y="355"/>
      <point x="56" y="301"/>
      <point x="56" y="229" type="curve" smooth="yes"/>
      <point x="56" y="195"/>
      <point x="76" y="167"/>
      <point x="112" y="154" type="curve"/>
      <point x="113" y="159" type="line"/>
      <point x="52" y="137"/>
      <point x="13" y="87"/>
      <point x="13" y="33" type="curve" smooth="yes"/>
      <point x="13" y="-32"/>
      <point x="74" y="-75"/>
    </contour>
    <contour>
      <point x="175" y="-16" type="curve" smooth="yes"/>
      <point x="127" y="-16"/>
      <point x="96" y="8"/>
      <point x="96" y="47" type="curve" smooth="yes"/>
      <point x="96" y="96"/>
      <point x="137" y="131"/>
      <point x="196" y="131" type="curve" smooth="yes"/>
      <point x="242" y="131"/>
      <point x="274" y="108"/>
      <point x="274" y="69" type="curve" smooth="yes"/>
      <point x="274" y="20"/>
      <point x="232" y="-16"/>
    </contour>
    <contour>
      <point x="203" y="179" type="curve" smooth="yes"/>
      <point x="159" y="179"/>
      <point x="132" y="200"/>
      <point x="132" y="230" type="curve" smooth="yes"/>
      <point x="132" y="268"/>
      <point x="169" y="296"/>
      <point x="219" y="296" type="curve" smooth="yes"/>
      <point x="261" y="296"/>
      <point x="288" y="276"/>
      <point x="288" y="246" type="curve" smooth="yes"/>
      <point x="288" y="207"/>
      <point x="252" y="179"/>
    </contour>
  </outline>
</glyph>
<glyph name="plusinferior" format="2">
  <advance width="364"/>
  <unicode hex="208A"/>
  <outline>
    <contour>
      <point x="113" y="-2" type="line"/>
      <point x="175" y="-2" type="line"/>
      <point x="215" y="283" type="line"/>
      <point x="153" y="283" type="line"/>
    </contour>
    <contour>
      <point x="13" y="111" type="line"/>
      <point x="308" y="111" type="line"/>
      <point x="316" y="168" type="line"/>
      <point x="21" y="168" type="line"/>
    </contour>
  </outline>
</glyph>
<glyph name="minusinferior" format="2">
  <advance width="364"/>
  <unicode hex="208B"/>
  <outline>
    <contour>
      <point x="37" y="111" type="line"/>
      <point x="323" y="111" type="line"/>
      <point x="331" y="168" type="line"/>
      <point x="45" y="168" type="line"/>
    </contour>
  </outline>
</glyph>
<glyph name="equalinferior" format="2">
  <advance width="379"/>
  <unicode hex="208C"/>
  <outline>
    <contour>
      <point x="39" y="58" type="line"/>
      <point x="321" y="58" type="line"/>
      <point x="329" y="116" type="line"/>
      <point x="47" y="116" type="line"/>
    </contour>
    <contour>
      <point x="54" y="165" type="line"/>
      <point x="336" y="165" type="line"/>
      <point x="344" y="222" type="line"/>
      <point x="62" y="222" type="line"/>
    </contour>
  </outline>
</glyph>
<glyph name="parenleftinferior" format="2">
  <advance width="220"/>
  <unicode hex="208D"/>
  <outline>
    <contour>
      <point x="96" y="-142" type="curve"/>
      <point x="151" y="-113" type="line"/>
      <point x="125" y="-63"/>
      <point x="110" y="-2"/>
      <point x="110" y="67" type="curve" smooth="yes"/>
      <point x="110" y="182"/>
      <point x="152" y="308"/>
      <point x="220" y="390" type="curve"/>
      <point x="174" y="420" type="line"/>
      <point x="88" y="325"/>
      <point x="36" y="194"/>
      <point x="36" y="78" type="curve" smooth="yes"/>
      <point x="36" y="-2"/>
      <point x="57" y="-80"/>
    </contour>
  </outline>
</glyph>
<glyph name="euro" format="2">
  <advance width="621"/>
  <unicode hex="20AC"/>
  <anchor x="314" y="0" name="bottom"/>
  <anchor x="399" y="680" name="top"/>
  <outline>
    <contour>
      <point x="16" y="368" type="line"/>
      <point x="446" y="368" type="line"/>
      <point x="455" y="432" type="line"/>
      <point x="25" y="432" type="line"/>
    </contour>
    <contour>
      <point x="-1" y="256" type="line"/>
      <point x="426" y="256" type="line"/>
      <point x="435" y="320" type="line"/>
      <point x="8" y="320" type="line"/>
    </contour>
    <contour>
      <point x="316" y="-14" type="curve" smooth="yes"/>
      <point x="445" y="-14"/>
      <point x="562" y="80"/>
      <point x="604" y="218" type="curve"/>
      <point x="517" y="246" type="line"/>
      <point x="487" y="134"/>
      <point x="413" y="63"/>
      <point x="327" y="63" type="curve" smooth="yes"/>
      <point x="234" y="63"/>
      <point x="181" y="141"/>
      <point x="181" y="268" type="curve" smooth="yes"/>
      <point x="181" y="465"/>
      <point x="278" y="620"/>
      <point x="403" y="620" type="curve" smooth="yes"/>
      <point x="483" y="620"/>
      <point x="533" y="556"/>
      <point x="534" y="456" type="curve"/>
      <point x="625" y="480" type="line"/>
      <point x="616" y="610"/>
      <point x="533" y="694"/>
      <point x="410" y="694" type="curve" smooth="yes"/>
      <point x="229" y="694"/>
      <point x="86" y="504"/>
      <point x="86" y="265" type="curve" smooth="yes"/>
      <point x="86" y="96"/>
      <point x="174" y="-14"/>
    </contour>
  </outline>
</glyph>
<glyph name="published" format="2">
  <advance width="805"/>
  <unicode hex="2117"/>
  <outline>
    <contour>
      <point x="264" y="160" type="line"/>
      <point x="340" y="160" type="line"/>
      <point x="386" y="492" type="line"/>
      <point x="356" y="464" type="line"/>
      <point x="452" y="464" type="line" smooth="yes"/>
      <point x="478" y="464"/>
      <point x="493" y="450"/>
      <point x="493" y="424" type="curve" smooth="yes"/>
      <point x="493" y="385"/>
      <point x="470" y="358"/>
      <point x="436" y="358" type="curve" smooth="yes"/>
      <point x="346" y="358" type="line"/>
      <point x="338" y="302" type="line"/>
      <point x="426" y="302" type="line" smooth="yes"/>
      <point x="511" y="302"/>
      <point x="576" y="356"/>
      <point x="576" y="427" type="curve" smooth="yes"/>
      <point x="576" y="482"/>
      <point x="531" y="520"/>
      <point x="458" y="520" type="curve" smooth="yes"/>
      <point x="314" y="520" type="line"/>
    </contour>
    <contour>
      <point x="363" y="-18" type="curve" smooth="yes"/>
      <point x="588" y="-18"/>
      <point x="773" y="168"/>
      <point x="773" y="396" type="curve" smooth="yes"/>
      <point x="773" y="572"/>
      <point x="650" y="698"/>
      <point x="463" y="698" type="curve" smooth="yes"/>
      <point x="238" y="698"/>
      <point x="53" y="512"/>
      <point x="53" y="284" type="curve" smooth="yes"/>
      <point x="53" y="108"/>
      <point x="176" y="-18"/>
    </contour>
    <contour>
      <point x="372" y="46" type="curve" smooth="yes"/>
      <point x="224" y="46"/>
      <point x="131" y="140"/>
      <point x="131" y="286" type="curve" smooth="yes"/>
      <point x="131" y="484"/>
      <point x="270" y="634"/>
      <point x="454" y="634" type="curve" smooth="yes"/>
      <point x="602" y="634"/>
      <point x="695" y="540"/>
      <point x="695" y="394" type="curve" smooth="yes"/>
      <point x="695" y="196"/>
      <point x="556" y="46"/>
    </contour>
  </outline>
</glyph>
<glyph name="trademark" format="2">
  <advance width="711"/>
  <unicode hex="2122"/>
  <outline>
    <contour>
      <point x="339" y="326" type="line"/>
      <point x="403" y="326" type="line"/>
      <point x="442" y="604" type="line"/>
      <point x="434" y="604" type="line"/>
      <point x="489" y="326" type="line"/>
      <point x="543" y="326" type="line"/>
      <point x="674" y="604" type="line"/>
      <point x="666" y="604" type="line"/>
      <point x="627" y="326" type="line"/>
      <point x="699" y="326" type="line"/>
      <point x="748" y="680" type="line"/>
      <point x="652" y="680" type="line"/>
      <point x="526" y="408" type="line"/>
      <point x="534" y="408" type="line"/>
      <point x="482" y="680" type="line"/>
      <point x="388" y="680" type="line"/>
    </contour>
    <contour>
      <point x="130" y="326" type="line"/>
      <point x="204" y="326" type="line"/>
      <point x="246" y="628" type="line"/>
      <point x="172" y="628" type="line"/>
    </contour>
    <contour>
      <point x="70" y="620" type="line"/>
      <point x="346" y="620" type="line"/>
      <point x="354" y="680" type="line"/>
      <point x="78" y="680" type="line"/>
    </contour>
  </outline>
</glyph>
<glyph name="minus" format="2">
  <advance width="651"/>
  <unicode hex="2212"/>
  <outline>
    <contour>
      <point x="99" y="248" type="line"/>
      <point x="547" y="248" type="line"/>
      <point x="557" y="320" type="line"/>
      <point x="109" y="320" type="line"/>
    </contour>
  </outline>
</glyph>
<glyph name="approxequal" format="2">
  <advance width="650"/>
  <unicode hex="2248"/>
  <outline>
    <contour>
      <point x="400" y="134" type="curve" smooth="yes"/>
      <point x="469" y="134"/>
      <point x="528" y="180"/>
      <point x="549" y="252" type="curve"/>
      <point x="487" y="266" type="line"/>
      <point x="475" y="226"/>
      <point x="446" y="204"/>
      <point x="412" y="204" type="curve" smooth="yes"/>
      <point x="356" y="204"/>
      <point x="309" y="264"/>
      <point x="231" y="264" type="curve" smooth="yes"/>
      <point x="162" y="264"/>
      <point x="103" y="218"/>
      <point x="82" y="146" type="curve"/>
      <point x="144" y="132" type="line"/>
      <point x="156" y="172"/>
      <point x="184" y="194"/>
      <point x="219" y="194" type="curve" smooth="yes"/>
      <point x="275" y="194"/>
      <point x="322" y="134"/>
    </contour>
    <contour>
      <point x="424" y="304" type="curve" smooth="yes"/>
      <point x="492" y="304"/>
      <point x="552" y="350"/>
      <point x="573" y="422" type="curve"/>
      <point x="511" y="436" type="line"/>
      <point x="499" y="396"/>
      <point x="470" y="374"/>
      <point x="436" y="374" type="curve" smooth="yes"/>
      <point x="380" y="374"/>
      <point x="332" y="434"/>
      <point x="254" y="434" type="curve" smooth="yes"/>
      <point x="186" y="434"/>
      <point x="127" y="388"/>
      <point x="106" y="316" type="curve"/>
      <point x="168" y="302" type="line"/>
      <point x="179" y="341"/>
      <point x="208" y="364"/>
      <point x="243" y="364" type="curve" smooth="yes"/>
      <point x="299" y="364"/>
      <point x="346" y="304"/>
    </contour>
  </outline>
</glyph>
<glyph name="notequal" format="2">
  <advance width="673"/>
  <unicode hex="2260"/>
  <outline>
    <contour>
      <point x="167" y="64" type="line"/>
      <point x="518" y="470" type="line"/>
      <point x="473" y="508" type="line"/>
      <point x="122" y="100" type="line"/>
    </contour>
    <component base="equal"/>
  </outline>
</glyph>
<glyph name="equivalence" format="2">
  <advance width="691"/>
  <unicode hex="2261"/>
  <outline>
    <contour>
      <point x="111" y="104" type="line"/>
      <point x="535" y="104" type="line"/>
      <point x="545" y="175" type="line"/>
      <point x="121" y="175" type="line"/>
    </contour>
    <contour>
      <point x="132" y="250" type="line"/>
      <point x="556" y="250" type="line"/>
      <point x="565" y="320" type="line"/>
      <point x="141" y="320" type="line"/>
    </contour>
    <contour>
      <point x="152" y="394" type="line"/>
      <point x="576" y="394" type="line"/>
      <point x="586" y="464" type="line"/>
      <point x="162" y="464" type="line"/>
    </contour>
  </outline>
</glyph>
<glyph name="lessequal" format="2">
  <advance width="678"/>
  <unicode hex="2264"/>
  <outline>
    <contour>
      <point x="521" y="0" type="line"/>
      <point x="530" y="72" type="line"/>
      <point x="98" y="72" type="line"/>
      <point x="89" y="0" type="line"/>
    </contour>
    <contour>
      <point x="534" y="114" type="line"/>
      <point x="544" y="194" type="line"/>
      <point x="212" y="324" type="line"/>
      <point x="212" y="316" type="line"/>
      <point x="574" y="448" type="line"/>
      <point x="583" y="526" type="line"/>
      <point x="132" y="350" type="line"/>
      <point x="124" y="288" type="line"/>
    </contour>
  </outline>
</glyph>
<glyph name="greaterequal" format="2">
  <advance width="672"/>
  <unicode hex="2265"/>
  <outline>
    <contour>
      <point x="83" y="0" type="line"/>
      <point x="515" y="0" type="line"/>
      <point x="525" y="72" type="line"/>
      <point x="93" y="72" type="line"/>
    </contour>
    <contour>
      <point x="100" y="114" type="line"/>
      <point x="555" y="288" type="line"/>
      <point x="564" y="350" type="line"/>
      <point x="159" y="526" type="line"/>
      <point x="148" y="448" type="line"/>
      <point x="475" y="316" type="line"/>
      <point x="477" y="324" type="line"/>
      <point x="111" y="194" type="line"/>
    </contour>
  </outline>
</glyph>
<glyph name="downBlackTriangle" format="2">
  <advance width="597"/>
  <unicode hex="25BC"/>
  <outline>
    <contour>
      <point x="318" y="-2" type="line" smooth="yes"/>
      <point x="327" y="-20"/>
      <point x="341" y="-20"/>
      <point x="350" y="-2" type="curve" smooth="yes"/>
      <point x="602" y="510" type="line" smooth="yes"/>
      <point x="608" y="522"/>
      <point x="602" y="532"/>
      <point x="588" y="532" type="curve" smooth="yes"/>
      <point x="80" y="532" type="line" smooth="yes"/>
      <point x="66" y="532"/>
      <point x="60" y="522"/>
      <point x="66" y="510" type="curve" smooth="yes"/>
    </contour>
  </outline>
</glyph>
<glyph name="G.ss03" format="2">
  <advance width="695"/>
  <note>
Versione senza gamba?
</note>
  <anchor x="330" y="0" name="bottom"/>
  <anchor x="413" y="680" name="top"/>
  <outline>
    <contour>
      <point x="302" y="-14" type="curve" smooth="yes"/>
      <point x="421" y="-14"/>
      <point x="518" y="51"/>
      <point x="542" y="148" type="curve"/>
      <point x="534" y="148" type="line"/>
      <point x="514" y="0" type="line"/>
      <point x="598" y="0" type="line"/>
      <point x="648" y="356" type="line"/>
      <point x="356" y="356" type="line"/>
      <point x="345" y="282" type="line"/>
      <point x="551" y="282" type="line"/>
      <point x="532" y="147"/>
      <point x="447" y="62"/>
      <point x="332" y="62" type="curve" smooth="yes"/>
      <point x="217" y="62"/>
      <point x="149" y="145"/>
      <point x="149" y="279" type="curve" smooth="yes"/>
      <point x="149" y="474"/>
      <point x="258" y="620"/>
      <point x="405" y="620" type="curve" smooth="yes"/>
      <point x="499" y="620"/>
      <point x="564" y="562"/>
      <point x="570" y="472" type="curve"/>
      <point x="663" y="496" type="line"/>
      <point x="654" y="614"/>
      <point x="553" y="694"/>
      <point x="415" y="694" type="curve" smooth="yes"/>
      <point x="208" y="694"/>
      <point x="48" y="508"/>
      <point x="48" y="268" type="curve" smooth="yes"/>
      <point x="48" y="98"/>
      <point x="145" y="-14"/>
    </contour>
  </outline>
</glyph>
<glyph name="I_J.dlig" format="2">
  <advance width="574"/>
  <outline>
    <contour>
      <point x="101" y="383" type="line"/>
      <point x="191" y="383" type="line"/>
      <point x="233" y="680" type="line"/>
      <point x="143" y="680" type="line"/>
    </contour>
    <component base="J" xOffset="62"/>
  </outline>
</glyph>
<glyph name="a.sc" format="2">
  <advance width="515"/>
  <anchor x="460" y="7" name="ogonek"/>
  <anchor x="294" y="561" name="top"/>
  <outline>
    <contour>
      <point x="-29" y="0" type="line"/>
      <point x="62" y="0" type="line"/>
      <point x="286" y="479" type="line"/>
      <point x="278" y="479" type="line"/>
      <point x="371" y="0" type="line"/>
      <point x="467" y="0" type="line"/>
      <point x="342" y="561" type="line"/>
      <point x="247" y="561" type="line"/>
    </contour>
    <contour>
      <point x="120" y="150" type="line"/>
      <point x="348" y="150" type="line"/>
      <point x="357" y="216" type="line"/>
      <point x="129" y="216" type="line"/>
    </contour>
  </outline>
</glyph>
<glyph name="a.ss01" format="2">
  <advance width="583"/>
  <anchor x="240" y="0" name="bottom"/>
  <anchor x="462" y="10" name="ogonek"/>
  <anchor x="314" y="532" name="top"/>
  <outline>
    <contour>
      <point x="220" y="-12" type="curve" smooth="yes"/>
      <point x="310" y="-12"/>
      <point x="390" y="41"/>
      <point x="416" y="123" type="curve"/>
      <point x="409" y="123" type="line"/>
      <point x="393" y="0" type="line"/>
      <point x="477" y="0" type="line"/>
      <point x="549" y="532" type="line"/>
      <point x="463" y="532" type="line"/>
      <point x="448" y="420" type="line"/>
      <point x="456" y="420" type="line"/>
      <point x="442" y="496"/>
      <point x="381" y="544"/>
      <point x="294" y="544" type="curve" smooth="yes"/>
      <point x="136" y="544"/>
      <point x="30" y="398"/>
      <point x="30" y="211" type="curve" smooth="yes"/>
      <point x="30" y="76"/>
      <point x="102" y="-12"/>
    </contour>
    <contour>
      <point x="247" y="62" type="curve" smooth="yes"/>
      <point x="166" y="62"/>
      <point x="120" y="124"/>
      <point x="120" y="220" type="curve" smooth="yes"/>
      <point x="120" y="364"/>
      <point x="199" y="472"/>
      <point x="303" y="472" type="curve" smooth="yes"/>
      <point x="383" y="472"/>
      <point x="430" y="412"/>
      <point x="430" y="315" type="curve" smooth="yes"/>
      <point x="430" y="171"/>
      <point x="351" y="62"/>
    </contour>
  </outline>
</glyph>
<glyph name="acutecomb.case" format="2">
  <advance width="352"/>
  <anchor x="161" y="532" name="_top"/>
  <outline>
    <contour>
      <point x="119" y="586" type="line"/>
      <point x="194" y="586" type="line"/>
      <point x="340" y="708" type="line"/>
      <point x="228" y="708" type="line"/>
    </contour>
  </outline>
</glyph>
<glyph name="acutecomb.sc" format="2">
  <advance width="293"/>
  <anchor x="137" y="431" name="_top"/>
  <outline>
    <contour>
      <point x="89" y="479" type="line"/>
      <point x="156" y="479" type="line"/>
      <point x="281" y="599" type="line"/>
      <point x="182" y="599" type="line"/>
    </contour>
  </outline>
</glyph>
<glyph name="asterisk.ss04" format="2">
  <advance width="380"/>
  <outline>
    <contour>
      <point x="54" y="333" type="line"/>
      <point x="107" y="315" type="line"/>
      <point x="162" y="307" type="line"/>
      <point x="163" y="311" type="line"/>
      <point x="113" y="269" type="line"/>
      <point x="72" y="219" type="line"/>
      <point x="119" y="181" type="line"/>
      <point x="161" y="229" type="line"/>
      <point x="193" y="277" type="line"/>
      <point x="189" y="277" type="line"/>
      <point x="207" y="229" type="line"/>
      <point x="237" y="181" type="line"/>
      <point x="294" y="219" type="line"/>
      <point x="267" y="269" type="line"/>
      <point x="229" y="311" type="line"/>
      <point x="228" y="307" type="line"/>
      <point x="285" y="315" type="line"/>
      <point x="344" y="333" type="line"/>
      <point x="335" y="397" type="line"/>
      <point x="274" y="379" type="line"/>
      <point x="223" y="353" type="line"/>
      <point x="226" y="349" type="line"/>
      <point x="242" y="405" type="line"/>
      <point x="251" y="465" type="line"/>
      <point x="185" y="465" type="line"/>
      <point x="176" y="405" type="line"/>
      <point x="176" y="349" type="line"/>
      <point x="181" y="353" type="line"/>
      <point x="136" y="379" type="line"/>
      <point x="81" y="397" type="line"/>
    </contour>
  </outline>
</glyph>
<glyph name="b.sc" format="2">
  <advance width="516"/>
  <outline>
    <contour>
      <point x="32" y="0" type="line"/>
      <point x="271" y="0" type="line" smooth="yes"/>
      <point x="385" y="0"/>
      <point x="466" y="74"/>
      <point x="466" y="177" type="curve" smooth="yes"/>
      <point x="466" y="248"/>
      <point x="418" y="297"/>
      <point x="336" y="298" type="curve"/>
      <point x="335" y="292" type="line"/>
      <point x="421" y="298"/>
      <point x="482" y="361"/>
      <point x="482" y="443" type="curve" smooth="yes"/>
      <point x="482" y="516"/>
      <point x="425" y="561"/>
      <point x="337" y="561" type="curve" smooth="yes"/>
      <point x="109" y="561" type="line"/>
    </contour>
    <contour>
      <point x="130" y="64" type="line"/>
      <point x="189" y="498" type="line"/>
      <point x="183" y="492" type="line"/>
      <point x="311" y="492" type="line" smooth="yes"/>
      <point x="358" y="492"/>
      <point x="387" y="466"/>
      <point x="387" y="423" type="curve" smooth="yes"/>
      <point x="387" y="364"/>
      <point x="346" y="323"/>
      <point x="288" y="323" type="curve" smooth="yes"/>
      <point x="159" y="323" type="line"/>
      <point x="150" y="255" type="line"/>
      <point x="294" y="255" type="line" smooth="yes"/>
      <point x="341" y="255"/>
      <point x="371" y="227"/>
      <point x="371" y="180" type="curve" smooth="yes"/>
      <point x="371" y="114"/>
      <point x="328" y="70"/>
      <point x="266" y="70" type="curve" smooth="yes"/>
      <point x="125" y="70" type="line"/>
    </contour>
  </outline>
</glyph>
<glyph name="braceleft.case" format="2">
  <advance width="362"/>
  <outline>
    <contour>
      <point x="302" y="-18" type="curve"/>
      <point x="300" y="38" type="line"/>
      <point x="227" y="26"/>
      <point x="197" y="50"/>
      <point x="205" y="106" type="curve" smooth="yes"/>
      <point x="226" y="256" type="line" smooth="yes"/>
      <point x="234" y="310"/>
      <point x="210" y="345"/>
      <point x="156" y="348" type="curve"/>
      <point x="155" y="340" type="line"/>
      <point x="212" y="344"/>
      <point x="244" y="381"/>
      <point x="251" y="432" type="curve" smooth="yes"/>
      <point x="272" y="584" type="line" smooth="yes"/>
      <point x="280" y="640"/>
      <point x="316" y="662"/>
      <point x="386" y="650" type="curve"/>
      <point x="401" y="706" type="line"/>
      <point x="273" y="738"/>
      <point x="194" y="694"/>
      <point x="188" y="584" type="curve" smooth="yes"/>
      <point x="181" y="448" type="line" smooth="yes"/>
      <point x="179" y="403"/>
      <point x="156" y="379"/>
      <point x="118" y="379" type="curve" smooth="yes"/>
      <point x="76" y="379" type="line"/>
      <point x="66" y="310" type="line"/>
      <point x="108" y="310" type="line" smooth="yes"/>
      <point x="147" y="310"/>
      <point x="162" y="286"/>
      <point x="152" y="242" type="curve" smooth="yes"/>
      <point x="121" y="106" type="line" smooth="yes"/>
      <point x="96" y="-5"/>
      <point x="163" y="-50"/>
    </contour>
  </outline>
</glyph>
<glyph name="bracketleft.case" format="2">
  <advance width="291"/>
  <outline>
    <contour>
      <point x="39" y="-44" type="line"/>
      <point x="227" y="-44" type="line"/>
      <point x="237" y="24" type="line"/>
      <point x="126" y="24" type="line"/>
      <point x="132" y="17" type="line"/>
      <point x="222" y="663" type="line"/>
      <point x="215" y="657" type="line"/>
      <point x="325" y="657" type="line"/>
      <point x="334" y="724" type="line"/>
      <point x="147" y="724" type="line"/>
    </contour>
  </outline>
</glyph>
<glyph name="brevecomb.case" format="2">
  <advance width="410"/>
  <anchor x="242" y="532" name="_top"/>
  <outline>
    <contour>
      <point x="249" y="580" type="curve" smooth="yes"/>
      <point x="329" y="580"/>
      <point x="387" y="630"/>
      <point x="398" y="708" type="curve"/>
      <point x="330" y="708" type="line"/>
      <point x="325" y="673"/>
      <point x="300" y="650"/>
      <point x="259" y="650" type="curve" smooth="yes"/>
      <point x="219" y="650"/>
      <point x="199" y="672"/>
      <point x="204" y="708" type="curve"/>
      <point x="136" y="708" type="line"/>
      <point x="125" y="630"/>
      <point x="169" y="580"/>
    </contour>
  </outline>
</glyph>
<glyph name="brevecomb.sc" format="2">
  <advance width="341"/>
  <anchor x="194" y="431" name="_top"/>
  <outline>
    <contour>
      <point x="201" y="475" type="curve" smooth="yes"/>
      <point x="270" y="475"/>
      <point x="318" y="517"/>
      <point x="328" y="590" type="curve"/>
      <point x="269" y="590" type="line"/>
      <point x="264" y="554"/>
      <point x="243" y="533"/>
      <point x="209" y="533" type="curve" smooth="yes"/>
      <point x="175" y="533"/>
      <point x="159" y="553"/>
      <point x="164" y="590" type="curve"/>
      <point x="105" y="590" type="line"/>
      <point x="95" y="518"/>
      <point x="129" y="475"/>
    </contour>
  </outline>
</glyph>
<glyph name="c.sc" format="2">
  <advance width="547"/>
  <anchor x="258" y="0" name="bottom"/>
  <anchor x="325" y="561" name="top"/>
  <outline>
    <contour>
      <point x="252" y="-11" type="curve" smooth="yes"/>
      <point x="371" y="-11"/>
      <point x="475" y="67"/>
      <point x="510" y="181" type="curve"/>
      <point x="422" y="210" type="line"/>
      <point x="399" y="118"/>
      <point x="334" y="60"/>
      <point x="259" y="60" type="curve" smooth="yes"/>
      <point x="178" y="60"/>
      <point x="131" y="126"/>
      <point x="131" y="228" type="curve" smooth="yes"/>
      <point x="131" y="384"/>
      <point x="212" y="503"/>
      <point x="317" y="503" type="curve" smooth="yes"/>
      <point x="390" y="503"/>
      <point x="434" y="451"/>
      <point x="436" y="372" type="curve"/>
      <point x="528" y="396" type="line"/>
      <point x="518" y="503"/>
      <point x="439" y="572"/>
      <point x="326" y="572" type="curve" smooth="yes"/>
      <point x="163" y="572"/>
      <point x="35" y="421"/>
      <point x="35" y="226" type="curve" smooth="yes"/>
      <point x="35" y="83"/>
      <point x="120" y="-11"/>
    </contour>
  </outline>
</glyph>
<glyph name="caroncomb.alt" format="2">
  <advance width="230"/>
  <anchor x="55" y="522" name="_topright"/>
  <outline>
    <contour>
      <point x="114" y="554" type="line"/>
      <point x="174" y="554" type="line"/>
      <point x="220" y="724" type="line"/>
      <point x="140" y="724" type="line"/>
    </contour>
  </outline>
</glyph>
<glyph name="caroncomb.alt.sc" format="2">
  <advance width="194"/>
  <anchor x="44" y="431" name="_topright"/>
  <outline>
    <contour>
      <point x="84" y="447" type="line"/>
      <point x="140" y="447" type="line"/>
      <point x="181" y="594" type="line"/>
      <point x="107" y="594" type="line"/>
    </contour>
  </outline>
</glyph>
<glyph name="caroncomb.case" format="2">
  <advance width="464"/>
  <anchor x="269" y="532" name="_top"/>
  <outline>
    <contour>
      <point x="228" y="586" type="line"/>
      <point x="330" y="586" type="line"/>
      <point x="452" y="708" type="line"/>
      <point x="367" y="708" type="line"/>
      <point x="280" y="626" type="line"/>
      <point x="288" y="626" type="line"/>
      <point x="220" y="708" type="line"/>
      <point x="136" y="708" type="line"/>
    </contour>
  </outline>
</glyph>
<glyph name="caroncomb.sc" format="2">
  <advance width="385"/>
  <anchor x="216" y="430" name="_top"/>
  <outline>
    <contour>
      <point x="175" y="479" type="line"/>
      <point x="271" y="479" type="line"/>
      <point x="373" y="599" type="line"/>
      <point x="299" y="599" type="line"/>
      <point x="226" y="516" type="line"/>
      <point x="232" y="516" type="line"/>
      <point x="179" y="599" type="line"/>
      <point x="106" y="599" type="line"/>
    </contour>
  </outline>
</glyph>
<glyph name="cedillacomb.sc" format="2">
  <advance width="294"/>
  <anchor x="121" y="0" name="_bottom"/>
  <outline>
    <contour>
      <point x="-3" y="-175" type="line"/>
      <point x="93" y="-210"/>
      <point x="181" y="-180"/>
      <point x="181" y="-112" type="curve" smooth="yes"/>
      <point x="181" y="-81"/>
      <point x="157" y="-55"/>
      <point x="115" y="-47" type="curve"/>
      <point x="119" y="-56" type="line"/>
      <point x="153" y="0" type="line"/>
      <point x="99" y="0" type="line"/>
      <point x="55" y="-69" type="line"/>
      <point x="94" y="-73"/>
      <point x="119" y="-85"/>
      <point x="119" y="-104" type="curve" smooth="yes"/>
      <point x="119" y="-133"/>
      <point x="77" y="-146"/>
      <point x="15" y="-121" type="curve"/>
    </contour>
  </outline>
</glyph>
<glyph name="circumflexcomb.case" format="2">
  <advance width="462"/>
  <anchor x="268" y="532" name="_top"/>
  <outline>
    <contour>
      <point x="119" y="586" type="line"/>
      <point x="203" y="586" type="line"/>
      <point x="292" y="666" type="line"/>
      <point x="284" y="666" type="line"/>
      <point x="350" y="586" type="line"/>
      <point x="433" y="586" type="line"/>
      <point x="345" y="708" type="line"/>
      <point x="245" y="708" type="line"/>
    </contour>
  </outline>
</glyph>
<glyph name="circumflexcomb.sc" format="2">
  <advance width="384"/>
  <anchor x="216" y="431" name="_top"/>
  <outline>
    <contour>
      <point x="89" y="479" type="line"/>
      <point x="161" y="479" type="line"/>
      <point x="238" y="563" type="line"/>
      <point x="232" y="563" type="line"/>
      <point x="284" y="479" type="line"/>
      <point x="355" y="479" type="line"/>
      <point x="287" y="599" type="line"/>
      <point x="194" y="599" type="line"/>
    </contour>
  </outline>
</glyph>
<glyph name="commaaccentcomb.sc" format="2">
  <advance width="210"/>
  <anchor x="69" y="0" name="_bottom"/>
  <outline>
    <contour>
      <point x="1" y="-211" type="line"/>
      <point x="56" y="-201"/>
      <point x="91" y="-162"/>
      <point x="97" y="-117" type="curve" smooth="yes"/>
      <point x="108" y="-36" type="line"/>
      <point x="19" y="-36" type="line"/>
      <point x="7" y="-122" type="line"/>
      <point x="54" y="-122" type="line"/>
      <point x="54" y="-125" type="line" smooth="yes"/>
      <point x="51" y="-150"/>
      <point x="29" y="-170"/>
      <point x="-3" y="-174" type="curve"/>
    </contour>
  </outline>
</glyph>
<glyph name="commaturnedabovecomb.sc" format="2">
  <advance width="210"/>
  <anchor x="124" y="431" name="_top"/>
  <outline>
    <contour>
      <point x="197" y="651" type="line"/>
      <point x="147" y="643"/>
      <point x="108" y="608"/>
      <point x="101" y="558" type="curve" smooth="yes"/>
      <point x="89" y="476" type="line"/>
      <point x="178" y="476" type="line"/>
      <point x="190" y="563" type="line"/>
      <point x="143" y="563" type="line"/>
      <point x="144" y="565" type="line" smooth="yes"/>
      <point x="147" y="591"/>
      <point x="168" y="611"/>
      <point x="200" y="614" type="curve"/>
    </contour>
  </outline>
</glyph>
<glyph name="d.sc" format="2">
  <advance width="564"/>
  <anchor x="246" y="0" name="bottom"/>
  <anchor x="146" y="280" name="center"/>
  <anchor x="306" y="561" name="top"/>
  <outline>
    <contour>
      <point x="32" y="0" type="line"/>
      <point x="235" y="0" type="line" smooth="yes"/>
      <point x="408" y="0"/>
      <point x="533" y="142"/>
      <point x="533" y="335" type="curve" smooth="yes"/>
      <point x="533" y="473"/>
      <point x="453" y="561"/>
      <point x="316" y="561" type="curve" smooth="yes"/>
      <point x="109" y="561" type="line"/>
    </contour>
    <contour>
      <point x="130" y="64" type="line"/>
      <point x="189" y="498" type="line"/>
      <point x="182" y="492" type="line"/>
      <point x="291" y="492" type="line" smooth="yes"/>
      <point x="384" y="492"/>
      <point x="437" y="431"/>
      <point x="437" y="329" type="curve" smooth="yes"/>
      <point x="437" y="177"/>
      <point x="352" y="70"/>
      <point x="235" y="70" type="curve" smooth="yes"/>
      <point x="124" y="70" type="line"/>
    </contour>
  </outline>
</glyph>
<glyph name="dagger.sups" format="2">
  <advance width="273"/>
  <outline>
    <contour>
      <point x="129" y="434" type="line"/>
      <point x="191" y="434" type="line"/>
      <point x="230" y="712" type="line"/>
      <point x="168" y="712" type="line"/>
    </contour>
    <contour>
      <point x="70" y="576" type="line"/>
      <point x="290" y="576" type="line"/>
      <point x="298" y="632" type="line"/>
      <point x="78" y="632" type="line"/>
    </contour>
  </outline>
</glyph>
<glyph name="daggerdbl.sups" format="2">
  <advance width="321"/>
  <outline>
    <contour>
      <point x="153" y="435" type="line"/>
      <point x="215" y="435" type="line"/>
      <point x="254" y="713" type="line"/>
      <point x="192" y="713" type="line"/>
    </contour>
    <contour>
      <point x="100" y="603" type="line"/>
      <point x="315" y="603" type="line"/>
      <point x="322" y="655" type="line"/>
      <point x="107" y="655" type="line"/>
    </contour>
    <contour>
      <point x="85" y="497" type="line"/>
      <point x="301" y="497" type="line"/>
      <point x="308" y="549" type="line"/>
      <point x="92" y="549" type="line"/>
    </contour>
  </outline>
</glyph>
<glyph name="dieresiscomb.case" format="2">
  <advance width="400"/>
  <anchor x="237" y="532" name="_top"/>
  <outline>
    <contour>
      <point x="276" y="595" type="line"/>
      <point x="372" y="595" type="line"/>
      <point x="385" y="689" type="line"/>
      <point x="289" y="689" type="line"/>
    </contour>
    <contour>
      <point x="120" y="595" type="line"/>
      <point x="216" y="595" type="line"/>
      <point x="229" y="689" type="line"/>
      <point x="133" y="689" type="line"/>
    </contour>
  </outline>
</glyph>
<glyph name="dieresiscomb.sc" format="2">
  <advance width="334"/>
  <anchor x="190" y="431" name="_top"/>
  <outline>
    <contour>
      <point x="224" y="493" type="line"/>
      <point x="306" y="493" type="line"/>
      <point x="318" y="575" type="line"/>
      <point x="236" y="575" type="line"/>
    </contour>
    <contour>
      <point x="91" y="493" type="line"/>
      <point x="173" y="493" type="line"/>
      <point x="185" y="575" type="line"/>
      <point x="103" y="575" type="line"/>
    </contour>
  </outline>
</glyph>
<glyph name="dotaccentcomb.case" format="2">
  <advance width="254"/>
  <anchor x="165" y="532" name="_top"/>
  <outline>
    <contour>
      <point x="120" y="592" type="line"/>
      <point x="226" y="592" type="line"/>
      <point x="240" y="694" type="line"/>
      <point x="134" y="694" type="line"/>
    </contour>
  </outline>
</glyph>
<glyph name="dotaccentcomb.sc" format="2">
  <advance width="209"/>
  <anchor x="127" y="431" name="_top"/>
  <outline>
    <contour>
      <point x="91" y="492" type="line"/>
      <point x="182" y="492" type="line"/>
      <point x="194" y="580" type="line"/>
      <point x="103" y="580" type="line"/>
    </contour>
  </outline>
</glyph>
<glyph name="e.sc" format="2">
  <advance width="475"/>
  <anchor x="400" y="7" name="ogonek"/>
  <anchor x="296" y="561" name="top"/>
  <outline>
    <contour>
      <point x="32" y="0" type="line"/>
      <point x="405" y="0" type="line"/>
      <point x="415" y="70" type="line"/>
      <point x="125" y="70" type="line"/>
      <point x="131" y="63" type="line"/>
      <point x="191" y="498" type="line"/>
      <point x="183" y="491" type="line"/>
      <point x="468" y="491" type="line"/>
      <point x="478" y="561" type="line"/>
      <point x="109" y="561" type="line"/>
    </contour>
    <contour>
      <point x="151" y="255" type="line"/>
      <point x="409" y="255" type="line"/>
      <point x="419" y="323" type="line"/>
      <point x="160" y="323" type="line"/>
    </contour>
  </outline>
</glyph>
<glyph name="eight.dnom" format="2">
  <advance width="380"/>
  <outline>
    <contour>
      <point x="151" y="-8" type="curve" smooth="yes"/>
      <point x="246" y="-8"/>
      <point x="317" y="44"/>
      <point x="317" y="113" type="curve" smooth="yes"/>
      <point x="317" y="148"/>
      <point x="298" y="179"/>
      <point x="260" y="195" type="curve"/>
      <point x="260" y="192" type="line"/>
      <point x="302" y="207"/>
      <point x="326" y="240"/>
      <point x="326" y="280" type="curve" smooth="yes"/>
      <point x="326" y="332"/>
      <point x="278" y="367"/>
      <point x="203" y="367" type="curve" smooth="yes"/>
      <point x="116" y="367"/>
      <point x="52" y="319"/>
      <point x="52" y="256" type="curve" smooth="yes"/>
      <point x="52" y="229"/>
      <point x="66" y="205"/>
      <point x="99" y="192" type="curve"/>
      <point x="99" y="195" type="line"/>
      <point x="48" y="176"/>
      <point x="14" y="132"/>
      <point x="14" y="87" type="curve" smooth="yes"/>
      <point x="14" y="29"/>
      <point x="70" y="-8"/>
    </contour>
    <contour>
      <point x="159" y="48" type="curve" smooth="yes"/>
      <point x="119" y="48"/>
      <point x="94" y="69"/>
      <point x="94" y="100" type="curve" smooth="yes"/>
      <point x="94" y="141"/>
      <point x="128" y="170"/>
      <point x="176" y="170" type="curve" smooth="yes"/>
      <point x="214" y="170"/>
      <point x="241" y="151"/>
      <point x="241" y="118" type="curve" smooth="yes"/>
      <point x="241" y="78"/>
      <point x="207" y="48"/>
    </contour>
    <contour>
      <point x="182" y="214" type="curve" smooth="yes"/>
      <point x="146" y="214"/>
      <point x="123" y="231"/>
      <point x="123" y="256" type="curve" smooth="yes"/>
      <point x="123" y="288"/>
      <point x="155" y="311"/>
      <point x="196" y="311" type="curve" smooth="yes"/>
      <point x="230" y="311"/>
      <point x="253" y="295"/>
      <point x="253" y="269" type="curve" smooth="yes"/>
      <point x="253" y="237"/>
      <point x="222" y="214"/>
    </contour>
  </outline>
</glyph>
<glyph name="f.sc" format="2">
  <advance width="446"/>
  <outline>
    <contour>
      <point x="32" y="0" type="line"/>
      <point x="122" y="0" type="line"/>
      <point x="191" y="497" type="line"/>
      <point x="183" y="491" type="line"/>
      <point x="460" y="491" type="line"/>
      <point x="470" y="561" type="line"/>
      <point x="109" y="561" type="line"/>
    </contour>
    <contour>
      <point x="150" y="252" type="line"/>
      <point x="384" y="252" type="line"/>
      <point x="393" y="321" type="line"/>
      <point x="160" y="321" type="line"/>
    </contour>
  </outline>
</glyph>
<glyph name="five.dnom" format="2">
  <advance width="342"/>
  <outline>
    <contour>
      <point x="133" y="-9" type="curve" smooth="yes"/>
      <point x="222" y="-9"/>
      <point x="288" y="51"/>
      <point x="288" y="135" type="curve" smooth="yes"/>
      <point x="288" y="196"/>
      <point x="245" y="236"/>
      <point x="179" y="236" type="curve" smooth="yes"/>
      <point x="123" y="236"/>
      <point x="84" y="214"/>
      <point x="69" y="186" type="curve"/>
      <point x="93" y="186" type="line"/>
      <point x="128" y="301" type="line"/>
      <point x="293" y="301" type="line"/>
      <point x="301" y="359" type="line"/>
      <point x="76" y="359" type="line"/>
      <point x="23" y="159" type="line"/>
      <point x="83" y="145" type="line"/>
      <point x="99" y="166"/>
      <point x="125" y="176"/>
      <point x="155" y="176" type="curve" smooth="yes"/>
      <point x="190" y="176"/>
      <point x="212" y="155"/>
      <point x="212" y="124" type="curve" smooth="yes"/>
      <point x="212" y="82"/>
      <point x="181" y="51"/>
      <point x="138" y="51" type="curve" smooth="yes"/>
      <point x="101" y="51"/>
      <point x="81" y="73"/>
      <point x="81" y="100" type="curve"/>
      <point x="7" y="90" type="line"/>
      <point x="6" y="29"/>
      <point x="59" y="-9"/>
    </contour>
  </outline>
</glyph>
<glyph name="five.osf" format="2">
  <advance width="562"/>
  <outline>
    <contour>
      <point x="224" y="-134" type="curve" smooth="yes"/>
      <point x="384" y="-134"/>
      <point x="505" y="-17"/>
      <point x="505" y="136" type="curve" smooth="yes"/>
      <point x="505" y="246"/>
      <point x="431" y="320"/>
      <point x="312" y="320" type="curve" smooth="yes"/>
      <point x="231" y="320"/>
      <point x="157" y="286"/>
      <point x="128" y="236" type="curve"/>
      <point x="136" y="236" type="line"/>
      <point x="201" y="474" type="line"/>
      <point x="517" y="474" type="line"/>
      <point x="528" y="552" type="line"/>
      <point x="148" y="552" type="line"/>
      <point x="56" y="204" type="line"/>
      <point x="141" y="184" type="line"/>
      <point x="172" y="226"/>
      <point x="222" y="250"/>
      <point x="280" y="250" type="curve" smooth="yes"/>
      <point x="364" y="250"/>
      <point x="414" y="202"/>
      <point x="414" y="124" type="curve" smooth="yes"/>
      <point x="414" y="17"/>
      <point x="339" y="-60"/>
      <point x="236" y="-60" type="curve" smooth="yes"/>
      <point x="153" y="-60"/>
      <point x="100" y="-5"/>
      <point x="102" y="80" type="curve"/>
      <point x="5" y="58" type="line"/>
      <point x="4" y="-57"/>
      <point x="93" y="-134"/>
    </contour>
  </outline>
</glyph>
<glyph name="four.dnom" format="2">
  <advance width="337"/>
  <outline>
    <contour>
      <point x="154" y="-2" type="line"/>
      <point x="228" y="-2" type="line"/>
      <point x="279" y="359" type="line"/>
      <point x="213" y="359" type="line"/>
      <point x="-6" y="126" type="line"/>
      <point x="-13" y="74" type="line"/>
      <point x="288" y="74" type="line"/>
      <point x="296" y="132" type="line"/>
      <point x="58" y="132" type="line"/>
      <point x="63" y="128" type="line"/>
      <point x="201" y="275" type="line"/>
      <point x="193" y="275" type="line"/>
    </contour>
  </outline>
</glyph>
<glyph name="four.osf" format="2">
  <advance width="534"/>
  <outline>
    <contour>
      <point x="287" y="-136" type="line"/>
      <point x="375" y="-136" type="line"/>
      <point x="473" y="552" type="line"/>
      <point x="389" y="552" type="line"/>
      <point x="-11" y="80" type="line"/>
      <point x="-22" y="0" type="line"/>
      <point x="494" y="0" type="line"/>
      <point x="505" y="76" type="line"/>
      <point x="57" y="76" type="line"/>
      <point x="73" y="66" type="line"/>
      <point x="389" y="450" type="line"/>
      <point x="371" y="452" type="line"/>
    </contour>
  </outline>
</glyph>
<glyph name="four.tf" format="2">
  <advance width="620"/>
  <outline>
    <contour>
      <point x="341" y="0" type="line"/>
      <point x="429" y="0" type="line"/>
      <point x="524" y="680" type="line"/>
      <point x="440" y="680" type="line"/>
      <point x="30" y="240" type="line"/>
      <point x="19" y="160" type="line"/>
      <point x="555" y="160" type="line"/>
      <point x="566" y="236" type="line"/>
      <point x="98" y="236" type="line"/>
      <point x="108" y="225" type="line"/>
      <point x="434" y="577" type="line"/>
      <point x="422" y="580" type="line"/>
    </contour>
  </outline>
</glyph>
<glyph name="g.sc" format="2">
  <advance width="565"/>
  <note>
Versione senza gamba?
</note>
  <anchor x="269" y="0" name="bottom"/>
  <anchor x="331" y="561" name="top"/>
  <outline>
    <contour>
      <point x="269" y="-11" type="curve" smooth="yes"/>
      <point x="345" y="-11"/>
      <point x="428" y="13"/>
      <point x="485" y="62" type="curve"/>
      <point x="517" y="295" type="line"/>
      <point x="275" y="295" type="line"/>
      <point x="266" y="227" type="line"/>
      <point x="427" y="227" type="line"/>
      <point x="408" y="96" type="line"/>
      <point x="379" y="73"/>
      <point x="330" y="60"/>
      <point x="287" y="60" type="curve" smooth="yes"/>
      <point x="184" y="60"/>
      <point x="129" y="128"/>
      <point x="129" y="237" type="curve" smooth="yes"/>
      <point x="129" y="388"/>
      <point x="211" y="503"/>
      <point x="321" y="503" type="curve" smooth="yes"/>
      <point x="387" y="503"/>
      <point x="438" y="461"/>
      <point x="440" y="384" type="curve"/>
      <point x="532" y="406" type="line"/>
      <point x="526" y="501"/>
      <point x="448" y="572"/>
      <point x="333" y="572" type="curve" smooth="yes"/>
      <point x="164" y="572"/>
      <point x="35" y="424"/>
      <point x="35" y="229" type="curve" smooth="yes"/>
      <point x="35" y="85"/>
      <point x="121" y="-11"/>
    </contour>
  </outline>
</glyph>
<glyph name="g.ss02" format="2">
  <advance width="560"/>
  <anchor x="207" y="-218" name="bottom"/>
  <anchor x="312" y="532" name="top"/>
  <outline>
    <contour>
      <point x="193" y="-230" type="curve" smooth="yes"/>
      <point x="378" y="-230"/>
      <point x="477" y="-162"/>
      <point x="477" y="-45" type="curve" smooth="yes"/>
      <point x="477" y="154"/>
      <point x="105" y="29"/>
      <point x="105" y="133" type="curve" smooth="yes"/>
      <point x="105" y="157"/>
      <point x="132" y="178"/>
      <point x="179" y="192" type="curve"/>
      <point x="128" y="228" type="line"/>
      <point x="54" y="209"/>
      <point x="9" y="161"/>
      <point x="9" y="103" type="curve" smooth="yes"/>
      <point x="9" y="-58"/>
      <point x="385" y="62"/>
      <point x="385" y="-66" type="curve" smooth="yes"/>
      <point x="385" y="-122"/>
      <point x="319" y="-158"/>
      <point x="206" y="-158" type="curve" smooth="yes"/>
      <point x="106" y="-158"/>
      <point x="44" y="-130"/>
      <point x="44" y="-78" type="curve" smooth="yes"/>
      <point x="44" y="-39"/>
      <point x="77" y="-2"/>
      <point x="121" y="16" type="curve"/>
      <point x="61" y="46" type="line"/>
      <point x="-17" y="4"/>
      <point x="-45" y="-45"/>
      <point x="-45" y="-99" type="curve" smooth="yes"/>
      <point x="-45" y="-175"/>
      <point x="40" y="-230"/>
    </contour>
    <contour>
      <point x="255" y="166" type="curve" smooth="yes"/>
      <point x="383" y="166"/>
      <point x="478" y="260"/>
      <point x="478" y="385" type="curve" smooth="yes"/>
      <point x="478" y="481"/>
      <point x="410" y="544"/>
      <point x="305" y="544" type="curve" smooth="yes"/>
      <point x="177" y="544"/>
      <point x="80" y="449"/>
      <point x="80" y="323" type="curve" smooth="yes"/>
      <point x="80" y="229"/>
      <point x="149" y="166"/>
    </contour>
    <contour>
      <point x="263" y="236" type="curve" smooth="yes"/>
      <point x="203" y="236"/>
      <point x="167" y="273"/>
      <point x="167" y="332" type="curve" smooth="yes"/>
      <point x="167" y="414"/>
      <point x="221" y="474"/>
      <point x="296" y="474" type="curve" smooth="yes"/>
      <point x="356" y="474"/>
      <point x="392" y="437"/>
      <point x="392" y="378" type="curve" smooth="yes"/>
      <point x="392" y="295"/>
      <point x="338" y="236"/>
    </contour>
    <contour>
      <point x="466" y="424" type="line"/>
      <point x="483" y="484"/>
      <point x="538" y="508"/>
      <point x="587" y="484" type="curve"/>
      <point x="608" y="552" type="line"/>
      <point x="539" y="575"/>
      <point x="459" y="543"/>
      <point x="443" y="456" type="curve"/>
    </contour>
  </outline>
</glyph>
<glyph name="gravecomb.case" format="2">
  <advance width="350"/>
  <anchor x="265" y="532" name="_top"/>
  <outline>
    <contour>
      <point x="247" y="586" type="line"/>
      <point x="321" y="586" type="line"/>
      <point x="246" y="708" type="line"/>
      <point x="136" y="708" type="line"/>
    </contour>
  </outline>
</glyph>
<glyph name="gravecomb.sc" format="2">
  <advance width="292"/>
  <anchor x="201" y="431" name="_top"/>
  <outline>
    <contour>
      <point x="196" y="479" type="line"/>
      <point x="263" y="479" type="line"/>
      <point x="206" y="599" type="line"/>
      <point x="106" y="599" type="line"/>
    </contour>
  </outline>
</glyph>
<glyph name="h.sc" format="2">
  <advance width="571"/>
  <anchor x="248" y="0" name="bottom"/>
  <anchor x="306" y="421" name="center"/>
  <anchor x="325" y="561" name="top"/>
  <anchor x="63" y="561" name="topleft"/>
  <outline>
    <contour>
      <point x="375" y="0" type="line"/>
      <point x="465" y="0" type="line"/>
      <point x="542" y="561" type="line"/>
      <point x="452" y="561" type="line"/>
    </contour>
    <contour>
      <point x="32" y="0" type="line"/>
      <point x="122" y="0" type="line"/>
      <point x="199" y="561" type="line"/>
      <point x="109" y="561" type="line"/>
    </contour>
    <contour>
      <point x="151" y="259" type="line"/>
      <point x="416" y="259" type="line"/>
      <point x="427" y="329" type="line"/>
      <point x="161" y="329" type="line"/>
    </contour>
  </outline>
</glyph>
<glyph name="hungarumlautcomb.case" format="2">
  <advance width="442"/>
  <anchor x="215" y="532" name="_top"/>
  <outline>
    <contour>
      <point x="237" y="586" type="line"/>
      <point x="304" y="586" type="line"/>
      <point x="430" y="708" type="line"/>
      <point x="336" y="708" type="line"/>
    </contour>
    <contour>
      <point x="119" y="586" type="line"/>
      <point x="185" y="586" type="line"/>
      <point x="306" y="708" type="line"/>
      <point x="216" y="708" type="line"/>
    </contour>
  </outline>
</glyph>
<glyph name="hungarumlautcomb.sc" format="2">
  <advance width="375"/>
  <anchor x="183" y="431" name="_top"/>
  <outline>
    <contour>
      <point x="196" y="479" type="line"/>
      <point x="258" y="479" type="line"/>
      <point x="363" y="599" type="line"/>
      <point x="276" y="599" type="line"/>
    </contour>
    <contour>
      <point x="89" y="479" type="line"/>
      <point x="152" y="479" type="line"/>
      <point x="249" y="599" type="line"/>
      <point x="163" y="599" type="line"/>
    </contour>
  </outline>
</glyph>
<glyph name="j.sc" format="2">
  <advance width="434"/>
  <anchor x="179" y="0" name="bottom"/>
  <anchor x="363" y="561" name="top"/>
  <outline>
    <contour>
      <point x="159" y="-11" type="curve" smooth="yes"/>
      <point x="258" y="-11"/>
      <point x="342" y="53"/>
      <point x="358" y="165" type="curve" smooth="yes"/>
      <point x="413" y="561" type="line"/>
      <point x="323" y="561" type="line"/>
      <point x="268" y="164" type="line" smooth="yes"/>
      <point x="259" y="102"/>
      <point x="222" y="62"/>
      <point x="170" y="62" type="curve" smooth="yes"/>
      <point x="109" y="62"/>
      <point x="82" y="112"/>
      <point x="96" y="198" type="curve"/>
      <point x="8" y="187" type="line"/>
      <point x="-11" y="63"/>
      <point x="48" y="-11"/>
    </contour>
  </outline>
</glyph>
<glyph name="k.sc" format="2">
  <advance width="526"/>
  <anchor x="248" y="0" name="bottom"/>
  <anchor x="313" y="561" name="top"/>
  <outline>
    <contour>
      <point x="32" y="0" type="line"/>
      <point x="122" y="0" type="line"/>
      <point x="150" y="202" type="line"/>
      <point x="142" y="184" type="line"/>
      <point x="538" y="561" type="line"/>
      <point x="432" y="561" type="line"/>
      <point x="153" y="291" type="line"/>
      <point x="162" y="291" type="line"/>
      <point x="199" y="561" type="line"/>
      <point x="109" y="561" type="line"/>
    </contour>
    <contour>
      <point x="372" y="0" type="line"/>
      <point x="480" y="0" type="line"/>
      <point x="289" y="333" type="line"/>
      <point x="223" y="271" type="line"/>
    </contour>
  </outline>
</glyph>
<glyph name="lslash.sc" format="2">
  <advance width="420"/>
  <outline>
    <component base="l.sc"/>
    <contour>
      <point x="13" y="216" type="line"/>
      <point x="293" y="307" type="line"/>
      <point x="275" y="362" type="line"/>
      <point x="-5" y="269" type="line"/>
    </contour>
  </outline>
</glyph>
<glyph name="m.001" format="2">
  <advance width="831"/>
  <outline>
    <contour>
      <point x="29" y="0" type="line"/>
      <point x="115" y="0" type="line"/>
      <point x="152" y="240" type="line" smooth="yes"/>
      <point x="172" y="381"/>
      <point x="224" y="470"/>
      <point x="304" y="470" type="curve" smooth="yes"/>
      <point x="364" y="470"/>
      <point x="395" y="422"/>
      <point x="384" y="340" type="curve" smooth="yes"/>
      <point x="337" y="0" type="line"/>
      <point x="423" y="0" type="line"/>
      <point x="458" y="238" type="line" smooth="yes"/>
      <point x="478" y="383"/>
      <point x="533" y="470"/>
      <point x="613" y="470" type="curve" smooth="yes"/>
      <point x="674" y="470"/>
      <point x="705" y="422"/>
      <point x="694" y="340" type="curve" smooth="yes"/>
      <point x="648" y="0" type="line"/>
      <point x="733" y="0" type="line"/>
      <point x="780" y="352" type="line" smooth="yes"/>
      <point x="796" y="473"/>
      <point x="741" y="544"/>
      <point x="644" y="544" type="curve" smooth="yes"/>
      <point x="559" y="544"/>
      <point x="486" y="486"/>
      <point x="462" y="400" type="curve"/>
      <point x="470" y="400" type="line"/>
      <point x="474" y="484"/>
      <point x="421" y="544"/>
      <point x="337" y="544" type="curve" smooth="yes"/>
      <point x="255" y="544"/>
      <point x="181" y="486"/>
      <point x="160" y="400" type="curve"/>
      <point x="168" y="400" type="line"/>
      <point x="185" y="532" type="line"/>
      <point x="101" y="532" type="line"/>
    </contour>
  </outline>
</glyph>
<glyph name="m.sc" format="2">
  <advance width="690"/>
  <outline>
    <contour>
      <point x="32" y="0" type="line"/>
      <point x="110" y="0" type="line"/>
      <point x="174" y="468" type="line"/>
      <point x="168" y="468" type="line"/>
      <point x="270" y="0" type="line"/>
      <point x="341" y="0" type="line"/>
      <point x="569" y="469" type="line"/>
      <point x="561" y="469" type="line"/>
      <point x="497" y="0" type="line"/>
      <point x="584" y="0" type="line"/>
      <point x="661" y="561" type="line"/>
      <point x="544" y="561" type="line"/>
      <point x="324" y="105" type="line"/>
      <point x="330" y="105" type="line"/>
      <point x="230" y="561" type="line"/>
      <point x="109" y="561" type="line"/>
    </contour>
  </outline>
</glyph>
<glyph name="macronbelowcomb.sc" format="2">
  <advance width="338"/>
  <anchor x="132" y="0" name="_bottom"/>
  <anchor x="114" y="-125" name="bottom"/>
  <outline>
    <contour>
      <point x="4" y="-125" type="line"/>
      <point x="224" y="-125" type="line"/>
      <point x="232" y="-66" type="line"/>
      <point x="12" y="-66" type="line"/>
    </contour>
  </outline>
</glyph>
<glyph name="macroncomb.case" format="2">
  <advance width="432"/>
  <anchor x="253" y="532" name="_top"/>
  <outline>
    <contour>
      <point x="122" y="608" type="line"/>
      <point x="406" y="608" type="line"/>
      <point x="415" y="674" type="line"/>
      <point x="131" y="674" type="line"/>
    </contour>
  </outline>
</glyph>
<glyph name="macroncomb.sc" format="2">
  <advance width="338"/>
  <anchor x="192" y="431" name="_top"/>
  <outline>
    <contour>
      <point x="91" y="495" type="line"/>
      <point x="311" y="495" type="line"/>
      <point x="319" y="554" type="line"/>
      <point x="99" y="554" type="line"/>
    </contour>
  </outline>
</glyph>
<glyph name="n.sc" format="2">
  <advance width="577"/>
  <anchor x="259" y="0" name="bottom"/>
  <anchor x="329" y="561" name="top"/>
  <outline>
    <contour>
      <point x="32" y="0" type="line"/>
      <point x="115" y="0" type="line"/>
      <point x="177" y="462" type="line"/>
      <point x="171" y="462" type="line"/>
      <point x="369" y="0" type="line"/>
      <point x="471" y="0" type="line"/>
      <point x="548" y="561" type="line"/>
      <point x="466" y="561" type="line"/>
      <point x="405" y="113" type="line"/>
      <point x="412" y="113" type="line"/>
      <point x="218" y="561" type="line"/>
      <point x="109" y="561" type="line"/>
    </contour>
  </outline>
</glyph>
